<?xml version="1.0" encoding="UTF-8"?>
<svg width="20px" height="20px" viewBox="0 0 20 20" version="1.1" xmlns="http://www.w3.org/2000/svg" xmlns:xlink="http://www.w3.org/1999/xlink">
    <!-- Generator: Sketch 63.1 (92452) - https://sketch.com -->
    <title>noun_admin_1187891</title>
    <desc>Created with Sketch.</desc>
    <g id="Talent-Mob-2020" stroke="none" stroke-width="1" fill="none" fill-rule="evenodd">
        <g id="Tal_Web_MyRedep_Profile_Overlay" transform="translate(-1142.000000, -200.000000)" fill="#747588" fill-rule="nonzero">
            <g id="Group-19" transform="translate(1110.500000, 55.000000)">
                <g id="noun_admin_1187891" transform="translate(31.500000, 145.000000)">
                    <path d="M19.6666667,13.7708333 L19.0833333,13.4791667 C19.0625,13.3541667 19.0416667,13.2291667 19.0208333,13.1041667 L19.4791667,12.5625 C19.5625,12.4583333 19.6041667,12.3125 19.5416667,12.1666667 C19.3333333,11.5833333 19.0416667,11.0625 18.6666667,10.5833333 C18.5625,10.4583333 18.4166667,10.3958333 18.25,10.4375 L17.6458333,10.5833333 C17.5,10.4375 17.3333333,10.2916667 17.1666667,10.1666667 L17.1666667,9.47916667 C17.1666667,9.33333333 17.0833333,9.20833333 16.9583333,9.125 C16.8958333,9.08333333 16.8541667,9.0625 16.7916667,9.04166667 C16.3541667,8.8125 15.8958333,8.625 15.3958333,8.52083333 C15.25,8.47916667 15.0833333,8.54166667 14.9791667,8.66666667 L14.6666667,9.16666667 C14.3541667,9.125 14.0416667,9.125 13.75,9.14583333 L13.3333333,8.625 C13.2291667,8.52083333 13.0833333,8.45833333 12.9375,8.5 C12.4375,8.60416667 11.9583333,8.79166667 11.4791667,9.02083333 C11.3333333,9.08333333 11.25,9.25 11.2708333,9.39583333 L11.3125,10 C11,10.2083333 10.7291667,10.4583333 10.4583333,10.7291667 L9.83333333,10.625 C9.6875,10.6041667 9.52083333,10.6666667 9.4375,10.7916667 C9.27083333,11.0208333 9.14583333,11.2291667 9.04166667,11.4375 C8.9375,11.6458333 8.83333333,11.875 8.75,12.1041667 C8.6875,12.25 8.72916667,12.4166667 8.83333333,12.5208333 L9.27083333,12.9791667 C9.1875,13.3333333 9.14583333,13.7083333 9.14583333,14.0833333 L8.60416667,14.375 C8.45833333,14.4583333 8.39583333,14.6041667 8.41666667,14.7708333 C8.47916667,15.2916667 8.60416667,15.7916667 8.79166667,16.2708333 C8.85416667,16.4166667 8.97916667,16.5 9.125,16.5208333 L9.79166667,16.5833333 C9.9375,16.8541667 10.125,17.1041667 10.3125,17.3333333 L10.1041667,17.8958333 C10.0416667,18.0416667 10.0833333,18.2083333 10.2083333,18.3125 C10.5833333,18.6666667 11,18.9583333 11.4583333,19.2083333 C11.4791667,19.2291667 11.5208333,19.2291667 11.5416667,19.25 L11.5833333,19.2708333 C11.7083333,19.3333333 11.8541667,19.3333333 11.9791667,19.25 L12.5625,18.8541667 C12.75,18.9166667 12.9583333,18.9791667 13.1666667,19.0208333 L13.375,19.6041667 C13.4375,19.75 13.5625,19.8541667 13.7083333,19.8541667 C13.8541667,19.875 14,19.875 14.1458333,19.875 C14.6041667,19.875 15.0833333,19.8125 15.5416667,19.7083333 C15.6875,19.6666667 15.7916667,19.5625 15.8333333,19.4375 L16.0208333,18.7708333 C16.125,18.7291667 16.25,18.6666667 16.3541667,18.625 L16.9166667,18.9583333 C17.0416667,19.0416667 17.2083333,19.0208333 17.3333333,18.9375 C17.875,18.5833333 18.3333333,18.1458333 18.7291667,17.625 C18.8125,17.5 18.8333333,17.3541667 18.7708333,17.2291667 L18.5,16.6041667 C18.5208333,16.5625 18.5625,16.5 18.5833333,16.4583333 C18.6041667,16.4375 18.6041667,16.3958333 18.625,16.375 L19.2916667,16.25 C19.4375,16.2291667 19.5416667,16.125 19.6041667,16 C19.8125,15.3958333 19.9166667,14.75 19.9166667,14.125 C19.8958333,13.9583333 19.8125,13.8333333 19.6666667,13.7708333 Z M18.9166667,15.5208333 L18.2708333,15.625 C18.1458333,15.6458333 18.0416667,15.7291667 17.9791667,15.8541667 C17.9375,15.9375 17.8958333,16.0208333 17.8541667,16.1041667 C17.8125,16.2083333 17.75,16.2916667 17.6875,16.375 C17.625,16.4791667 17.6041667,16.625 17.6666667,16.75 L17.9375,17.3333333 C17.6875,17.625 17.3958333,17.9166667 17.0833333,18.1458333 L16.5416667,17.8333333 C16.4166667,17.7708333 16.2708333,17.7708333 16.1458333,17.8333333 C15.9583333,17.9375 15.75,18.0208333 15.5416667,18.1041667 C15.4166667,18.1458333 15.3333333,18.25 15.2916667,18.375 L15.1041667,19.0208333 C14.75,19.0833333 14.375,19.125 14,19.125 L13.8125,18.5416667 C13.7708333,18.3958333 13.6458333,18.3125 13.5,18.2916667 C13.2083333,18.25 12.9166667,18.1666667 12.6458333,18.0625 C12.5208333,18.0208333 12.3958333,18.0416667 12.2916667,18.1041667 L11.75,18.4791667 C11.4583333,18.3125 11.2083333,18.1458333 10.9583333,17.9375 L11.1458333,17.3958333 C11.1875,17.25 11.1666667,17.1041667 11.0625,17 C10.8125,16.7291667 10.5833333,16.3958333 10.3958333,16.0625 C10.3333333,15.9375 10.2083333,15.8541667 10.0833333,15.8541667 L9.45833333,15.7916667 C9.375,15.5208333 9.29166667,15.25 9.25,14.9791667 L9.75,14.6875 C9.875,14.6041667 9.95833333,14.4791667 9.95833333,14.3333333 C9.9375,13.875 10,13.4375 10.125,13.0208333 C10.1666667,12.875 10.125,12.7291667 10.0208333,12.6458333 L9.60416667,12.2083333 C9.64583333,12.0833333 9.70833333,11.9791667 9.77083333,11.875 C9.83333333,11.75 9.89583333,11.6458333 9.97916667,11.5208333 L10.5625,11.625 C10.7083333,11.6458333 10.8541667,11.6041667 10.9375,11.4791667 C11.2291667,11.1458333 11.5625,10.8333333 11.9375,10.6041667 C12.0625,10.5208333 12.125,10.3958333 12.125,10.2291667 L12.0833333,9.625 C12.3333333,9.5 12.6041667,9.41666667 12.875,9.33333333 L13.2708333,9.8125 C13.3541667,9.91666667 13.4791667,9.95833333 13.625,9.95833333 C14.0208333,9.91666667 14.4166667,9.91666667 14.7916667,9.97916667 C14.9375,10 15.0833333,9.9375 15.1666667,9.8125 L15.5,9.35416667 C15.8125,9.4375 16.1041667,9.5625 16.3958333,9.70833333 L16.3958333,10.375 C16.3958333,10.5 16.4583333,10.625 16.5625,10.7083333 C16.8125,10.8958333 17.0416667,11.0833333 17.25,11.3125 C17.3541667,11.4166667 17.5,11.4583333 17.6458333,11.4375 L18.2083333,11.2916667 C18.4166667,11.5833333 18.6041667,11.9166667 18.7291667,12.25 L18.2916667,12.75 C18.2083333,12.8541667 18.1875,12.9791667 18.2083333,13.1041667 C18.2708333,13.3125 18.2916667,13.5416667 18.3125,13.7708333 C18.3333333,13.9166667 18.4166667,14.0208333 18.5416667,14.0833333 L19.0833333,14.3541667 C19.0833333,14.75 19.0208333,15.1458333 18.9166667,15.5208333 Z" id="Shape"></path>
                    <path d="M15.25,12.1041667 C14.9166667,11.9166667 14.5208333,11.8333333 14.1458333,11.8333333 C13.2708333,11.8333333 12.4583333,12.3125 12.0625,13.0833333 C11.7708333,13.6458333 11.7083333,14.2708333 11.8958333,14.875 C12.0833333,15.4791667 12.5,15.9791667 13.0416667,16.2708333 C13.375,16.4583333 13.7708333,16.5416667 14.1458333,16.5416667 C15.0208333,16.5416667 15.8333333,16.0625 16.2291667,15.2916667 C16.5208333,14.7291667 16.5833333,14.1041667 16.3958333,13.5 C16.2291667,12.8958333 15.8125,12.3958333 15.25,12.1041667 Z M15.5416667,14.9375 C15.2708333,15.4583333 14.7291667,15.7708333 14.1458333,15.7708333 C13.8958333,15.7708333 13.6458333,15.7083333 13.4166667,15.5833333 C13.0416667,15.3958333 12.7708333,15.0625 12.6458333,14.6666667 C12.5208333,14.2708333 12.5625,13.8333333 12.75,13.4583333 C13.0208333,12.9375 13.5625,12.625 14.1458333,12.625 C14.3958333,12.625 14.6458333,12.6875 14.875,12.8125 C15.25,13 15.5208333,13.3333333 15.6458333,13.7291667 C15.7708333,14.125 15.7291667,14.5625 15.5416667,14.9375 Z" id="Shape"></path>
                    <path d="M7.39583333,16.1458333 L1.20833333,16.1458333 C1.04166667,16.1458333 0.895833333,16 0.895833333,15.8333333 L0.895833333,3.875 L16.1458333,3.875 L16.1458333,7.5 C16.1458333,7.70833333 16.3333333,7.89583333 16.5416667,7.89583333 C16.75,7.89583333 16.9375,7.70833333 16.9375,7.5 L16.9375,1.20833333 C16.9375,0.604166667 16.4375,0.104166667 15.8333333,0.104166667 L1.20833333,0.104166667 C0.604166667,0.104166667 0.104166667,0.604166667 0.104166667,1.20833333 L0.104166667,15.8333333 C0.104166667,16.4375 0.604166667,16.9375 1.20833333,16.9375 L7.39583333,16.9375 C7.60416667,16.9375 7.79166667,16.75 7.79166667,16.5416667 C7.79166667,16.3125 7.60416667,16.1458333 7.39583333,16.1458333 Z M1.20833333,0.895833333 L15.8333333,0.895833333 C16,0.895833333 16.1458333,1.04166667 16.1458333,1.20833333 L16.1458333,3.08333333 L0.895833333,3.08333333 L0.895833333,1.20833333 C0.895833333,1.04166667 1.04166667,0.895833333 1.20833333,0.895833333 Z" id="Shape"></path>
                    <path d="M6.5,2.39583333 L15.0416667,2.39583333 C15.25,2.39583333 15.4375,2.20833333 15.4375,2 C15.4375,1.79166667 15.25,1.60416667 15.0416667,1.60416667 L6.5,1.60416667 C6.29166667,1.60416667 6.10416667,1.79166667 6.10416667,2 C6.10416667,2.20833333 6.27083333,2.39583333 6.5,2.39583333 Z" id="Path"></path>
                    <path d="M2.0625,2.41666667 C2.70833333,2.41666667 2.70833333,1.41666667 2.0625,1.41666667 C1.4375,1.4375 1.4375,2.41666667 2.0625,2.41666667 Z" id="Path"></path>
                    <path d="M3.35416667,2.45833333 C4,2.45833333 4,1.45833333 3.35416667,1.45833333 C2.70833333,1.45833333 2.70833333,2.45833333 3.35416667,2.45833333 Z" id="Path"></path>
                    <path d="M4.64583333,2.5 C5.29166667,2.5 5.29166667,1.5 4.64583333,1.5 C4,1.5 4,2.5 4.64583333,2.5 Z" id="Path"></path>
                </g>
            </g>
        </g>
    </g>
</svg>