<?xml version="1.0" encoding="UTF-8"?>
<svg width="174px" height="67px" viewBox="0 0 174 67" version="1.1" xmlns="http://www.w3.org/2000/svg" xmlns:xlink="http://www.w3.org/1999/xlink">
    <!-- Generator: Sketch 63.1 (92452) - https://sketch.com -->
    <title>Group 2</title>
    <desc>Created with Sketch.</desc>
    <g id="Page-2" stroke="none" stroke-width="1" fill="none" fill-rule="evenodd">
        <g id="Group-2">
            <g id="Group-Copy-2">
                <path d="M25.146216,24.9475026 C24.2211459,25.8689846 22.9725169,26.3948885 21.6371633,26.3948885 C18.8963682,26.3948885 16.6747324,24.1823915 16.6747324,21.4529157 C16.6747324,18.7237398 18.8964118,16.5112863 21.6371633,16.5112863 C22.7947745,16.5112863 23.8886619,16.9058459 24.7675647,17.6181726 L26.1560767,15.9192927 C24.8883775,14.8918572 23.3052908,14.320846 21.6371633,14.320846 C17.6815533,14.320846 14.4750715,17.5140123 14.4750715,21.4529157 C14.4750715,25.3920998 17.6814903,28.5853288 21.6371633,28.5853288 C23.5619509,28.5853288 25.3682929,27.8245245 26.7018556,26.4961343 L25.146216,24.9475026 Z" id="Stroke-1" fill="#E16240" fill-rule="nonzero"></path>
                <path d="M16.9677882,12.7411985 L15.939783,10.8052356 C17.6593541,9.89373719 19.5803383,9.41034971 21.5689132,9.41034971 C28.2107815,9.41034971 33.5951902,14.7901507 33.5951902,21.426074 C33.5951902,28.0622824 28.21084,33.4421419 21.5689132,33.4421419 C14.9269865,33.4421419 9.54263627,28.0622824 9.54263627,21.426074 L11.7361114,21.426074 C11.7361114,26.8519438 16.1384307,31.2505915 21.5689132,31.2505915 C26.9993958,31.2505915 31.4017151,26.8519438 31.4017151,21.426074 C31.4017151,16.0005 26.9993479,11.6019001 21.5689132,11.6019001 C19.94092,11.6019001 18.3726025,11.9965442 16.9677882,12.7411985 Z M11.3888797,31.8680441 L9.85822309,33.4377873 C6.63694317,30.3022272 4.78592185,26.0099922 4.78592185,21.426074 C4.78592185,12.1653524 12.3000585,4.65780918 21.5689132,4.65780918 C30.8379969,4.65780918 38.3519046,12.1652374 38.3519046,21.426074 C38.3519046,28.2179119 34.2732143,34.2588436 28.1229014,36.8679318 L27.2656403,34.8506847 C32.612739,32.5823364 36.1584295,27.3308285 36.1584295,21.426074 C36.1584295,13.3755898 29.6265666,6.84935962 21.5689132,6.84935962 C13.5114813,6.84935962 6.979397,13.3757122 6.979397,21.426074 C6.979397,25.4127214 8.58716145,29.140881 11.3888797,31.8680441 Z" id="Stroke-2" fill="#465191" fill-rule="nonzero"></path>
                <path d="M33.7738434,36.1962307 C30.3476242,39.0456377 26.0411507,40.6314128 21.4876752,40.6314128 C10.8789106,40.6314128 2.27875883,32.0449571 2.27875883,21.4530874 C2.27875883,10.8612177 10.8789106,2.27476199 21.4876752,2.27476199 C25.9804034,2.27476199 30.233282,3.81836996 33.6391028,6.59886796 L34.9726835,4.97056904 C31.1939215,1.88560346 26.471024,0.171399247 21.4876752,0.171399247 C9.7154025,0.171399247 0.17204106,9.69956251 0.17204106,21.4530874 C0.17204106,33.2066123 9.7154025,42.7347756 21.4876752,42.7347756 C26.5384404,42.7347756 31.320832,40.9737528 35.1221881,37.8123642 L33.7738434,36.1962307 Z" id="Stroke-3" fill="#465191" fill-rule="nonzero"></path>
                <path d="M28.4320609,18.1172093 C28.4320609,19.3240805 27.4507709,20.3027259 26.2402968,20.3027259 C25.0301642,20.3027259 24.0488742,19.3240805 24.0488742,18.1172093 C24.0488742,16.9099975 25.0301642,15.9313521 26.2402968,15.9313521 C27.4507709,15.9313521 28.4320609,16.9099975 28.4320609,18.1172093" id="Fill-4" fill="#E16240"></path>
                <path d="M18.8582583,12.1353294 C18.8582583,13.3425412 17.8773098,14.320846 16.6668357,14.320846 C15.4563616,14.320846 14.4750715,13.3425412 14.4750715,12.1353294 C14.4750715,10.9281176 15.4563616,9.94947219 16.6668357,9.94947219 C17.8773098,9.94947219 18.8582583,10.9281176 18.8582583,12.1353294" id="Fill-5" fill="#E16240"></path>
                <path d="M29.8162252,35.7177406 C29.8162252,36.9249524 28.8352766,37.9032572 27.6248026,37.9032572 C26.4143285,37.9032572 25.4330384,36.9249524 25.4330384,35.7177406 C25.4330384,34.5105288 26.4143285,33.5318834 27.6248026,33.5318834 C28.8352766,33.5318834 29.8162252,34.5105288 29.8162252,35.7177406" id="Fill-6" fill="#E16240"></path>
                <path d="M37.8905166,6.49855794 C37.8905166,7.70576971 36.9092265,8.68407451 35.699094,8.68407451 C34.4886199,8.68407451 33.5073298,7.70576971 33.5073298,6.49855794 C33.5073298,5.29134616 34.4886199,4.31270073 35.699094,4.31270073 C36.9092265,4.31270073 37.8905166,5.29134616 37.8905166,6.49855794" id="Fill-7" fill="#E16240"></path>
                <path d="M37.8905166,35.8324361 C37.8905166,37.0396479 36.9092265,38.0182933 35.699094,38.0182933 C34.4886199,38.0182933 33.5073298,37.0396479 33.5073298,35.8324361 C33.5073298,34.6252243 34.4886199,33.6469195 35.699094,33.6469195 C36.9092265,33.6469195 37.8905166,34.6252243 37.8905166,35.8324361" id="Fill-8" fill="#E16240"></path>
                <path d="M28.4320609,24.67427 C28.4320609,25.8814818 27.4507709,26.8597866 26.2402968,26.8597866 C25.0301642,26.8597866 24.0488742,25.8814818 24.0488742,24.67427 C24.0488742,23.4670582 25.0301642,22.4884128 26.2402968,22.4884128 C27.4507709,22.4884128 28.4320609,23.4670582 28.4320609,24.67427" id="Fill-9" fill="#E16240"></path>
                <path d="M12.8602132,21.4529171 C12.8602132,22.6601289 11.8789232,23.6387743 10.6684491,23.6387743 C9.45797501,23.6387743 8.47702649,22.6601289 8.47702649,21.4529171 C8.47702649,20.246046 9.45797501,19.2674005 10.6684491,19.2674005 C11.8789232,19.2674005 12.8602132,20.246046 12.8602132,21.4529171" id="Fill-10" fill="#E16240"></path>
                <path d="M12.8602132,32.7268006 C12.8602132,33.9336718 11.8789232,34.9123172 10.6684491,34.9123172 C9.45797501,34.9123172 8.47702649,33.9336718 8.47702649,32.7268006 C8.47702649,31.5195889 9.45797501,30.5409434 10.6684491,30.5409434 C11.8789232,30.5409434 12.8602132,31.5195889 12.8602132,32.7268006" id="Fill-11" fill="#E16240"></path>
                <path d="M57.0624879,12.4802675 C59.2618799,12.4802675 61.1084024,13.5623059 62.3030486,14.7799 L60.1036566,17.2422683 C59.2076719,16.4306535 58.3658952,15.9162983 57.1166958,15.9162983 C54.6459189,15.9162983 52.7179118,18.053883 52.7179118,21.5986337 C52.7179118,25.2242362 54.4287419,27.3346409 57.00828,27.3346409 C58.4743111,27.3346409 59.5063335,26.7125979 60.3753868,25.7654273 L62.5747788,28.1737797 C61.1084024,29.8782051 59.153464,30.7710157 56.954072,30.7710157 C52.3650424,30.7710157 48.6177894,27.6594245 48.6177894,21.7338455 C48.6177894,15.8894624 52.5007348,12.4802675 57.0624879,12.4802675" id="Fill-12" fill="#465191"></path>
                <path d="M64.8817192,11.5599783 L68.8569666,11.5599783 L68.8569666,26.5492056 C68.8569666,27.3894846 69.2355779,27.6603867 69.5602002,27.6603867 C69.7225114,27.6603867 69.8308334,27.6603867 70.0471336,27.6062752 L70.5337232,30.5606936 C70.1011227,30.7506008 69.4250556,30.8860519 68.5323443,30.8860519 C65.8009092,30.8860519 64.8817192,29.0972708 64.8817192,26.3865264 L64.8817192,11.5599783" id="Fill-13" fill="#465191"></path>
                <path d="M72.5896954,30.5409434 L76.5793046,30.5409434 L76.5793046,17.106404 L72.5896954,17.106404 L72.5896954,30.5409434 Z M72.2639285,13.0433574 C72.2639285,11.8244778 73.2412292,10.9847976 74.5708689,10.9847976 C75.9281159,10.9847976 76.8778093,11.8244778 76.8778093,13.0433574 C76.8778093,14.2622369 75.9281159,15.1291258 74.5708689,15.1291258 C73.2412292,15.1291258 72.2639285,14.2622369 72.2639285,13.0433574 L72.2639285,13.0433574 Z" id="Fill-14" fill="#465191"></path>
                <polyline id="Fill-15" fill="#465191" points="79.9921788 11.5599783 83.865118 11.5599783 83.865118 22.4447074 83.9732545 22.4447074 88.2253602 17.1107977 92.5587405 17.1107977 87.8461938 22.6344172 92.911045 30.5409434 88.6045267 30.5409434 85.571195 25.3151442 83.865118 27.2373762 83.865118 30.5409434 79.9921788 30.5409434 79.9921788 11.5599783"></polyline>
                <path d="M96.3596201,25.4950038 C97.6021009,26.5770421 99.2218922,27.3346409 100.679979,27.3346409 C102.326893,27.3346409 103.137132,26.6850739 103.137132,25.6302156 C103.137132,24.5206532 102.138066,24.1690338 100.598955,23.5194667 L98.3309726,22.5454602 C96.4948888,21.8150414 94.7669512,20.2998437 94.7669512,17.7294436 C94.7669512,14.80708 97.3858083,12.4802675 101.030854,12.4802675 C103.055764,12.4802675 105.188821,13.2918823 106.701153,14.80708 L104.702678,17.3234642 C103.541908,16.4306535 102.435039,15.9162983 101.030854,15.9162983 C99.6809131,15.9162983 98.7899936,16.5118494 98.7899936,17.5126919 C98.7899936,18.5950742 99.9507639,18.9738736 101.489875,19.5962607 L103.730735,20.5162513 C105.863792,21.381882 107.214075,22.8158838 107.214075,25.305432 C107.214075,28.2277956 104.784045,30.7710157 100.598955,30.7710157 C98.3038502,30.7710157 95.87382,29.9053851 94.0645152,28.2277956 L96.3596201,25.4950038" id="Fill-16" fill="#E16240"></path>
                <path d="M115.705807,27.5591794 C117.324704,27.5591794 118.16126,26.074919 118.16126,23.753982 C118.16126,21.4327019 117.324704,19.9484415 115.705807,19.9484415 C114.059459,19.9484415 113.249668,21.4327019 113.249668,23.753982 C113.249668,26.074919 114.059459,27.5591794 115.705807,27.5591794 Z M115.705807,16.7366052 C119.078795,16.7366052 122.209188,19.3005147 122.209188,23.753982 C122.209188,28.2071062 119.078795,30.7710157 115.705807,30.7710157 C112.305711,30.7710157 109.174975,28.2071062 109.174975,23.753982 C109.174975,19.3005147 112.305711,16.7366052 115.705807,16.7366052 L115.705807,16.7366052 Z" id="Fill-17" fill="#E16240"></path>
                <path d="M124.746823,17.0817136 L128.718264,17.0817136 L128.718264,24.8695151 C128.718264,26.7828856 129.231528,27.402401 130.393416,27.402401 C131.393147,27.402401 131.987489,26.971687 132.771127,25.9204298 L132.771127,17.0817136 L136.742913,17.0817136 L136.742913,30.447552 L133.500485,30.447552 L133.203314,28.5883206 L133.122579,28.5883206 C131.987489,29.9356294 130.744868,30.7710157 128.90756,30.7710157 C125.989444,30.7710157 124.746823,28.7229829 124.746823,25.3814377 L124.746823,17.0817136" id="Fill-18" fill="#E16240"></path>
                <path d="M140.31867,17.0600689 L143.551065,17.0600689 L143.820632,19.404496 L143.928184,19.404496 C144.897868,17.599061 146.352566,16.7366052 147.726428,16.7366052 C148.480665,16.7366052 148.938619,16.8445406 149.315738,17.0062725 L148.669053,20.4283411 C148.184382,20.2936787 147.780204,20.2128128 147.214698,20.2128128 C146.217954,20.2128128 144.978704,20.8597403 144.278586,22.6651753 L144.278586,30.4259073 L140.31867,30.4259073 L140.31867,17.0600689" id="Fill-19" fill="#E16240"></path>
                <path d="M156.975989,16.7366052 C158.623335,16.7366052 160.00076,17.3574206 160.891914,18.2750882 L159.082477,20.7308955 C158.434459,20.1910709 157.840013,19.9484415 157.219125,19.9484415 C155.301513,19.9484415 154.085835,21.4327019 154.085835,23.753982 C154.085835,26.074919 155.355429,27.5591794 157.08382,27.5591794 C158.056019,27.5591794 158.839341,27.1003456 159.487703,26.5876323 L161.081134,29.0976624 C159.784411,30.2311911 158.083149,30.7710157 156.624679,30.7710157 C152.897974,30.7710157 150.00782,28.2071062 150.00782,23.753982 C150.00782,19.3005147 153.275727,16.7366052 156.975989,16.7366052" id="Fill-20" fill="#E16240"></path>
                <path d="M170.514834,22.3771376 C170.514834,20.8389977 169.867675,19.7593485 168.277543,19.7593485 C167.037383,19.7593485 165.959014,20.5960252 165.689593,22.3771376 L170.514834,22.3771376 Z M168.196305,16.7366052 C171.997335,16.7366052 173.884653,19.5167191 173.884653,23.1602779 C173.884653,23.8620842 173.803758,24.5093247 173.72252,24.8336313 L165.716672,24.8336313 C166.066645,26.8577162 167.414778,27.7482724 169.19378,27.7482724 C170.191597,27.7482724 171.107834,27.4514204 172.07823,26.8577162 L173.399284,29.2596441 C172.024414,30.2040798 170.245413,30.7710157 168.654595,30.7710157 C164.826829,30.7710157 161.888563,28.180338 161.888563,23.753982 C161.888563,19.4086169 164.988618,16.7366052 168.196305,16.7366052 L168.196305,16.7366052 Z" id="Fill-21" fill="#E16240"></path>
            </g>
            <rect id="Rectangle" fill="#747588" opacity="0.830171131" x="62" y="43" width="102" height="24" rx="12"></rect>
            <text id="Annual-Plan" font-family="Helvetica" font-size="14" font-weight="normal" line-spacing="18" fill="#FFFFFF">
                <tspan x="75.2485352" y="57">Annual Plan</tspan>
            </text>
        </g>
    </g>
</svg>