<?xml version="1.0" encoding="UTF-8"?>
<svg width="13px" height="14px" viewBox="0 0 13 14" version="1.1" xmlns="http://www.w3.org/2000/svg" xmlns:xlink="http://www.w3.org/1999/xlink">
    <!-- Generator: Sketch 63.1 (92452) - https://sketch.com -->
    <title>Combined Shape Copy 3</title>
    <desc>Created with Sketch.</desc>
    <g id="Talent-Mob-2020" stroke="none" stroke-width="1" fill="none" fill-rule="evenodd">
        <g id="Candidate-Profile-Blank" transform="translate(-418.000000, -422.000000)" fill="#A3A9AE" fill-rule="nonzero">
            <g id="Group-12" transform="translate(270.000000, 391.000000)">
                <path d="M151.570988,31 C151.771605,31 151.972222,31.1637427 151.972222,31.4093567 L151.972222,33.251462 L151.972222,33.251462 C151.972222,33.497076 151.771605,33.6608187 151.570988,33.6608187 C151.37037,33.6608187 151.169753,33.497076 151.169753,33.251462 L151.169753,32.7602339 L149.604938,32.7602339 C149.16358,32.7602339 148.762346,33.1695906 148.762346,33.619883 L148.762346,35.0116959 L160.237654,35.0116959 L160.237654,33.619883 C160.237654,33.1695906 159.876543,32.7602339 159.395062,32.7602339 C159.194444,32.7602339 159.033951,32.5964912 159.033951,32.3918129 C159.033951,32.1461988 159.194444,31.9824561 159.395062,31.9824561 C160.277778,31.9824561 161,32.7192982 161,33.619883 L161,43.3625731 C161,44.2631579 160.277778,45 159.395062,45 L149.604938,45 C148.722222,45 148,44.2631579 148,43.3625731 L148,33.619883 C148,32.7192982 148.722222,31.9824561 149.604938,31.9824561 L151.169753,31.9824561 L151.169753,31.4093567 C151.169753,31.1637427 151.37037,31 151.570988,31 Z M160.237654,35.7894737 L148.762346,35.7894737 L148.762346,43.3625731 C148.762346,43.8538012 149.16358,44.2222222 149.604938,44.2222222 L159.395062,44.2222222 C159.876543,44.2222222 160.237654,43.8538012 160.237654,43.3625731 L160.237654,35.7894737 Z M151.691358,41.7660819 C151.771605,41.7660819 151.851852,41.8479532 151.851852,41.9707602 L151.851852,42.9122807 C151.851852,43.0350877 151.771605,43.1169591 151.691358,43.1169591 L150.32716,43.1169591 C150.20679,43.1169591 150.126543,43.0350877 150.126543,42.9122807 L150.126543,41.9707602 C150.126543,41.8479532 150.20679,41.7660819 150.32716,41.7660819 L151.691358,41.7660819 Z M155.182099,41.7660819 C155.302469,41.7660819 155.382716,41.8479532 155.382716,41.9707602 L155.382716,42.9122807 C155.382716,43.0350877 155.302469,43.1169591 155.182099,43.1169591 L153.817901,43.1169591 C153.737654,43.1169591 153.617284,43.0350877 153.617284,42.9122807 L153.617284,41.9707602 C153.617284,41.8479532 153.737654,41.7660819 153.817901,41.7660819 L155.182099,41.7660819 Z M151.691358,39.3508772 C151.771605,39.3508772 151.851852,39.4327485 151.851852,39.5555556 L151.851852,40.4561404 C151.851852,40.5789474 151.771605,40.6608187 151.691358,40.6608187 L150.32716,40.6608187 C150.20679,40.6608187 150.126543,40.5789474 150.126543,40.4561404 L150.126543,39.5555556 C150.126543,39.4327485 150.20679,39.3508772 150.32716,39.3508772 L151.691358,39.3508772 Z M155.182099,39.3508772 C155.302469,39.3508772 155.382716,39.4327485 155.382716,39.5555556 L155.382716,40.4561404 C155.382716,40.5789474 155.302469,40.6608187 155.182099,40.6608187 L153.817901,40.6608187 C153.737654,40.6608187 153.617284,40.5789474 153.617284,40.4561404 L153.617284,39.5555556 C153.617284,39.4327485 153.737654,39.3508772 153.817901,39.3508772 L155.182099,39.3508772 Z M158.712963,39.3508772 C158.79321,39.3508772 158.873457,39.4327485 158.873457,39.5555556 L158.873457,40.4561404 C158.873457,40.5789474 158.79321,40.6608187 158.712963,40.6608187 L157.348765,40.6608187 C157.228395,40.6608187 157.148148,40.5789474 157.148148,40.4561404 L157.148148,39.5555556 C157.148148,39.4327485 157.228395,39.3508772 157.348765,39.3508772 L158.712963,39.3508772 Z M151.691358,36.8947368 C151.771605,36.8947368 151.851852,36.9766082 151.851852,37.0994152 L151.851852,38.0409357 C151.851852,38.1637427 151.771605,38.245614 151.691358,38.245614 L150.32716,38.245614 C150.20679,38.245614 150.126543,38.1637427 150.126543,38.0409357 L150.126543,37.0994152 C150.126543,36.9766082 150.20679,36.8947368 150.32716,36.8947368 L151.691358,36.8947368 Z M155.182099,36.8947368 C155.302469,36.8947368 155.382716,36.9766082 155.382716,37.0994152 L155.382716,38.0409357 C155.382716,38.1637427 155.302469,38.245614 155.182099,38.245614 L153.817901,38.245614 C153.737654,38.245614 153.617284,38.1637427 153.617284,38.0409357 L153.617284,37.0994152 C153.617284,36.9766082 153.737654,36.8947368 153.817901,36.8947368 L155.182099,36.8947368 Z M158.712963,36.8947368 C158.79321,36.8947368 158.873457,36.9766082 158.873457,37.0994152 L158.873457,38.0409357 C158.873457,38.1637427 158.79321,38.245614 158.712963,38.245614 L157.348765,38.245614 C157.228395,38.245614 157.148148,38.1637427 157.148148,38.0409357 L157.148148,37.0994152 C157.148148,36.9766082 157.228395,36.8947368 157.348765,36.8947368 L158.712963,36.8947368 Z M157.429012,31 C157.669753,31 157.830247,31.1637427 157.830247,31.4093567 L157.830247,33.251462 C157.830247,33.497076 157.669753,33.6608187 157.429012,33.6608187 C157.228395,33.6608187 157.067901,33.497076 157.067901,33.251462 L157.067901,32.7602339 L153.296296,32.7602339 C153.095679,32.7602339 152.895062,32.5964912 152.895062,32.3918129 C152.895062,32.1461988 153.095679,31.9824561 153.296296,31.9824561 L157.067901,31.9824561 L157.067901,31.4093567 C157.067901,31.1637427 157.228395,31 157.429012,31 Z" id="Combined-Shape-Copy-3"></path>
            </g>
        </g>
    </g>
</svg>