<?xml version="1.0" encoding="UTF-8"?>
<svg width="18px" height="12px" viewBox="0 0 18 12" version="1.1" xmlns="http://www.w3.org/2000/svg" xmlns:xlink="http://www.w3.org/1999/xlink">
    <!-- Generator: Sketch 63.1 (92452) - https://sketch.com -->
    <title>noun_Email_740627</title>
    <desc>Created with Sketch.</desc>
    <g id="Talent-Mob-2020" stroke="none" stroke-width="1" fill="none" fill-rule="evenodd">
        <g id="Tal_Web_MyRedep_Overlays" transform="translate(-1270.000000, -233.000000)" fill="#0a7be0" fill-rule="nonzero">
            <g id="Group-27" transform="translate(877.000000, 217.000000)">
                <g id="Group-9">
                    <g id="noun_Email_740627" transform="translate(393.000000, 16.000000)">
                        <path d="M17.3714286,0.542857143 C17.1142857,0.314285714 16.8,0.171428571 16.4285714,0.171428571 L1.42857143,0.171428571 C1.05714286,0.171428571 0.742857143,0.314285714 0.485714286,0.542857143 L8.91428571,5.34285714 L17.3714286,0.542857143 Z" id="Path"></path>
                        <path d="M17.8,1.25714286 L8.91428571,6.31428571 L0.0571428571,1.25714286 C0.0285714286,1.37142857 0,1.48571429 0,1.6 L0,10.0285714 C0,10.8285714 0.628571429,11.4571429 1.42857143,11.4571429 L16.4285714,11.4571429 C17.2285714,11.4571429 17.8571429,10.8285714 17.8571429,10.0285714 L17.8571429,1.6 C17.8571429,1.48571429 17.8285714,1.37142857 17.8,1.25714286 Z" id="Path"></path>
                    </g>
                </g>
            </g>
        </g>
    </g>
</svg>