<svg width="13px" height="10px" viewBox="0 0 13 10" version="1.1" xmlns="http://www.w3.org/2000/svg" xmlns:xlink="http://www.w3.org/1999/xlink">
    <g id="Talent-Mob-2020" stroke="none" stroke-width="1" fill="none" fill-rule="evenodd">
        <g id="Candidate-Profile" transform="translate(-1032.000000, -1940.000000)" fill="#0A7BE0" fill-rule="nonzero">
            <g id="Group-22" transform="translate(1022.000000, 1931.000000)">
                <g id="noun_Eye_2911153-2" transform="translate(10.000000, 9.000000)">
                    <g id="noun_Eye_2911153">
                        <path d="M12.9176636,4.45157838 C12.8078818,4.26609595 10.6854328,0 6.51372273,0 C2.34201267,0 0.219563688,4.22899946 0.109781844,4.45157838 C-0.0365939479,4.74835028 -0.0365939479,5.15641163 0.109781844,5.45318352 C0.219563688,5.63866595 2.34201267,9.9047619 6.51372273,9.9047619 C10.6854328,9.9047619 12.8078818,5.63866595 12.9176636,5.45318352 C13.0274455,5.11931514 13.0274455,4.74835028 12.9176636,4.45157838 L12.9176636,4.45157838 Z M6.51372273,8.79186731 C3.00070373,8.79186731 1.09781844,4.93383271 1.09781844,4.93383271 C1.09781844,4.93383271 3.00070373,1.07579811 6.51372273,1.07579811 C10.0267417,1.07579811 11.929627,4.93383271 11.929627,4.93383271 C11.929627,4.93383271 10.0267417,8.79186731 6.51372273,8.79186731 Z" id="Shape"></path>
                        <path d="M6.5,2.47619048 C5.28813559,2.47619048 4.33333333,3.4677159 4.33333333,4.64285714 C4.33333333,5.81799839 5.32485876,6.80952381 6.5,6.80952381 C7.67514124,6.80952381 8.66666667,5.85472155 8.66666667,4.64285714 C8.66666667,3.43099274 7.71186441,2.47619048 6.5,2.47619048 Z M6.5,5.74455206 C5.91242938,5.74455206 5.39830508,5.26715093 5.39830508,4.64285714 C5.39830508,4.01856336 5.87570621,3.54116223 6.5,3.54116223 C7.08757062,3.54116223 7.60169492,4.01856336 7.60169492,4.64285714 C7.60169492,5.26715093 7.08757062,5.74455206 6.5,5.74455206 Z" id="Shape"></path>
                    </g>
                </g>
            </g>
        </g>
    </g>
</svg>