<?xml version="1.0" encoding="UTF-8"?>
<svg width="12px" height="15px" viewBox="0 0 12 15" version="1.1" xmlns="http://www.w3.org/2000/svg" xmlns:xlink="http://www.w3.org/1999/xlink">
    <!-- Generator: Sketch 63.1 (92452) - https://sketch.com -->
    <title>Path</title>
    <desc>Created with Sketch.</desc>
    <g id="Talent-Mob-2020" stroke="none" stroke-width="1" fill="none" fill-rule="evenodd">
        <g id="Tal_Web_Candidate-Details" transform="translate(-1034.000000, -397.000000)" fill="#FFA13C" fill-rule="nonzero">
            <g id="Group-23" transform="translate(917.000000, 261.000000)">
                <g id="noun_Fire_2207111" transform="translate(117.000000, 131.000000)">
                    <g id="Group-11">
                        <path d="M11.7139393,11.4936347 C11.4368832,10.4002239 10.9197117,9.51066935 10.5503035,8.45432333 C10.3840698,7.97248129 10.3840698,7.32384777 10.0146616,8.08367561 C9.73760546,8.63964719 9.75607587,9.21415117 9.66372382,9.77012276 C9.64525341,9.91838185 9.60831259,10.0666409 9.57137177,10.2149 C9.53443095,10.3446267 9.34972685,10.3816915 9.2573748,10.2704972 C8.98031864,9.88131708 8.74020331,9.47360458 8.55549921,9.04735969 C8.33385429,8.54698526 8.20456142,8.00954606 8.14915019,7.47210686 C8.05679814,6.50842277 8.14915019,5.73006255 8.25997265,5.22968811 C8.29691347,5.04436425 8.07526855,4.93316993 7.92750527,5.04436425 C6.56069492,6.21190459 5.67411523,7.39797731 5.0645917,8.41725856 C5.04612129,8.45432333 5.02765088,8.47285572 5.00918047,8.50992049 C4.86141719,8.7693739 4.75059473,8.99176253 4.63977227,9.23268356 C4.63977227,9.25121594 4.62130186,9.26974833 4.62130186,9.28828072 C4.56589063,9.41800742 4.51047939,9.52920174 4.47353857,9.64039606 C4.23342324,10.1963676 4.10413037,10.6782097 4.03024873,11.0488574 C3.9748375,11.2527137 3.69778135,11.2712461 3.64237012,11.0673898 C3.53154766,10.7338068 3.43919561,10.3816915 3.34684356,10.0110438 C3.32837315,9.91838185 3.30990274,9.82571992 3.29143233,9.73305799 C3.29143233,9.7145256 3.29143233,9.69599321 3.27296192,9.65892844 C3.2360211,9.49213696 3.21755069,9.32534549 3.19908028,9.14002163 C3.18060987,9.02882731 3.16213946,8.91763299 3.16213946,8.80643867 C3.12519864,8.34312901 3.10672823,7.84275458 3.14366905,7.30531538 C3.16213946,7.11999152 2.90355371,7.02732959 2.79273125,7.17558868 C2.79273125,7.17558868 0.206873837,9.49213696 0.0775809658,12.9762256 C0.0591105557,13.0874199 0.0406401456,13.2171466 0.0221697355,13.3468733 C-0.107123135,14.866529 0.336166708,16.2935227 1.16733516,17.3684011 C1.2412168,17.4610631 1.31509844,17.5722574 1.38898008,17.6649193 C1.4259209,17.7205165 1.46286172,17.7575813 1.49980255,17.8131784 C2.55261592,19.1475102 4.17801201,20 6.00658261,20 C7.33645214,20 8.55549921,19.5552227 9.51596054,18.7953949 C9.53443095,18.7953949 9.55290136,18.7768625 9.55290136,18.7583301 C10.7165372,17.9429051 11.5292352,16.5900409 11.8432322,15.1630472 C12.101818,13.9584421 12.0279363,12.6797074 11.7139393,11.4936347 Z" id="Path"></path>
                    </g>
                </g>
            </g>
        </g>
    </g>
</svg>