<?xml version="1.0" encoding="UTF-8"?>
<svg width="12px" height="15px" viewBox="0 0 12 15" version="1.1" xmlns="http://www.w3.org/2000/svg" xmlns:xlink="http://www.w3.org/1999/xlink">
    <!-- Generator: Sketch 57.1 (83088) - https://sketch.com -->
    <title>Path</title>
    <desc>Created with Sketch.</desc>
    <g id="Amit-Revised-Screens" stroke="none" stroke-width="1" fill="none" fill-rule="evenodd">
        <g id="Candidate_Web_Dashboard" transform="translate(-551.000000, -433.000000)" fill="#FF7B3C" fill-rule="nonzero">
            <g id="noun_Fire_2207111" transform="translate(542.000000, 428.000000)">
                <g id="Group-11">
                    <path d="M20.7139393,11.4936347 C20.4368832,10.4002239 19.9197117,9.51066935 19.5503035,8.45432333 C19.3840698,7.97248129 19.3840698,7.32384777 19.0146616,8.08367561 C18.7376055,8.63964719 18.7560759,9.21415117 18.6637238,9.77012276 C18.6452534,9.91838185 18.6083126,10.0666409 18.5713718,10.2149 C18.5344309,10.3446267 18.3497268,10.3816915 18.2573748,10.2704972 C17.9803186,9.88131708 17.7402033,9.47360458 17.5554992,9.04735969 C17.3338543,8.54698526 17.2045614,8.00954606 17.1491502,7.47210686 C17.0567981,6.50842277 17.1491502,5.73006255 17.2599726,5.22968811 C17.2969135,5.04436425 17.0752685,4.93316993 16.9275053,5.04436425 C15.5606949,6.21190459 14.6741152,7.39797731 14.0645917,8.41725856 C14.0461213,8.45432333 14.0276509,8.47285572 14.0091805,8.50992049 C13.8614172,8.7693739 13.7505947,8.99176253 13.6397723,9.23268356 C13.6397723,9.25121594 13.6213019,9.26974833 13.6213019,9.28828072 C13.5658906,9.41800742 13.5104794,9.52920174 13.4735386,9.64039606 C13.2334232,10.1963676 13.1041304,10.6782097 13.0302487,11.0488574 C12.9748375,11.2527137 12.6977813,11.2712461 12.6423701,11.0673898 C12.5315477,10.7338068 12.4391956,10.3816915 12.3468436,10.0110438 C12.3283731,9.91838185 12.3099027,9.82571992 12.2914323,9.73305799 C12.2914323,9.7145256 12.2914323,9.69599321 12.2729619,9.65892844 C12.2360211,9.49213696 12.2175507,9.32534549 12.1990803,9.14002163 C12.1806099,9.02882731 12.1621395,8.91763299 12.1621395,8.80643867 C12.1251986,8.34312901 12.1067282,7.84275458 12.143669,7.30531538 C12.1621395,7.11999152 11.9035537,7.02732959 11.7927313,7.17558868 C11.7927313,7.17558868 9.20687384,9.49213696 9.07758097,12.9762256 C9.05911056,13.0874199 9.04064015,13.2171466 9.02216974,13.3468733 C8.89287686,14.866529 9.33616671,16.2935227 10.1673352,17.3684011 C10.2412168,17.4610631 10.3150984,17.5722574 10.3889801,17.6649193 C10.4259209,17.7205165 10.4628617,17.7575813 10.4998025,17.8131784 C11.5526159,19.1475102 13.178012,20 15.0065826,20 C16.3364521,20 17.5554992,19.5552227 18.5159605,18.7953949 C18.5344309,18.7953949 18.5529014,18.7768625 18.5529014,18.7583301 C19.7165372,17.9429051 20.5292352,16.5900409 20.8432322,15.1630472 C21.101818,13.9584421 21.0279363,12.6797074 20.7139393,11.4936347 Z" id="Path"></path>
                </g>
            </g>
        </g>
    </g>
</svg>