<?xml version="1.0" encoding="UTF-8"?>
<svg width="22px" height="29px" viewBox="0 0 22 29" version="1.1" xmlns="http://www.w3.org/2000/svg" xmlns:xlink="http://www.w3.org/1999/xlink">
    <!-- Generator: Sketch 63.1 (92452) - https://sketch.com -->
    <title>bell_notification</title>
    <desc>Created with Sketch.</desc>
    <g id="Talent-Mob-2020" stroke="none" stroke-width="1" fill="none" fill-rule="evenodd">
        <g id="Tal_Web_Search_basic" transform="translate(-1295.000000, -18.000000)" fill="#ACAEC1">
            <g id="Group" transform="translate(1295.000000, 9.000000)">
                <g id="Group-2">
                    <g id="Notification">
                        <g id="bell_notification" transform="translate(0.000000, 9.000000)">
                            <g>
                                <path d="M13.5382161,26.007807 C13.5382161,25.7764115 13.4802401,25.5450159 13.422264,25.3136204 L8.21560993,25.3136204 C8.1576339,25.5450159 8.10016644,25.7764115 8.10016644,26.007807 C8.10016644,27.5121324 9.31461164,28.6691101 10.7614695,28.6691101 C12.3812384,28.7270861 13.5382161,27.5121324 13.5382161,26.007807" id="Fill-1"></path>
                                <path d="M21.7539277,21.72643 C21.7539277,21.4950344 21.6379757,21.3216149 21.4645562,21.1476868 C21.4645562,21.1476868 19.1500921,18.6023358 19.1500921,12.0067998 C19.1500921,6.85761318 15.6791589,4.71656866 12.8439277,4.02238202 L12.8439277,2.51805668 C12.8439277,1.41905497 11.9763216,0.55094024 10.8768113,0.55094024 C9.77780959,0.55094024 8.90969486,1.41905497 8.90969486,2.51805668 L8.90969486,4.02238202 C6.07497226,4.6591012 2.60353048,6.79963716 2.60353048,12.0067998 C2.60353048,18.6023358 0.289066438,21.1476868 0.289066438,21.1476868 C0.115646918,21.3216149 0.0576708904,21.5530104 0.000203424658,21.72643 L0.000203424658,23.5201269 L10.8770656,23.5201269 L21.7539277,23.5201269 L21.7539277,21.72643 Z" id="Fill-3"></path>
                            </g>
                        </g>
                    </g>
                </g>
            </g>
        </g>
    </g>
</svg>