<?xml version="1.0" encoding="UTF-8"?>
<svg width="107px" height="26px" viewBox="0 0 107 26" version="1.1" xmlns="http://www.w3.org/2000/svg" xmlns:xlink="http://www.w3.org/1999/xlink">
    <!-- Generator: Sketch 63.1 (92452) - https://sketch.com -->
    <title> Collabera Logos/ Collabera</title>
    <desc>Created with Sketch.</desc>
    <g id="Talent-Mob-2020" stroke="none" stroke-width="1" fill="none" fill-rule="evenodd">
        <g id="Tal_Web_Search_basic" transform="translate(-74.000000, -19.000000)" fill="#29ABE2">
            <g id="-Collabera-Logos/-Collabera" transform="translate(74.000000, 19.000000)">
                <g id="Collabera-logo-(1)" transform="translate(0.000000, 0.000000)">
                    <path d="M55.7913311,22.9861342 C55.7040932,23.4493899 55.6293178,23.8459512 55.5545424,24.2479201 C55.5313977,24.365086 55.513594,24.4840544 55.4797671,24.5976151 C55.4051669,24.9252993 55.121012,25.1603498 54.788985,25.1690238 C54.4592977,25.188272 54.1287888,25.188272 53.7991015,25.1690238 C53.4269691,25.1534571 53.1344186,24.8412937 53.1385417,24.4642263 C53.1385417,24.3560732 53.1385417,24.2497227 53.1385417,24.1415696 C53.1385417,16.450684 53.1385417,8.75979848 53.1385417,1.06891292 C53.1385417,0.973377704 53.1385417,0.877842485 53.1385417,0.782307266 C53.1492679,0.396561287 53.3308652,0.140599002 53.7100832,0.077509706 C54.24564,-0.0152993483 54.7928792,-0.0152993483 55.3284359,0.077509706 C55.6318356,0.131987806 55.8522137,0.400041469 55.8500832,0.712007765 C55.8500832,0.830976151 55.8500832,0.951747088 55.8500832,1.07251803 C55.8500832,4.02389536 55.8500832,6.97467184 55.8500832,9.92484748 L55.8500832,10.2673322 L55.9034942,10.2745424 C56.0494842,10.0654465 56.1901331,9.85274542 56.3396839,9.64725458 C57.3188852,8.31336661 58.6541597,7.74195785 60.2564892,7.90599002 C61.8156631,8.0323449 63.2205252,8.90775155 64.034426,10.260122 C64.6970682,11.3384517 65.1114544,12.5539759 65.2468552,13.8165557 C65.3994836,15.1698876 65.4393859,16.5338212 65.3661398,17.8939268 C65.3366828,19.245538 65.0963332,20.5839335 64.6539933,21.8595397 C64.3839435,22.6524069 63.9513469,23.3784951 63.3845923,23.9901553 C62.7024318,24.6961321 61.8083297,25.1531913 60.8422296,25.2897948 C60.1331362,25.4049985 59.4092899,25.3891198 58.7057903,25.2429285 C57.7239395,25.0416647 56.8516185,24.4766538 56.2595674,23.6584859 C56.1224792,23.4620078 55.9836106,23.2529118 55.7913311,22.9861342 Z M62.4214143,16.6429562 C62.4214143,15.2549917 62.3484193,13.8778425 61.9264725,12.542152 C61.7235108,11.8986412 61.4528952,11.2947865 60.9437105,10.8315308 C60.0535275,10.0239878 58.3069884,9.98973932 57.3509318,10.9739323 C56.8863368,11.4682583 56.537661,12.062171 56.330782,12.7115918 C55.858985,14.0851359 55.7966722,15.5163616 55.7966722,16.9493899 C55.7926303,17.5578062 55.8265247,18.1658741 55.8981531,18.7699667 C55.9711095,19.5303077 56.1447691,20.277255 56.4144592,20.9907099 C56.9485691,22.2831392 57.8797005,23.1123128 59.4944925,23.0095674 C60.1031624,22.981135 60.6795222,22.7240681 61.1110649,22.2885469 C61.5937839,21.7746467 61.9228031,21.132783 62.06,20.4373267 C62.3349314,19.1931154 62.456921,17.9192698 62.4231947,16.6447587 L62.4214143,16.6429562 Z" id="Shape" fill-rule="nonzero"></path>
                    <path d="M97.5213311,22.8924016 C97.3967055,22.9086245 97.3735607,22.9987521 97.3290516,23.0726567 C96.4246256,24.437188 95.1178369,25.0951192 93.5475541,25.3114254 C92.8114102,25.4257201 92.0599017,25.385222 91.3399002,25.192457 C89.9280699,24.7940932 88.9613311,23.8838048 88.5251414,22.4706045 C88.0291183,20.9585043 88.0923857,19.3154723 88.703178,17.8470605 C89.2057682,16.5958258 90.2546248,15.6524833 91.5410815,15.2946478 C92.3121113,15.070608 93.1073098,14.9428805 93.9089684,14.9143095 C95.0038935,14.8584304 96.0970383,14.7791181 97.190183,14.7124237 C97.3201498,14.7124237 97.4180699,14.6889906 97.4162895,14.5159456 C97.4162895,13.8237659 97.4465557,13.1297837 97.3219301,12.4448142 C97.117188,11.3200222 96.4976206,10.7161675 95.3635275,10.5395175 C94.3117559,10.3719941 93.2371563,10.4259947 92.2069384,10.698142 L91.1031115,10.995563 C91.0007128,11.0238263 90.8966502,11.0455002 90.7915474,11.0604548 C90.6276383,11.0985776 90.4554785,11.0687929 90.313373,10.9777277 C90.1712674,10.8866624 90.0710043,10.7418708 90.0348918,10.5755685 C89.9247715,10.1363629 89.840354,9.69095895 89.7820799,9.24168053 C89.7515639,9.08339684 89.7856343,8.91934734 89.8765281,8.78691079 C89.9674219,8.65447423 90.1073966,8.56493171 90.2645591,8.53868552 C91.2312216,8.27494383 92.2144681,8.07801212 93.2075042,7.94925125 C94.0164311,7.86128074 94.8323376,7.86128074 95.6412646,7.94925125 C96.6712878,8.0356619 97.65163,8.43456981 98.4542429,9.09387133 C99.3924958,9.88158625 99.8571714,10.9288686 100.013844,12.1311703 C100.124974,13.079774 100.172559,14.0349058 100.156273,14.9900166 C100.156273,16.9854409 100.177637,18.9790627 100.156273,20.974487 C100.161209,22.10533 100.289581,23.2321565 100.539052,24.3344426 C100.563703,24.4384362 100.577428,24.5447766 100.58,24.6516916 C100.58,24.9725458 100.426889,25.1509983 100.111764,25.1582085 C99.5574764,25.1714273 99.0031891,25.1714273 98.4489018,25.1582085 C98.1357656,25.1833202 97.8603471,24.9501435 97.8293344,24.6336661 C97.7207321,24.0929007 97.6406156,23.5305047 97.5462562,22.9771215 C97.5409151,22.9608985 97.5337937,22.9392679 97.5213311,22.8924016 Z M97.4073877,18.3139212 C97.4073877,17.8596783 97.4073877,17.4126456 97.4073877,16.9511925 C97.4073877,16.7907654 97.3789018,16.724071 97.1884027,16.7366889 C96.3872379,16.7853577 95.5860732,16.796173 94.7849085,16.848447 C94.1595239,16.8696775 93.5405508,16.983234 92.9475707,17.1855241 C92.1479197,17.4551348 91.5302325,18.1054535 91.295391,18.9249861 C91.0520101,19.7159532 91.0200656,20.5581043 91.202812,21.3656406 C91.4396007,22.4201331 92.2069384,23.0366057 93.2751581,23.0798669 C94.6389185,23.135746 95.7320632,22.5859678 96.59198,21.5513034 C97.1427022,20.9316611 97.4355061,20.1204533 97.4091681,19.2872989 C97.3949251,18.9664448 97.4073877,18.6419856 97.4073877,18.3193289 L97.4073877,18.3139212 Z" id="Shape" fill-rule="nonzero"></path>
                    <path d="M48.3120133,22.8924016 C48.2301165,22.9086245 48.2069717,22.9825291 48.169584,23.0402108 C47.3951248,24.2587354 46.2610316,24.9256794 44.8901498,25.2194953 C44.0710241,25.4114366 43.2203903,25.420049 42.3976373,25.244731 C40.8184526,24.8842207 39.7858403,23.9144481 39.3122629,22.3606489 C38.9466794,21.1537383 38.923238,19.8671337 39.244609,18.6473932 C39.7431115,16.7006378 41.0125125,15.5488075 42.9477704,15.1360233 C43.5717387,15.0100839 44.2045419,14.9341416 44.8402995,14.9089018 C45.8996173,14.8548253 46.9571547,14.7737105 48.0164725,14.7142263 C48.2069717,14.703411 48.2514809,14.6222962 48.2514809,14.4492512 C48.2552101,13.7931257 48.21715,13.1374394 48.1375374,12.4862729 C47.984426,11.3182196 47.2473544,10.7197726 46.1791348,10.5431226 C45.1284076,10.367335 44.052681,10.4214228 43.0243261,10.7017471 C42.6255241,10.8099002 42.2285025,10.9180532 41.8279201,11.0189961 C41.2475208,11.1668053 40.9377371,10.9667221 40.8095507,10.3664725 C40.7436772,10.0510261 40.6760233,9.73738214 40.6315141,9.41833056 C40.553178,8.89919578 40.7151913,8.61619523 41.2190349,8.4990294 C42.2765724,8.25388242 43.3287687,7.98349972 44.414792,7.91320022 C45.6610483,7.83208541 46.9215474,7.85732113 48.1001498,8.37465336 C49.672213,9.0614254 50.562396,10.2745424 50.8134276,11.9887687 C50.9282077,12.8283633 50.9788017,13.6756762 50.9647587,14.5231559 C50.9647587,16.0156683 50.9647587,17.5099834 50.9647587,19.0024958 C50.9647587,20.0065169 51.0021464,21.0087354 51.0110483,22.010954 C51.0110483,22.7445923 51.2122296,23.452995 51.3386356,24.1650028 C51.3714912,24.3166285 51.3952727,24.4701248 51.4098502,24.6246534 C51.4361532,24.7636489 51.3972293,24.9071314 51.3044932,25.0130243 C51.2117571,25.1189172 51.0757192,25.1752189 50.9362729,25.1654187 C50.382579,25.1798392 49.8271048,25.1798392 49.273411,25.1654187 C48.9030948,25.1546034 48.6983527,24.9400998 48.6253577,24.5309207 C48.5452413,24.0730727 48.4793677,23.6134221 48.4063727,23.1537715 C48.3885691,23.0600388 48.4063727,22.9572934 48.3120133,22.8924016 Z M48.2479201,18.3860233 C48.2479201,17.8560732 48.2479201,17.4144481 48.2479201,16.9728231 C48.2479201,16.740294 48.2318968,16.7366889 48.0022296,16.7475042 L45.7429451,16.8466445 C45.202203,16.8664159 44.6650718,16.9443641 44.1406156,17.0791736 C42.9673544,17.3874099 42.2498669,18.1390738 42.0148586,19.3539933 C41.9418358,19.8375467 41.9197541,20.3275858 41.948985,20.8158625 C41.958585,21.1242015 42.0187508,21.4287792 42.1270216,21.7171381 C42.3495824,22.3905687 42.9190404,22.8861421 43.6100666,23.0077648 C44.5072543,23.2059241 45.4453414,23.0478431 46.2307654,22.5661398 C47.298985,21.9334443 48.0111314,21.0213533 48.2194343,19.7595674 C48.3013311,19.2872989 48.2336772,18.7861897 48.2479201,18.3860233 Z" id="Shape" fill-rule="nonzero"></path>
                    <path d="M74.175391,17.3405435 L70.0698669,17.3405435 C69.98797,17.3405435 69.9042928,17.3405435 69.822396,17.3405435 C69.6870882,17.3405435 69.6318968,17.3964226 69.6443594,17.5334165 C69.7173544,18.8817249 69.929218,20.1939823 70.6787521,21.3512202 C71.146268,22.0520416 71.8655713,22.5403553 72.6834443,22.7121464 C73.4914905,22.8892063 74.323017,22.9288031 75.1439101,22.8293123 C75.8807132,22.7397523 76.6078009,22.5816615 77.3159567,22.3570438 C77.3497837,22.3480311 77.3836106,22.3336106 77.4174376,22.3245979 C77.9657903,22.1858014 78.2310649,22.3245979 78.4286855,22.8653633 C78.5177038,23.1123128 78.6067221,23.3556572 78.6921797,23.6062119 C78.8452912,24.0947033 78.7206656,24.3668885 78.2524293,24.5795896 C77.8867025,24.74654 77.5094544,24.8863068 77.1236772,24.9977815 C75.8573706,25.3417855 74.5398517,25.449893 73.2353577,25.3168331 C72.2806387,25.2505109 71.3474119,24.9989981 70.4864725,24.5759845 C69.2730722,23.9615377 68.2987248,22.9521958 67.7197837,21.7099279 C67.2187621,20.640999 66.9089295,19.490586 66.8046755,18.3121187 C66.6980222,17.3153145 66.6813364,16.3107421 66.7548253,15.3108708 C66.8758902,13.6236828 67.26401,12.0085968 68.1915807,10.5737659 C69.0817637,9.20562951 70.2924126,8.29353855 71.9054243,7.99792013 C73.4044925,7.72393233 74.8483694,7.90779257 76.1783028,8.69009983 C77.1770882,9.27953411 77.8554077,10.1790072 78.3307654,11.2353023 C78.8489456,12.4291572 79.1504877,13.7077523 79.2209484,15.0098447 C79.2565557,15.4983361 79.2797005,15.9868275 79.2780161,16.4753189 C79.2780161,17.0431226 78.9877205,17.338741 78.4304659,17.3405435 C77.0085469,17.3429469 75.5901886,17.3429469 74.175391,17.3405435 Z M72.9950083,15.056711 L73.596772,15.056711 C74.4335441,15.056711 75.2720965,15.056711 76.1088686,15.056711 C76.3777038,15.056711 76.3866057,15.056711 76.3741431,14.7737105 C76.3616805,14.4907099 76.334975,14.2509706 76.3011481,13.9896007 C76.2287006,13.2281673 76.0129545,12.4878146 75.6655574,11.8085136 C75.3840686,11.2518687 74.9517795,10.7879323 74.4193012,10.4710205 C73.2265881,9.86127697 71.7752192,10.1783065 70.9369052,11.2316972 C70.1072546,12.2771769 69.7796672,13.510122 69.6532612,14.8115641 C69.6301165,15.0476983 69.6532612,15.056711 69.9167554,15.056711 C70.9369052,15.0585136 71.9641764,15.056711 72.9950083,15.056711 Z" id="Shape" fill-rule="nonzero"></path>
                    <path d="M3.35064892,13.1586245 C3.31456973,14.6135465 3.4611389,16.0672174 3.7868386,17.4847476 C4.06635607,18.6293677 4.47049917,19.7217138 5.21113145,20.6572379 C6.0873511,21.8108548 7.41678277,22.5203832 8.85198003,22.6003882 C10.0127787,22.6905158 11.0934609,22.3858846 12.1527787,21.9658902 C12.6530616,21.7676095 12.8827288,21.8415141 13.1212978,22.3264004 C13.3135774,22.7229617 13.4987354,23.1231281 13.6785524,23.5250971 C13.7650376,23.6714136 13.7847017,23.8484802 13.7324687,24.0105884 C13.6802356,24.1726967 13.5612243,24.3039599 13.4061564,24.3704936 C13.1973734,24.4812963 12.9828225,24.5805817 12.7634443,24.6679146 C11.2857404,25.3096229 9.73682196,25.4484193 8.15407654,25.313228 C6.90171183,25.2259356 5.68814654,24.8365627 4.61470882,24.1776206 C3.48365413,23.4565637 2.55239148,22.4560079 1.90855241,21.2701054 C1.17020151,19.9028087 0.679966138,18.412555 0.461114809,16.8700776 C0.229546713,15.4049151 0.138324324,13.920529 0.188718802,12.437604 C0.251031614,10.3015807 0.617787022,8.21963394 1.53467554,6.26747088 C2.62069884,3.96561287 4.2906822,2.30185801 6.76539101,1.55740433 C7.95808281,1.21938059 9.20424383,1.11898415 10.4347255,1.26178591 C11.2009506,1.31281926 11.9538325,1.48999074 12.6637438,1.78632834 C12.8906867,1.88866921 13.1091815,2.00922367 13.3171381,2.1468386 C13.7016972,2.39919578 13.7924958,2.74528564 13.584193,3.16528009 C13.4061564,3.50596229 13.2423627,3.84664448 13.0625458,4.18191902 C12.7954908,4.67942318 12.5587022,4.76053799 12.0530782,4.54242928 C11.6384977,4.33932801 11.2048991,4.17870293 10.7587521,4.06295064 C8.76830283,3.61591791 6.94342762,3.92054908 5.4443594,5.40765391 C4.67168053,6.16472546 4.23014975,7.1290904 3.92926789,8.16375485 C3.66097288,9.14084184 3.48980055,10.1426311 3.41830283,11.1541875 C3.35955075,11.8139212 3.36667221,12.4826678 3.35064892,13.1586245 Z" id="Path" fill-rule="nonzero"></path>
                    <path d="M26.385025,16.6159179 C26.4296437,18.0576699 26.2117768,19.4954231 25.7423128,20.8573211 C25.3176427,22.1468864 24.5245394,23.2798497 23.4634443,24.1127288 C22.6140844,24.7661822 21.6080895,25.1786965 20.548985,25.3078203 C19.623332,25.4369779 18.681179,25.3669561 17.7840765,25.1023295 C16.1514809,24.6120355 14.9586356,23.5611481 14.1307654,22.0740433 C13.5644769,21.010881 13.2020265,19.848819 13.0625458,18.6491958 C12.9333673,17.7143234 12.8934214,16.7690274 12.9432612,15.8264004 C13.019817,14.3627288 13.2761897,12.9423184 13.9153411,11.6012202 C14.7627953,9.83652246 16.069584,8.58374931 17.9781364,8.09706045 C20.8908153,7.35440932 23.8088353,8.49362174 25.2776373,11.33264 C25.769749,12.3131526 26.0959274,13.3702955 26.2425957,14.4600666 C26.3498316,15.1733537 26.3974768,15.8945251 26.385025,16.6159179 Z M23.4812479,16.6321409 C23.4812479,16.1075984 23.467005,15.583056 23.4189351,15.0603161 C23.3650793,14.2984885 23.2130526,13.5470627 22.9667221,12.8251525 C22.4521963,11.4155574 21.565574,10.4313644 19.9952912,10.2817526 C19.2026793,10.1858998 18.4029399,10.3886468 17.7484692,10.8513588 C17.0559068,11.3452579 16.6464226,12.0464504 16.3615641,12.8341653 C15.9805657,13.8904603 15.8879867,14.9972268 15.8452579,16.1039933 C15.7992488,17.1537717 15.8667098,18.2054969 16.0464393,19.2404326 C16.1692041,20.0917766 16.4729153,20.9060255 16.9366223,21.6270105 C18.1401498,23.3881032 20.529401,23.3105935 21.7080033,22.3480311 C22.3598978,21.7891528 22.8276367,21.0420105 23.048619,20.2066001 C23.4064725,19.0403494 23.4848087,17.8452579 23.4812479,16.6321409 Z" id="Shape" fill-rule="nonzero"></path>
                    <path d="M27.7363228,11.682335 C27.7363228,8.14693104 27.7363228,4.61092623 27.7363228,1.07432058 C27.7363228,1.00221852 27.7363228,0.930116473 27.7363228,0.859816972 C27.747005,0.349694953 28.0069384,0.0540765391 28.510782,0.0252357182 C28.8989018,0.00360510261 29.2905824,0.00721020521 29.6787022,0.0252357182 C30.212812,0.0468663339 30.4923295,0.37312812 30.4905491,0.897670549 C30.4763062,4.0755685 30.4905491,7.25346644 30.4905491,10.4313644 C30.4905491,14.1350065 30.4905491,17.8380477 30.4905491,21.5404881 C30.4753817,21.8748246 30.5095854,22.2095809 30.59203,22.5336938 C30.704193,22.9104271 30.8412812,23.0095674 31.229401,23.0185801 C31.4889814,23.0120063 31.7469944,22.9757246 31.9985191,22.9104271 C32.3741764,22.8329174 32.6216473,22.9753189 32.7249085,23.348447 C32.8157072,23.681919 32.8904825,24.0207987 32.951015,24.3596783 C33.0120631,24.6685486 32.8283587,24.9730444 32.5290682,25.0590682 C32.2752987,25.1559793 32.012123,25.225463 31.7439268,25.2663616 C31.1532243,25.3844228 30.547031,25.4002693 29.9510982,25.313228 C28.7422296,25.1059346 27.9695507,24.3037992 27.8039767,23.0762618 C27.7620153,22.7565891 27.7417903,22.4343759 27.7434443,22.1118968 C27.7386966,18.6353762 27.7363228,15.1588556 27.7363228,11.682335 Z" id="Path" fill-rule="nonzero"></path>
                    <path d="M33.8857072,11.7165835 C33.8857072,8.19199482 33.8857072,4.66800703 33.8857072,1.14462008 C33.8857072,1.02565169 33.8857072,0.904880754 33.8857072,0.784109817 C33.8699739,0.421487456 34.1274994,0.105492679 34.4821298,0.0522739878 C34.5989279,0.0257543461 34.718562,0.0142474777 34.838203,0.018025513 L35.6073211,0.018025513 C36.3835607,0.018025513 36.6292512,0.264975042 36.6292512,1.0400721 C36.6292512,6.59553522 36.6292512,12.1503975 36.6292512,17.7046589 C36.6292512,19.042152 36.6292512,20.3802459 36.6292512,21.7189407 C36.621907,21.9816481 36.6494523,22.2441639 36.7111481,22.4994454 C36.8161897,22.8869939 36.9693012,23.0041597 37.3645424,23.0131725 C37.6119031,23.0090276 37.8579927,22.9763712 38.0980532,22.9158347 C38.52,22.8293123 38.753228,22.9627011 38.8618303,23.3826955 C38.9455075,23.7053522 39.0096007,24.0334165 39.0719135,24.3614809 C39.1360219,24.6139866 39.0173586,24.877548 38.7870549,24.9941764 C38.73695,25.0265033 38.6831429,25.0525315 38.626822,25.0716861 C37.7404909,25.3773419 36.7913727,25.4468676 35.8708153,25.2735718 C34.8453245,25.051858 34.1527621,24.2875763 33.9551414,23.2150582 C33.8964321,22.8498809 33.8713991,22.4799663 33.8803661,22.1100943 C33.8839268,18.6467924 33.8857072,15.1822888 33.8857072,11.7165835 Z" id="Path" fill-rule="nonzero"></path>
                    <path d="M83.8320965,10.3917083 C83.9545015,10.2704313 84.0529874,10.1266731 84.1222962,9.96810871 C84.5741044,9.16151753 85.2630139,8.51757996 86.0931614,8.12590128 C86.7232719,7.83589666 87.4388318,7.79980174 88.0942928,8.0249584 C88.3332002,8.09678175 88.5465052,8.23700123 88.7085191,8.42872989 C88.8639538,8.59874722 88.9247998,8.8363634 88.8705324,9.0614254 C88.7518414,9.53609725 88.6331503,10.0095674 88.5144592,10.4818358 C88.492406,10.5625447 88.4644359,10.6414751 88.430782,10.71797 C88.2634276,11.1127288 88.1299002,11.1848308 87.7186356,11.0929007 C87.3963894,11.0226012 87.0794842,10.9324737 86.7554576,10.8693844 C85.8955408,10.6999445 85.254609,11.0496395 84.7614476,11.718386 C84.3380364,12.3261244 84.0623165,13.0264839 83.9567221,13.7624792 C83.8599698,14.4482695 83.8206617,15.1411144 83.839218,15.8336106 C83.824975,18.6059346 83.839218,21.3782585 83.839218,24.1487798 C83.839218,24.2677482 83.839218,24.3885191 83.839218,24.5092901 C83.8260292,24.8601633 83.55164,25.1434342 83.2054077,25.1636162 C82.7104659,25.1852468 82.2137438,25.1852468 81.718802,25.1636162 C81.3458305,25.1499254 81.0522248,24.836636 81.0582862,24.4588186 C81.0582862,24.3759013 81.0582862,24.2911814 81.0582862,24.208264 C81.0582862,19.1539101 81.0582862,14.1001571 81.0582862,9.04700499 C81.0582862,8.30435385 81.2950749,8.05920688 82.0232446,8.05019412 C82.2351082,8.05019412 82.4487521,8.05019412 82.6588353,8.06461453 C82.9870962,8.08225464 83.2607798,8.3250843 83.3211314,8.65224626 C83.4564393,9.17138103 83.5923405,9.69051581 83.7288353,10.2096506 C83.7430782,10.2745424 83.7306156,10.348447 83.8320965,10.3917083 Z" id="Path" fill-rule="nonzero"></path>
                    <path d="M104.705108,5.01109262 C104.102366,5.01398963 103.523509,4.77272526 103.097469,4.3410372 C102.671428,3.90934914 102.433588,3.32309012 102.436887,2.71283971 C102.434464,1.43707879 103.453951,0.400852642 104.71401,0.398359347 C105.974069,0.395875034 106.997542,1.42806603 107,2.70382696 C107.007337,3.32082672 106.767384,3.9144966 106.334931,4.34928172 C105.902478,4.78406685 105.314448,5.02284411 104.705108,5.01109262 Z M102.832163,2.70382696 C102.81702,3.21184542 103.00784,3.70401528 103.360272,4.06594667 C103.712705,4.42787807 104.196056,4.62805014 104.697987,4.61993899 C105.200641,4.63258119 105.687023,4.43909095 106.046729,4.08338794 C106.406435,3.72768493 106.608955,3.2399402 106.608319,2.73086522 C106.633746,2.03444062 106.283004,1.37914094 105.692847,1.02046324 C105.102689,0.661785536 104.366547,0.656514567 103.771438,1.00670545 C103.176329,1.35689633 102.816468,2.00710791 102.832163,2.70382696 Z" id="Shape" fill-rule="nonzero"></path>
                    <path d="M105.00777,2.88408209 C105.297604,3.19851028 105.543778,3.55145057 105.739501,3.93316694 C105.331797,4.02870216 105.331797,4.02870216 105.137737,3.69883527 C105.034476,3.51858014 104.931215,3.35274542 104.820832,3.1833056 C104.758013,3.08112063 104.664378,3.00211929 104.553777,2.95798669 C104.249334,2.84262341 104.122928,2.92914587 104.119368,3.25721021 C104.119368,3.43746534 104.119368,3.61772047 104.119368,3.7979756 C104.119368,3.93136439 104.069517,3.99265114 103.941331,3.99445369 C103.813145,3.99625624 103.718785,3.96200776 103.720566,3.79617304 C103.720566,3.09317804 103.720566,2.38838048 103.720566,1.68538547 C103.720566,1.54298392 103.79,1.50513034 103.918186,1.50513034 C104.247554,1.50513034 104.578702,1.50513034 104.90807,1.5177482 C105.239711,1.50194335 105.534391,1.73027381 105.605973,2.05851359 C105.652727,2.38968679 105.461898,2.70817647 105.1502,2.81919024 C105.100649,2.83581262 105.05292,2.85755797 105.00777,2.88408209 L105.00777,2.88408209 Z M104.539534,1.85122019 L104.539534,1.85122019 C104.446483,1.84441135 104.353068,1.84441135 104.260017,1.85122019 C104.035691,1.88546866 104.124709,2.072934 104.12827,2.19190238 C104.13183,2.31087077 104.021448,2.53618968 104.254676,2.57043816 C104.452431,2.59466258 104.652549,2.59102286 104.849318,2.55962285 C105.033652,2.55139745 105.181244,2.40196698 105.189368,2.21533555 C105.180018,2.01610421 105.019582,1.85839971 104.822612,1.85482529 C104.72774,1.84923125 104.632626,1.84923125 104.537754,1.85482529 L104.539534,1.85122019 Z" id="Shape" fill-rule="nonzero"></path>
                </g>
            </g>
        </g>
    </g>
</svg>