<?xml version="1.0" encoding="UTF-8"?>
<svg width="25px" height="18px" viewBox="0 0 25 18" version="1.1" xmlns="http://www.w3.org/2000/svg" xmlns:xlink="http://www.w3.org/1999/xlink">
    <!-- Generator: Sketch 63.1 (92452) - https://sketch.com -->
    <title>noun_Email_1740173</title>
    <desc>Created with Sketch.</desc>
    <g id="Talent--Mob-Admin" stroke="none" stroke-width="1" fill="none" fill-rule="evenodd">
        <g id="5-Tal_Web_Admin_Communication" transform="translate(-977.000000, -329.000000)" fill="#747588" fill-rule="nonzero">
            <g id="Group-9" transform="translate(977.000000, 325.000000)">
                <g id="noun_Email_1740173" transform="translate(0.000000, 4.000000)">
                    <path d="M1.92307692,0 C1.5450641,0 1.19810897,0.116410256 0.901442308,0.310512821 L11.7287821,10.5669327 C12.2030769,11.016516 12.8177564,11.016484 13.2912821,10.5669327 L24.0985577,0.310512821 C23.801891,0.116410256 23.4549359,0 23.0769231,0 L1.92307692,0 Z M0.120192308,1.32211538 C0.0469551282,1.53384615 0,1.75464744 0,1.99320513 L0,15.3144968 C0,15.7193045 0.112724359,16.0922853 0.310512821,16.4062596 L7.96275641,8.76404808 L0.120192308,1.32211538 Z M24.8798077,1.32211538 L17.0573077,8.75401603 L24.6894872,16.4062596 C24.8872756,16.0922853 25,15.7193045 25,15.3144968 L25,1.99320513 C25,1.75464744 24.9530449,1.53384615 24.8798077,1.32211538 L24.8798077,1.32211538 Z M16.1258013,9.64545833 L14.1726923,11.4984071 C13.2426282,12.3814519 11.7775641,12.3802019 10.8473718,11.4984071 L8.89423077,9.65545833 L1.32211538,17.2075417 C1.51150641,17.2719647 1.7124359,17.3077019 1.92307692,17.3077019 L23.0769231,17.3077019 C23.2875641,17.3077019 23.4884936,17.2719647 23.6778846,17.2075417 L16.1258013,9.64545833 Z" id="Shape"></path>
                </g>
            </g>
        </g>
    </g>
</svg>