<svg width="21px" height="12px" viewBox="0 0 21 12" version="1.1" xmlns="http://www.w3.org/2000/svg" xmlns:xlink="http://www.w3.org/1999/xlink">
    <g id="Amit-Revised-Screens" stroke="none" stroke-width="1" fill="none" fill-rule="evenodd">
        <g id="Candidate_Web_My-Jobs_Shortlist_1" transform="translate(-803.000000, -305.000000)" fill="#0a7be0" fill-rule="nonzero" stroke="#FFFFFF" stroke-width="0.25">
            <g id="noun_Location-to-Location_1940472" transform="translate(804.000000, 305.000000)">
                <g id="Group">
                    <path d="M3.50140056,9.77698772 C3.41386555,9.77698772 3.23879552,9.68810601 3.1512605,9.59922431 C2.80112045,9.24369748 -3.29299498e-16,6.04395604 -3.29299498e-16,4.26632191 C-3.29299498e-16,2.31092437 1.57563025,0.622171946 3.50140056,0.622171946 C5.42717087,0.622171946 7.00280112,2.22204266 7.00280112,4.26632191 C7.00280112,6.04395604 4.11414566,9.24369748 3.85154062,9.59922431 C3.7640056,9.68810601 3.58893557,9.77698772 3.50140056,9.77698772 Z M3.50140056,1.51098901 C2.10084034,1.51098901 0.87535014,2.7553329 0.87535014,4.26632191 C0.87535014,5.33290239 2.53851541,7.55494505 3.50140056,8.62152553 C4.46428571,7.55494505 6.12745098,5.33290239 6.12745098,4.26632191 C6.12745098,2.7553329 4.9894958,1.51098901 3.50140056,1.51098901 Z" id="Shape"></path>
                    <path d="M3.50140056,5.59954751 C2.62605042,5.59954751 1.92577031,4.88849386 1.92577031,4.0885585 C1.92577031,3.28862314 2.62605042,2.57756949 3.50140056,2.57756949 C4.3767507,2.57756949 5.07703081,3.28862314 5.07703081,4.0885585 C5.07703081,4.88849386 4.3767507,5.59954751 3.50140056,5.59954751 Z M3.50140056,3.46638655 C3.1512605,3.46638655 2.80112045,3.73303167 2.80112045,4.0885585 C2.80112045,4.44408533 3.1512605,4.71073045 3.50140056,4.71073045 C3.85154062,4.71073045 4.20168067,4.44408533 4.20168067,4.0885585 C4.20168067,3.73303167 3.85154062,3.46638655 3.50140056,3.46638655 Z" id="Shape"></path>
                </g>
                <g id="Group" transform="translate(12.254902, 0.000000)">
                    <path d="M3.50140056,9.77698772 C3.41386555,9.77698772 3.23879552,9.68810601 3.1512605,9.59922431 C2.80112045,9.24369748 1.31719799e-15,6.04395604 1.31719799e-15,4.26632191 C1.31719799e-15,2.31092437 1.57563025,0.711053652 3.50140056,0.711053652 C5.42717087,0.711053652 7.00280112,2.31092437 7.00280112,4.26632191 C7.00280112,6.04395604 4.11414566,9.24369748 3.85154062,9.59922431 C3.7640056,9.68810601 3.58893557,9.77698772 3.50140056,9.77698772 Z M3.50140056,1.59987072 C2.10084034,1.59987072 0.87535014,2.84421461 0.87535014,4.26632191 C0.87535014,5.33290239 2.53851541,7.55494505 3.50140056,8.62152553 C4.46428571,7.55494505 6.12745098,5.33290239 6.12745098,4.26632191 C6.12745098,2.7553329 4.9894958,1.59987072 3.50140056,1.59987072 Z" id="Shape"></path>
                    <path d="M3.50140056,5.59954751 C2.62605042,5.59954751 1.92577031,4.88849386 1.92577031,4.0885585 C1.92577031,3.28862314 2.62605042,2.57756949 3.50140056,2.57756949 C4.3767507,2.57756949 5.07703081,3.28862314 5.07703081,4.0885585 C5.07703081,4.88849386 4.3767507,5.59954751 3.50140056,5.59954751 Z M3.50140056,3.46638655 C3.1512605,3.46638655 2.80112045,3.73303167 2.80112045,4.0885585 C2.80112045,4.44408533 3.1512605,4.71073045 3.50140056,4.71073045 C3.85154062,4.71073045 4.20168067,4.44408533 4.20168067,4.0885585 C4.20168067,3.73303167 3.85154062,3.46638655 3.50140056,3.46638655 Z" id="Shape"></path>
                </g>
                <path d="M15.7563025,11.821267 L3.50140056,11.821267 C3.23879552,11.821267 3.06372549,11.6435036 3.06372549,11.3768584 C3.06372549,11.1102133 3.23879552,10.9324499 3.50140056,10.9324499 L15.7563025,10.9324499 C16.0189076,10.9324499 16.1939776,11.1102133 16.1939776,11.3768584 C16.1939776,11.6435036 16.0189076,11.821267 15.7563025,11.821267 Z" id="Path"></path>
            </g>
        </g>
    </g>
</svg>