<svg width="14px" height="14px" viewBox="0 0 14 14" version="1.1" xmlns="http://www.w3.org/2000/svg" xmlns:xlink="http://www.w3.org/1999/xlink">
    <g id="Page-1" stroke="none" stroke-width="1" fill="none" fill-rule="evenodd">
        <g id="noun_filters_2161054" fill="#4C5459" fill-rule="nonzero">
            <path d="M4.00378788,10.3638889 C4.00282863,9.47043245 3.42446889,8.68613128 2.58712121,8.44277778 L2.58712121,0.544444444 C2.58712121,0.243756081 2.34969646,0 2.05681818,0 C1.76393991,0 1.52651515,0.243756081 1.52651515,0.544444444 L1.52651515,8.44277778 C0.687386564,8.68400292 0.107280636,9.46924872 0.107280636,10.3638889 C0.107280636,11.2585291 0.687386564,12.0437749 1.52651515,12.285 L1.52651515,13.4516667 C1.52651515,13.752355 1.76393991,13.9961111 2.05681818,13.9961111 C2.34969646,13.9961111 2.58712121,13.752355 2.58712121,13.4516667 L2.58712121,12.285 C3.42446889,12.0416465 4.00282863,11.2573453 4.00378788,10.3638889 Z M2.05681818,11.2777778 C1.56729306,11.2777778 1.17045455,10.8703569 1.17045455,10.3677778 C1.17045455,9.86519866 1.56729306,9.45777778 2.05681818,9.45777778 C2.5463433,9.45777778 2.94318182,9.86519866 2.94318182,10.3677778 C2.94318182,10.8703569 2.5463433,11.2777778 2.05681818,11.2777778 Z" id="Shape"></path>
            <path d="M13.9204545,10.3638889 C13.9194953,9.47043245 13.3411356,8.68613128 12.5037879,8.44277778 L12.5037879,0.544444444 C12.5037879,0.243756081 12.2663631,0 11.9734848,0 C11.6806066,0 11.4431818,0.243756081 11.4431818,0.544444444 L11.4431818,8.44277778 C10.6040532,8.68400292 10.0239473,9.46924872 10.0239473,10.3638889 C10.0239473,11.2585291 10.6040532,12.0437749 11.4431818,12.285 L11.4431818,13.4516667 C11.4431818,13.6461779 11.544257,13.8259138 11.7083333,13.9231694 C11.8724097,14.0204251 12.07456,14.0204251 12.2386364,13.9231694 C12.4027127,13.8259138 12.5037879,13.6461779 12.5037879,13.4516667 L12.5037879,12.285 C13.3411356,12.0416465 13.9194953,11.2573453 13.9204545,10.3638889 Z M11.9734848,11.2777778 C11.4839597,11.2777778 11.0871212,10.8703569 11.0871212,10.3677778 C11.0871212,9.86519866 11.4839597,9.45777778 11.9734848,9.45777778 C12.46301,9.45777778 12.8598485,9.86519866 12.8598485,10.3677778 C12.8598485,10.8703569 12.46301,11.2777778 11.9734848,11.2777778 Z" id="Shape"></path>
            <path d="M5.06818182,3.63611111 C5.06914107,4.52956755 5.64750081,5.31386872 6.48484848,5.55722222 L6.48484848,13.4555556 C6.48484848,13.7562439 6.72227324,14 7.01515152,14 C7.30802979,14 7.54545455,13.7562439 7.54545455,13.4555556 L7.54545455,5.55722222 C8.38458313,5.31599708 8.96468906,4.53075128 8.96468906,3.63611111 C8.96468906,2.74147094 8.38458313,1.95622514 7.54545455,1.715 L7.54545455,0.548333333 C7.54545455,0.24764497 7.30802979,0.00388888889 7.01515152,0.00388888889 C6.72227324,0.00388888889 6.48484848,0.24764497 6.48484848,0.548333333 L6.48484848,1.715 C5.64750081,1.9583535 5.06914107,2.74265467 5.06818182,3.63611111 Z M7.01515152,2.72222222 C7.50467663,2.72222222 7.90151515,3.1296431 7.90151515,3.63222222 C7.90151515,4.13480134 7.50467663,4.54222222 7.01515152,4.54222222 C6.5256264,4.54222222 6.12878788,4.13480134 6.12878788,3.63222222 C6.12878788,3.1296431 6.5256264,2.72222222 7.01515152,2.72222222 Z" id="Shape"></path>
        </g>
    </g>
</svg>