<?xml version="1.0" encoding="UTF-8"?>
<svg width="16px" height="15px" viewBox="0 0 16 15" version="1.1" xmlns="http://www.w3.org/2000/svg" xmlns:xlink="http://www.w3.org/1999/xlink">
    <!-- Generator: Sketch 63.1 (92452) - https://sketch.com -->
    <title>noun_switch_2207864</title>
    <desc>Created with Sketch.</desc>
    <g id="Talent-Mob-2020" stroke="none" stroke-width="1" fill="none" fill-rule="evenodd">
        <g id="Tal_Web_MyRedep_Overlays" transform="translate(-1366.000000, -231.000000)" fill="#515468" fill-rule="nonzero">
            <g id="Group-27" transform="translate(877.000000, 217.000000)">
                <g id="Group-9">
                    <g id="noun_switch_2207864" transform="translate(489.000000, 14.000000)">
                        <path d="M8.98333333,3.11666667 C9.2,2.9 9.2,2.53333333 8.98333333,2.31666667 L7.15,0.483333333 C6.93333333,0.266666667 6.56666667,0.266666667 6.35,0.483333333 C6.13333333,0.7 6.13333333,1.06666667 6.35,1.28333333 L7.23333333,2.16666667 L4.73333333,2.16666667 C3.33333333,2.16666667 2.2,3.3 2.2,4.7 L2.2,7.8 C2.2,8.11666667 2.45,8.36666667 2.76666667,8.36666667 C3.08333333,8.36666667 3.33333333,8.11666667 3.33333333,7.8 L3.33333333,4.68333333 C3.33333333,3.91666667 3.96666667,3.28333333 4.73333333,3.28333333 L7.23333333,3.28333333 L6.35,4.16666667 C6.13333333,4.38333333 6.13333333,4.75 6.35,4.96666667 C6.46666667,5.08333333 6.6,5.13333333 6.75,5.13333333 C6.9,5.13333333 7.03333333,5.08333333 7.15,4.96666667 L8.98333333,3.11666667 Z" id="Path"></path>
                        <path d="M13.2333333,6.63333333 C12.9166667,6.63333333 12.6666667,6.88333333 12.6666667,7.2 L12.6666667,10.3 C12.6666667,11.0666667 12.0333333,11.7 11.2666667,11.7 L8.76666667,11.7 L9.65,10.8166667 C9.86666667,10.6 9.86666667,10.2333333 9.65,10.0166667 C9.43333333,9.8 9.06666667,9.8 8.85,10.0166667 L7.01666667,11.8666667 C6.8,12.0833333 6.8,12.45 7.01666667,12.6666667 L8.86666667,14.5166667 C8.98333333,14.6333333 9.11666667,14.6833333 9.26666667,14.6833333 C9.41666667,14.6833333 9.55,14.6333333 9.66666667,14.5166667 C9.88333333,14.3 9.88333333,13.9333333 9.66666667,13.7166667 L8.76666667,12.8333333 L11.2666667,12.8333333 C12.6666667,12.8333333 13.8,11.7 13.8,10.3 L13.8,7.2 C13.8,6.88333333 13.55,6.63333333 13.2333333,6.63333333 Z" id="Path"></path>
                        <path d="M13.2333333,0.0333333333 C11.75,0.0333333333 10.55,1.23333333 10.55,2.71666667 C10.55,4.2 11.75,5.4 13.2333333,5.4 C14.7166667,5.4 15.9166667,4.2 15.9166667,2.71666667 C15.9166667,1.23333333 14.7166667,0.0333333333 13.2333333,0.0333333333 Z" id="Path"></path>
                        <path d="M2.76666667,9.6 C1.28333333,9.6 0.0833333333,10.8 0.0833333333,12.2833333 C0.0833333333,13.7666667 1.28333333,14.9666667 2.76666667,14.9666667 C4.25,14.9666667 5.45,13.7666667 5.45,12.2833333 C5.45,10.8 4.25,9.6 2.76666667,9.6 Z" id="Path"></path>
                    </g>
                </g>
            </g>
        </g>
    </g>
</svg>