<?xml version="1.0" encoding="UTF-8"?>
<svg width="16px" height="16px" viewBox="0 0 16 16" version="1.1" xmlns="http://www.w3.org/2000/svg" xmlns:xlink="http://www.w3.org/1999/xlink">
    <!-- Generator: Sketch 63.1 (92452) - https://sketch.com -->
    <title>noun_Info_1845673</title>
    <desc>Created with Sketch.</desc>
    <g id="Page-1" stroke="none" stroke-width="1" fill="none" fill-rule="evenodd">
        <g id="Candidate_Web_Dashboard" transform="translate(-1199.000000, -35.000000)" fill="#ACAEC1" fill-rule="nonzero">
            <g id="Group-9" transform="translate(1040.000000, 26.000000)">
                <g id="Group-6">
                    <g id="noun_Info_1845673" transform="translate(159.000000, 9.000000)">
                        <path d="M8.05095322,15.9703101 C4.84618888,15.9714709 1.95639442,14.0417079 0.729447665,11.0811138 C-0.49749909,8.12051967 0.18011059,4.71233208 2.44622134,2.44622134 C4.71233208,0.18011059 8.12051967,-0.49749909 11.0811138,0.729447665 C14.0417079,1.95639442 15.9714709,4.84618888 15.9703101,8.05095322 C15.9639838,12.4220701 12.4220701,15.9639838 8.05095322,15.9703101 Z M8.05095322,1.27728992 C5.3110014,1.27612905 2.84019707,2.92574237 1.790858,5.45679449 C0.741518927,7.98784661 1.32033578,10.9017905 3.25736368,12.8396399 C5.19439159,14.7774893 8.10808984,15.3575416 10.6395866,14.3092758 C13.1710835,13.26101 14.8217445,10.7909053 14.8217445,8.05095322 C14.8185806,4.31239475 11.78951,1.28203959 8.05095322,1.27728992 Z" id="Shape"></path>
                        <circle id="Oval" cx="8.05095322" cy="5.35182523" r="1"></circle>
                        <rect id="Rectangle" x="7.33597144" y="6.97704485" width="1.42422073" height="4.68901703"></rect>
                    </g>
                </g>
            </g>
        </g>
    </g>
</svg>