<?xml version="1.0" encoding="UTF-8"?>
<svg width="15px" height="20px" viewBox="0 0 15 20" version="1.1" xmlns="http://www.w3.org/2000/svg" xmlns:xlink="http://www.w3.org/1999/xlink">
    <!-- Generator: Sketch 63.1 (92452) - https://sketch.com -->
    <title>noun_assign_574443</title>
    <desc>Created with Sketch.</desc>
    <g id="Talent-Mob-2020" stroke="none" stroke-width="1" fill="none" fill-rule="evenodd">
        <g id="Tal_Web_MyRedep_All-Candidates" transform="translate(-1352.000000, -774.000000)" fill="#515468" fill-rule="nonzero">
            <g id="Group-8-Copy-17" transform="translate(1325.000000, 774.000000)">
                <g id="noun_assign_574443" transform="translate(27.000000, 0.000000)">
                    <path d="M6.63514333,1.64357 C7.49308833,1.64357 8.19161,2.34209667 8.19161,3.200045 C8.19161,4.05801833 7.49308833,4.75487667 6.63514333,4.75487667 C5.777195,4.75487667 5.07867833,4.05801833 5.07867833,3.200045 C5.07867833,2.34209667 5.777195,1.64357 6.63514333,1.64357 M6.63514333,0 C4.87158667,0 3.43510333,1.43488667 3.43510333,3.200045 C3.43510333,4.96361 4.87158667,6.39844667 6.63514333,6.39844667 C8.3987,6.39844667 9.835185,4.96361 9.835185,3.200045 C9.835185,1.43488667 8.3987,0 6.63514333,0" id="Shape"></path>
                    <path d="M1.04336833,20 C0.566993333,20 0.223228333,19.52141 0.221583333,19.0694483 L0.198571667,13.5881017 C0.198571667,10.310825 3.086335,7.646575 6.63481667,7.646575 C9.23495167,7.646575 11.6296383,9.15869333 12.5960633,11.407095 C12.7752117,11.8245633 12.5829117,12.307755 12.1654433,12.4869267 C11.7529083,12.66276 11.2664117,12.4737517 11.0839733,12.054665 C10.3755933,10.4012317 8.58738333,9.29014333 6.63481667,9.29014333 C3.99358833,9.29014333 1.84214667,11.2164167 1.84214667,13.5848133 L1.86515833,19.0628733 C1.86680333,19.5164783 1.5,20 1.04665833,20 L1.04336833,20 Z" id="Path"></path>
                    <path d="M13.5483083,17.0996783 L6.57893167,17.0996783 C6.125305,17.0996783 5.757145,16.8312383 5.757145,16.3775833 C5.757145,15.9239783 6.125305,15.4423533 6.57893167,15.4423533 L13.6463067,15.4423533 C14.0999333,15.4423533 14.468095,15.9239783 14.468095,16.3775833 C14.468095,16.8312367 14.0999317,17.0996783 13.5483083,17.0996783 Z" id="Path"></path>
                    <path d="M8.25209333,19.5094217 L5.83274833,16.9437983 C5.53197667,16.628245 5.53197667,16.133495 5.83274833,15.8179417 L8.25209333,13.2523167 C8.561085,12.9219683 9.0821,12.9039133 9.41245833,13.2194667 C9.74281167,13.53009 9.75760833,14.049445 9.44532833,14.3798433 L7.56014833,16.38006 L9.44532833,18.3819217 C9.75761,18.7106517 9.73309833,19.2216583 9.41245833,19.5422983 C8.98722667,19.96753 8.41152,19.6803483 8.25209333,19.5094217 Z" id="Path"></path>
                </g>
            </g>
        </g>
    </g>
</svg>