<?xml version="1.0" encoding="UTF-8"?>
<svg width="15px" height="13px" viewBox="0 0 15 13" version="1.1" xmlns="http://www.w3.org/2000/svg" xmlns:xlink="http://www.w3.org/1999/xlink">
    <!-- Generator: Sketch 62 (91390) - https://sketch.com -->
    <title>noun_like_1555605</title>
    <desc>Created with Sketch.</desc>
    <g id="Amit-Revised-Screens" stroke="none" stroke-width="1" fill="none" fill-rule="evenodd">
        <g id="Candidate_Web_My-Jobs_Hired" transform="translate(-454.000000, -302.000000)" fill="#02BA5A" fill-rule="nonzero">
            <g id="noun_like_1555605" transform="translate(454.000000, 302.000000)">
                <path d="M8.04651989,0.0470880682 L8.05783026,0.0480113636 C8.75768821,0.0925603693 9.29850852,0.530433239 9.58149858,1.28084162 C9.96674361,2.3010831 9.80378196,3.69549006 9.24957386,4.68687855 L9.24957386,4.68687855 L13.1290305,4.68687855 C13.9846946,4.68687855 14.4327237,5.34726562 14.4327237,5.99980469 C14.4327237,6.33796165 14.3120028,6.67842685 14.0774858,6.92794744 C14.3124645,7.17723722 14.4329545,7.51770241 14.4329545,7.85585937 C14.4329545,8.43892045 14.0751776,9.02867543 13.3880149,9.14731889 C13.4655717,9.32459162 13.5048118,9.51871449 13.5048118,9.71168324 C13.5048118,10.0486861 13.389169,10.3656072 13.1793501,10.6040483 C12.9944602,10.8138672 12.7449396,10.9509766 12.4598722,11.0022195 C12.5376598,11.1799538 12.5768999,11.3740767 12.5768999,11.5677379 C12.5768999,12.2200462 12.1291016,12.8806641 11.2732067,12.8806641 L11.2732067,12.8806641 L8.13677202,12.8806641 C6.48176491,12.8806641 5.39897017,12.5078835 4.14605824,12.0760121 C4.05719105,12.0455433 3.9667081,12.0143821 3.87507102,11.9829901 L3.87507102,11.9829901 L3.87507102,5.64133523 C3.87507102,5.61317472 3.87368608,5.58570668 3.87137784,5.55823864 C3.99833097,5.4949929 4.11835938,5.43636364 4.22823153,5.38258168 C4.98741122,5.0114169 5.44536577,4.78728693 5.98041548,4.25223722 C6.61587358,3.61677912 7.05928622,1.82697088 7.15900213,0.815039062 C7.19685724,0.360316051 7.5911044,0.0191583807 8.04651989,0.0470880682 L8.04651989,0.0470880682 Z M2.84767401,5.24085582 C3.0720348,5.24085582 3.24815341,5.41697443 3.24792281,5.64133523 L3.24792281,5.64133523 L3.24792281,12.0483132 C3.24792281,12.272674 3.0720348,12.4487926 2.84767401,12.4487926 L2.84767401,12.4487926 L0.445028409,12.4487926 C0.220667614,12.4487926 0.0445490057,12.272674 0.0445490057,12.0483132 L0.0445490057,12.0483132 L0.0445490057,5.64133523 C0.0445490057,5.41697443 0.220667614,5.24085582 0.445028409,5.24085582 L0.445028409,5.24085582 Z" id="Combined-Shape"></path>
            </g>
        </g>
    </g>
</svg>