<?xml version="1.0" encoding="UTF-8"?>
<svg width="21px" height="20px" viewBox="0 0 21 20" version="1.1" xmlns="http://www.w3.org/2000/svg" xmlns:xlink="http://www.w3.org/1999/xlink">
    <!-- Generator: Sketch 63.1 (92452) - https://sketch.com -->
    <title>noun_Access_543145</title>
    <desc>Created with Sketch.</desc>
    <g id="Talent--Mob-Admin" stroke="none" stroke-width="1" fill="none" fill-rule="evenodd">
        <g id="1-Tal_Web_Admin_BrandProfile" transform="translate(-25.000000, -264.000000)" fill="#515468" fill-rule="nonzero">
            <g id="noun_Access_543145" transform="translate(25.000000, 264.000000)">
                <path d="M20.8806818,0.996810207 C20.8806818,0.446570973 20.4352273,0 19.8863636,0 L0.994318182,0 C0.445454545,0 0,0.446570973 0,0.996810207 L0,18.4409888 C0,18.9912281 0.445454545,19.437799 0.994318182,19.437799 L19.8863636,19.437799 C20.4352273,19.437799 20.8806818,18.9912281 20.8806818,18.4409888 L20.8806818,0.996810207 Z M18.8920455,1.24601276 C19.1669744,1.24601276 19.3892045,1.46879984 19.3892045,1.74441786 C19.3892045,2.02003589 19.1669744,2.24282297 18.8920455,2.24282297 C18.6171165,2.24282297 18.3948864,2.02003589 18.3948864,1.74441786 C18.3948864,1.46879984 18.6171165,1.24601276 18.8920455,1.24601276 Z M17.4005682,1.24601276 C17.6754972,1.24601276 17.8977273,1.46879984 17.8977273,1.74441786 C17.8977273,2.02003589 17.6754972,2.24282297 17.4005682,2.24282297 C17.1256392,2.24282297 16.9034091,2.02003589 16.9034091,1.74441786 C16.9034091,1.46879984 17.1256392,1.24601276 17.4005682,1.24601276 Z M15.9090909,1.24601276 C16.1840199,1.24601276 16.40625,1.46879984 16.40625,1.74441786 C16.40625,2.02003589 16.1840199,2.24282297 15.9090909,2.24282297 C15.6341619,2.24282297 15.4119318,2.02003589 15.4119318,1.74441786 C15.4119318,1.46879984 15.6341619,1.24601276 15.9090909,1.24601276 Z M19.8863636,18.4409888 L0.994318182,18.4409888 L0.994318182,4.48564593 L19.8863636,4.48564593 L19.8863636,18.4409888 Z" id="Shape"></path>
                <path d="M12.4289773,9.96810207 L12.4289773,8.47288676 C12.4289773,7.37190989 11.5385653,6.47926635 10.4403409,6.47926635 C9.34211648,6.47926635 8.45170455,7.37190989 8.45170455,8.47288676 L8.45170455,9.96810207 L7.45738636,9.96810207 L7.45738636,15.4505582 L13.4232955,15.4505582 L13.4232955,9.96810207 L12.4289773,9.96810207 Z M9.44602273,9.96810207 L9.44602273,8.47288676 C9.44602273,7.92264753 9.89147727,7.47607656 10.4403409,7.47607656 C10.9887074,7.47607656 11.4346591,7.92264753 11.4346591,8.47288676 L11.4346591,9.96810207 L9.44602273,9.96810207 Z" id="Shape"></path>
            </g>
        </g>
    </g>
</svg>