<?xml version="1.0" encoding="UTF-8"?>
<svg width="20px" height="21px" viewBox="0 0 20 21" version="1.1" xmlns="http://www.w3.org/2000/svg" xmlns:xlink="http://www.w3.org/1999/xlink">
    <!-- Generator: Sketch 63.1 (92452) - https://sketch.com -->
    <title>noun_integration_763854 copy</title>
    <desc>Created with Sketch.</desc>
    <g id="Talent--Mob-Admin" stroke="none" stroke-width="1" fill="none" fill-rule="evenodd">
        <g id="1-Tal_Web_Admin_BrandProfile" transform="translate(-24.000000, -495.000000)" fill="#515468" fill-rule="nonzero">
            <g id="noun_integration_763854-copy" transform="translate(24.000000, 495.000000)">
                <g id="Group" transform="translate(0.263158, 1.578947)">
                    <path d="M2.10947368,11.5802632 C1.94605263,10.9489474 1.85921053,10.2871053 1.85921053,9.60552632 C1.85921053,6.02921053 4.25026316,3.00236842 7.51710526,2.03552632 L7.51710526,0.129736842 C3.21815789,1.14105263 0.0171052632,4.99815789 0.0171052632,9.60552632 C0.0171052632,10.6489474 0.183157895,11.6531579 0.486842105,12.5957895 L2.10947368,11.5802632 Z" id="Path"></path>
                    <path d="M11.9905263,2.03552632 C15.2573684,3.00236842 17.6484211,6.02921053 17.6484211,9.60552632 C17.6484211,10.2860526 17.5618421,10.9471053 17.3992105,11.5773684 L19.0105263,12.6265789 C19.3207895,11.6752632 19.4905263,10.6602632 19.4905263,9.60552632 C19.4905263,4.99815789 16.2894737,1.14078947 11.9905263,0.129736842 L11.9905263,2.03552632 L11.9905263,2.03552632 Z" id="Path"></path>
                    <path d="M15.0934211,15.4142105 C13.6865789,16.7084211 11.8110526,17.5002632 9.75368421,17.5002632 C7.69657895,17.5002632 5.82131579,16.7086842 4.41447368,15.4147368 L2.80421053,16.4228947 C4.57105263,18.2239474 7.03131579,19.3423684 9.75368421,19.3423684 C12.4639474,19.3423684 14.9144737,18.2344737 16.6797368,16.4476316 L15.0934211,15.4142105 Z" id="Path"></path>
                </g>
                <polygon id="Path" points="19.9934211 16.2447368 15.0442105 13.0210526 16.27 11.1005263 11.0223684 11.4971053 12.8721053 16.4244737 14.0528947 14.5742105 18.9878947 17.7884211"></polygon>
                <polygon id="Path" points="10.9378947 5.92078947 10.9378947 0.131315789 9.09578947 0.131315789 9.09578947 5.92078947 6.85894737 5.92078947 10.0168421 10.1313158 13.1747368 5.92078947"></polygon>
                <polygon id="Path" points="5.00684211 13.0626316 0.00657894737 16.1921053 0.983684211 17.7536842 5.99815789 14.6152632 7.21605263 16.5234211 9.06552632 11.5960526 3.81763158 11.1992105"></polygon>
            </g>
        </g>
    </g>
</svg>