<?xml version="1.0" encoding="UTF-8"?>
<svg width="13px" height="13px" viewBox="0 0 13 13" version="1.1" xmlns="http://www.w3.org/2000/svg" xmlns:xlink="http://www.w3.org/1999/xlink">
    <!-- Generator: Sketch 62 (91390) - https://sketch.com -->
    <title>noun_reject_1408217</title>
    <desc>Created with Sketch.</desc>
    <g id="Amit-Revised-Screens" stroke="none" stroke-width="1" fill="none" fill-rule="evenodd">
        <g id="Candidate_Web_My-Jobs_Rejected" transform="translate(-435.000000, -303.000000)" fill="#DD4040" fill-rule="nonzero">
            <g id="Group-7" transform="translate(435.000000, 299.000000)">
                <g id="noun_reject_1408217" transform="translate(0.000000, 4.000000)">
                    <path d="M6.48271277,0 C2.90240937,0 0,2.90240937 0,6.48271277 C0,10.0630162 2.90240937,12.9654255 6.48271277,12.9654255 C10.0630162,12.9654255 12.9654255,10.0630162 12.9654255,6.48271277 C12.9654255,2.90240937 10.0630162,0 6.48271277,0 Z M9.38264628,8.76894947 C9.5294913,8.94042166 9.51961833,9.19602807 9.3599841,9.3556623 C9.20034987,9.51529653 8.94474347,9.52516949 8.77327128,9.37832447 L6.48271277,7.09208777 L4.19647606,9.37832447 C4.02500387,9.52516949 3.76939747,9.51529653 3.60976324,9.3556623 C3.45012901,9.19602807 3.44025604,8.94042166 3.58710106,8.76894947 L5.87333777,6.48271277 L3.58277926,4.19647606 C3.43593423,4.02500387 3.4458072,3.76939747 3.60544143,3.60976324 C3.76507566,3.45012901 4.02068206,3.44025604 4.19215426,3.58710106 L6.48271277,5.87333777 L8.76894947,3.58710106 C8.94042166,3.44025604 9.19602807,3.45012901 9.3556623,3.60976324 C9.51529653,3.76939747 9.52516949,4.02500387 9.37832447,4.19647606 L7.09208777,6.48271277 L9.38264628,8.76894947 Z" id="Shape"></path>
                </g>
            </g>
        </g>
    </g>
</svg>