<?xml version="1.0" encoding="UTF-8"?>
<svg width="21px" height="21px" viewBox="0 0 21 21" version="1.1" xmlns="http://www.w3.org/2000/svg" xmlns:xlink="http://www.w3.org/1999/xlink">
    <!-- Generator: Sketch 63.1 (92452) - https://sketch.com -->
    <title>noun_Job Search_744768</title>
    <desc>Created with Sketch.</desc>
    <g id="Talent-Mob-2020" stroke="none" stroke-width="1" fill="none" fill-rule="evenodd">
        <g id="Tal_Web_MyRedep_Overlays" transform="translate(-1166.000000, -227.000000)" fill="#515468" fill-rule="nonzero">
            <g id="Group-27" transform="translate(877.000000, 217.000000)">
                <g id="Group-9">
                    <g id="Group-8-Copy-2" transform="translate(265.000000, 11.000000)">
                        <g id="noun_Job-Search_744768" transform="translate(25.000000, 0.000000)">
                            <path d="M8.31777778,0.126666667 C3.75777778,0.126666667 0.0422222222,3.84222222 0.0422222222,8.40222222 C0.0422222222,12.9622222 3.75777778,16.6777778 8.31777778,16.6777778 C9.79555556,16.6777778 11.2733333,16.2766667 12.5611111,15.4955556 L12.8777778,15.3055556 L16.6777778,19.1055556 C16.9311111,19.3588889 17.2688889,19.4855556 17.6066667,19.4855556 C17.9655556,19.4855556 18.3033333,19.3377778 18.5355556,19.1055556 C18.7888889,18.8522222 18.9155556,18.5144444 18.9155556,18.1766667 C18.9155556,17.8388889 18.7677778,17.48 18.5355556,17.2477778 L14.8622222,13.5322222 L15.2,13.0466667 C16.1288889,11.6744444 16.6144444,10.07 16.6144444,8.42333333 C16.6144444,3.84222222 12.8988889,0.126666667 8.31777778,0.126666667 Z M8.31777778,14.44 C4.98222222,14.44 2.28,11.7377778 2.28,8.40222222 C2.28,5.06666667 4.98222222,2.36444444 8.31777778,2.36444444 C11.6533333,2.36444444 14.3555556,5.08777778 14.3555556,8.40222222 C14.3555556,11.7377778 11.6533333,14.44 8.31777778,14.44 Z" id="Shape" stroke="#EAEBF5"></path>
                            <path d="M11.6744444,6.16444444 L9.77444444,6.16444444 L9.77444444,5.29888889 C9.77444444,5.15111111 9.64777778,5.02444444 9.5,5.02444444 L7.15666667,5.02444444 C7.00888889,5.02444444 6.88222222,5.15111111 6.88222222,5.29888889 L6.88222222,6.16444444 L4.98222222,6.16444444 C4.75,6.16444444 4.56,6.35444444 4.56,6.58666667 L4.56,10.9566667 C4.56,11.1888889 4.75,11.3788889 4.98222222,11.3788889 L11.6533333,11.3788889 C11.8855556,11.3788889 12.0755556,11.1888889 12.0755556,10.9566667 L12.0755556,6.58666667 C12.0755556,6.35444444 11.8855556,6.16444444 11.6744444,6.16444444 Z M7.43111111,5.57333333 L9.26777778,5.57333333 L9.26777778,6.18555556 L7.43111111,6.18555556 L7.43111111,5.57333333 Z" id="Shape"></path>
                        </g>
                    </g>
                </g>
            </g>
        </g>
    </g>
</svg>