<?xml version="1.0" encoding="UTF-8"?>
<svg width="27px" height="16px" viewBox="0 0 27 16" version="1.1" xmlns="http://www.w3.org/2000/svg" xmlns:xlink="http://www.w3.org/1999/xlink">
    <!-- Generator: Sketch 63.1 (92452) - https://sketch.com -->
    <title>noun_users_943303 (1)</title>
    <desc>Created with Sketch.</desc>
    <g id="Talent--Mob-Admin" stroke="none" stroke-width="1" fill="none" fill-rule="evenodd">
        <g id="1-Tal_Web_Admin_BrandProfile" transform="translate(-22.000000, -187.000000)" fill="#515468" fill-rule="nonzero">
            <g id="Group-2" transform="translate(22.000000, 187.000000)">
                <g id="noun_users_943303-(1)">
                    <g id="Group">
                        <path d="M5.19532315,9.98343091 C7.02202574,9.98343091 8.50775568,8.49740525 8.50775568,6.67070266 C8.50775568,4.84400007 7.02173002,3.35827013 5.19532315,3.35827013 C3.36891629,3.35827013 1.8825949,4.84400007 1.8825949,6.67070266 C1.8825949,8.49740525 3.36862056,9.98343091 5.19532315,9.98343091 Z M5.19532315,4.75202913 C6.25343257,4.75202913 7.11399668,5.61259324 7.11399668,6.67070266 C7.11399668,7.72881208 6.25343257,8.58937619 5.19532315,8.58937619 C4.13721374,8.58937619 3.27664962,7.72851635 3.27664962,6.67070266 C3.27664962,5.61288897 4.13721373,4.75202913 5.19532315,4.75202913 Z" id="Shape"></path>
                        <path d="M1.39405472,14.8581865 C1.39405472,13.4348549 2.55182397,12.2770856 3.97515561,12.2770856 L6.41519496,12.2770856 C6.48823941,12.2770856 6.5606924,12.2800429 6.63225822,12.2862532 C6.83423942,12.303701 7.03474198,12.2359797 7.18142233,12.1011284 C7.32425823,11.9695301 7.4032172,11.7897284 7.4032172,11.5948446 C7.4032172,11.2393814 7.13114882,10.9344873 6.78337446,10.9010702 C6.66212659,10.8895369 6.53940009,10.8833267 6.41519496,10.8833267 L3.97515561,10.8833267 C1.7832308,10.8830309 0,12.6662617 0,14.8581865 L0,15.1447455 L1.39405472,15.1447455 L1.39405472,14.8581865 Z" id="Path"></path>
                        <path d="M7.65044456,15.1444498 L9.04449928,15.1444498 L9.04449928,13.4283489 C9.04449928,11.8195968 10.3533848,10.5107113 11.9624327,10.5107113 L14.6532481,10.5107113 C16.2620002,10.5107113 17.5711815,11.8195968 17.5711815,13.4283489 L17.5711815,15.1444498 L18.9652362,15.1444498 L18.9652362,13.4283489 C18.9652362,11.9730788 18.234496,10.6248617 17.010484,9.82225997 C16.3066549,9.3606309 15.4916327,9.11665654 14.6535438,9.11665654 L11.9627284,9.11665654 C10.6310719,9.11665654 9.39345655,9.72289587 8.56719671,10.7798224 C7.96775909,11.5466412 7.65103601,12.4625062 7.65103601,13.4283489 L7.65103601,15.1444498 L7.65044456,15.1444498 Z" id="Path"></path>
                        <path d="M22.6402294,10.8830309 L20.20019,10.8830309 C20.1318772,10.8830309 20.0641558,10.885101 19.9967302,10.8886497 C19.6208618,10.9093506 19.3263182,11.216019 19.3263182,11.5871557 C19.3263182,11.7787865 19.4058687,11.9636156 19.5448601,12.0946224 C19.6847387,12.2262207 19.8677934,12.2921677 20.0582413,12.2812258 C20.1052618,12.2782686 20.1525781,12.2770856 20.20019,12.2770856 L22.6402294,12.2770856 C24.063561,12.2770856 25.2213303,13.4348549 25.2213303,14.8581865 L25.2213303,15.1447455 L26.615385,15.1447455 L26.615385,14.8581865 C26.615385,12.6662617 24.8321542,10.8830309 22.6402294,10.8830309 Z" id="Path"></path>
                        <path d="M21.4200618,9.98343091 C23.2467644,9.98343091 24.7327901,8.49740525 24.7327901,6.67070266 C24.7327901,4.84400007 23.2467644,3.35827013 21.4200618,3.35827013 C19.5933593,3.35827013 18.1073336,4.84400007 18.1073336,6.67070266 C18.1073336,8.49740525 19.593655,9.98343091 21.4200618,9.98343091 Z M21.4200618,4.75202913 C22.4781713,4.75202913 23.3387354,5.61259324 23.3387354,6.67070266 C23.3387354,7.72881208 22.4778755,8.58937619 21.4200618,8.58937619 C20.3622482,8.58937619 19.5013883,7.72851635 19.5013883,6.67070266 C19.5013883,5.61288897 20.3622482,4.75202913 21.4200618,4.75202913 Z" id="Shape"></path>
                        <path d="M13.3076925,8.56749243 C15.6051917,8.56749243 17.4747746,6.69820523 17.4747746,4.40041032 C17.4747746,2.10261541 15.6054874,0.233328208 13.3076925,0.233328208 C11.0098976,0.233328208 9.14061039,2.10261541 9.14061039,4.40041032 C9.14061039,6.6979095 11.0098976,8.56749243 13.3076925,8.56749243 Z M13.3076925,1.6270872 C14.8365985,1.6270872 16.0807199,2.87120859 16.0807199,4.40041032 C16.0807199,5.92931633 14.8365985,7.17343771 13.3076925,7.17343771 C11.7784908,7.17343771 10.5343694,5.92931633 10.5343694,4.40041032 C10.5343694,2.87120859 11.7784908,1.6270872 13.3076925,1.6270872 Z" id="Shape"></path>
                    </g>
                </g>
            </g>
        </g>
    </g>
</svg>