<svg xmlns="http://www.w3.org/2000/svg" width="11" height="14" viewBox="0 0 11 14">
    <g fill="#0A7BE0" fill-rule="evenodd">
        <path d="M5 0c2.727 0 5 2.216 5 5 0 2.273-2.955 6.307-4.602 8.807-.228.284-.625.284-.796 0C2.955 11.307 0 7.273 0 5c0-2.784 2.216-5 5-5zm0 12.84C6.364 10.853 9.09 6.876 9.09 5 9.09 2.727 7.274.852 5 .852 2.727.852.852 2.727.852 5c0 1.875 2.784 5.852 4.148 7.84z"/>
        <path d="M5 3.125c1.023 0 1.818.852 1.818 1.875 0 1.023-.795 1.818-1.818 1.818-1.023 0-1.875-.795-1.875-1.818 0-1.023.852-1.875 1.875-1.875zm0 .852c-.568 0-1.023.455-1.023 1.023 0 .568.455 1.023 1.023 1.023.568 0 1.023-.455 1.023-1.023 0-.568-.455-1.023-1.023-1.023z"/>
    </g>
</svg>
