<?xml version="1.0" encoding="UTF-8"?>
<svg width="20px" height="20px" viewBox="0 0 20 20" version="1.1" xmlns="http://www.w3.org/2000/svg" xmlns:xlink="http://www.w3.org/1999/xlink">
    <!-- Generator: Sketch 62 (91390) - https://sketch.com -->
    <title>noun_web_1040200</title>
    <desc>Created with Sketch.</desc>
    <g id="Amit-Revised-Screens" stroke="none" stroke-width="1" fill="none" fill-rule="evenodd">
        <g id="Candidate_Web_My-Jobs_Shortlist_1" transform="translate(-1274.000000, -198.000000)" fill="#1070E7" fill-rule="nonzero">
            <g id="Group-18" transform="translate(1274.000000, 198.000000)">
                <g id="noun_web_1040200">
                    <path d="M12.7352941,10.7058824 C12.7941176,10.7352941 12.8235294,10.7352941 12.8823529,10.7647059 L14.5294118,11.9411765 L15.6176471,12.7352941 L17.5588235,14.1176471 L18.7058824,14.9411765 C19.1176471,15.2352941 18.9411765,15.8823529 18.4411765,15.9117647 L16.6764706,16 L17.2352941,16.8823529 L18.6470588,19.0294118 C18.8529412,19.3235294 18.7647059,19.7352941 18.4411765,19.9117647 C18.3823529,19.9411765 18.3529412,19.9705882 18.2941176,19.9705882 L18.2647059,19.9705882 L18.2647059,19.9705882 C18.2352941,19.9705882 18.1764706,20 18.1470588,20 L18.1176471,20 L18.1176471,20 C18.0588235,20 18.0294118,20 17.9705882,19.9705882 L17.9411765,19.9705882 L17.9411765,19.9705882 C17.9117647,19.9705882 17.8823529,19.9411765 17.8529412,19.9411765 C17.8529412,19.9411765 17.8235294,19.9411765 17.8235294,19.9117647 C17.7941176,19.8823529 17.7647059,19.8823529 17.7352941,19.8529412 L17.7058824,19.8235294 L17.7058824,19.8235294 C17.6764706,19.7941176 17.6470588,19.7647059 17.6176471,19.7058824 L16.9705882,18.7352941 L15.5882353,16.6764706 L14.9117647,18.3823529 C14.8823529,18.4411765 14.8529412,18.5 14.8235294,18.5294118 L14.8017429,18.5511983 C14.7973856,18.5555556 14.7941176,18.5588235 14.7941176,18.5588235 C14.7647059,18.5882353 14.7352941,18.6176471 14.7058824,18.6176471 C14.6764706,18.6176471 14.6764706,18.6470588 14.6470588,18.6470588 C14.6176471,18.6470588 14.5882353,18.6764706 14.5588235,18.6764706 L14.2647059,18.6764706 L14.2647059,18.6764706 C14.2352941,18.6764706 14.2058824,18.6470588 14.1764706,18.6176471 C14.1764706,18.6176471 14.1470588,18.6176471 14.1470588,18.5882353 C14.127451,18.5686275 14.0947712,18.5490196 14.0664488,18.5206972 L14.0294118,18.4705882 L14.0294118,18.4705882 C14,18.4117647 13.9705882,18.3529412 13.9411765,18.2941176 L13.4411765,16.4705882 L13.3235294,16.0588235 L12.1176471,11.2941176 C12.1176471,11.2352941 12.0882353,11.2058824 12.1176471,11.1470588 L12.1176471,11.1176471 L12.1176471,11.1176471 C12.1176471,11.0882353 12.1176471,11.0588235 12.1470588,11.0294118 L12.1470588,11 L12.1470588,11 C12.1666667,10.9803922 12.1732026,10.9607843 12.1840959,10.9324619 L12.2058824,10.8823529 L12.2058824,10.8823529 L12.2941176,10.7941176 L12.2941176,10.7941176 C12.2941176,10.7941176 12.3235294,10.7941176 12.3235294,10.7647059 C12.3529412,10.7352941 12.3823529,10.7352941 12.4117647,10.7352941 L12.4411765,10.7352941 L12.4411765,10.7352941 C12.4705882,10.7352941 12.5294118,10.7058824 12.5588235,10.7058824 L12.7352941,10.7058824 L12.7352941,10.7058824 Z M11.9117647,15.2941176 L12.6470588,18.1764706 C12.3235294,18.7647059 11.9411765,19.3529412 11.5294118,19.8823529 C11.0294118,19.9705882 10.5294118,20 10,20 C9.41176471,20 8.85294118,19.9411765 8.29411765,19.8529412 C7.32352941,18.5294118 6.58823529,16.9705882 6.08823529,15.2941176 L11.9117647,15.2941176 Z M4.88235294,15.2941176 C5.29411765,16.7647059 5.88235294,18.1470588 6.61764706,19.4117647 C4.47058824,18.6470588 2.70588235,17.1764706 1.52941176,15.2941176 L4.88235294,15.2941176 Z M11.0294118,10.5882353 C10.9117647,10.9117647 10.9117647,11.2352941 11,11.5882353 L11.6470588,14.1176471 L5.79411765,14.1176471 C5.52941176,12.9705882 5.41176471,11.7941176 5.35294118,10.5882353 L11.0294118,10.5882353 Z M4.20588235,10.5882353 C4.23529412,11.7941176 4.38235294,12.9705882 4.61764706,14.1176471 L0.882352941,14.1176471 C0.411764706,13.0294118 0.0882352941,11.8529412 0.0294117647,10.5882353 L4.20588235,10.5882353 Z M20,10.5882353 C19.9117647,11.7352941 19.6470588,12.8529412 19.2352941,13.8529412 L15.7941176,11.3823529 C15.8235294,11.1176471 15.8235294,10.8529412 15.8235294,10.5882353 L20,10.5882353 Z M14.2058824,5.88235294 C14.4705882,7.02941176 14.5882353,8.20588235 14.6470588,9.41176471 L5.35294118,9.41176471 C5.38235294,8.20588235 5.55882353,7.02941176 5.82352941,5.88235294 L14.2058824,5.88235294 Z M4.61764706,5.88235294 C4.38235294,7.02941176 4.20588235,8.20588235 4.17647059,9.41176471 L0.0294117647,9.41176471 C0.0882352941,8.14705882 0.411764706,6.97058824 0.882352941,5.88235294 L4.61764706,5.88235294 Z M19.1176471,5.88235294 C19.6176471,6.97058824 19.9117647,8.14705882 20,9.41176471 L15.8235294,9.41176471 C15.7941176,8.20588235 15.6470588,7.02941176 15.4117647,5.88235294 L19.1176471,5.88235294 Z M13.4117647,0.588235294 C15.5294118,1.35294118 17.2941176,2.82352941 18.4705882,4.70588235 L15.1470588,4.70588235 C14.7352941,3.23529412 14.1470588,1.85294118 13.4117647,0.588235294 Z M10,6.39488462e-13 C10.5882353,6.39488462e-13 11.1470588,0.0588235294 11.7058824,0.147058824 C12.6764706,1.47058824 13.4117647,3.02941176 13.9117647,4.70588235 L6.14705882,4.70588235 C6.67647059,3 7.44117647,1.47058824 8.47058824,0.117647059 C8.97058824,0.0294117647 9.47058824,6.39488462e-13 10,6.39488462e-13 Z M6.73529412,0.558823529 C5.97058824,1.82352941 5.35294118,3.23529412 4.91176471,4.70588235 L1.52941176,4.70588235 C2.73529412,2.79411765 4.55882353,1.29411765 6.73529412,0.558823529 Z" id="Combined-Shape"></path>
                </g>
            </g>
        </g>
    </g>
</svg>