<svg width="19px" height="25px" viewBox="0 0 19 25" version="1.1" xmlns="http://www.w3.org/2000/svg" xmlns:xlink="http://www.w3.org/1999/xlink">
    <g id="Talent-Mob-2020" stroke="none" stroke-width="1" fill="none" fill-rule="evenodd">
        <g id="Candidate_Web_Menu" transform="translate(-40.000000, -531.000000)" fill="#0A7BE0" fill-rule="nonzero">
            <g id="Group-28" transform="translate(0.000000, 87.000000)">
                <g id="noun_clipboard_2572283" transform="translate(40.000000, 444.000000)">
                    <path d="M11.234884,0.817082471 C11.6434252,1.1575335 11.8476958,1.63416494 11.9838762,2.17888659 L14.3670334,2.17888659 L14.3670334,3.4045103 L18.6567164,3.4045103 L18.6567164,24.9891056 L1.86517468e-13,24.9891056 L1.86517468e-13,3.4045103 L4.35777318,3.4045103 L4.35777318,2.17888659 L6.67284018,2.17888659 C6.80902059,1.63416494 7.01329121,1.1575335 7.42183244,0.817082471 C8.44318553,-0.272360824 10.2135309,-0.272360824 11.234884,0.817082471 Z M4.35777318,4.76631441 L1.36180412,4.76631441 L1.36180412,23.6273014 L17.2949123,23.6273014 L17.2949123,4.76631441 L14.3670334,4.76631441 L14.3670334,6.40047936 L4.35777318,6.40047936 L4.35777318,4.76631441 Z M13.6861314,18.5886262 L13.6861314,19.9504303 L5.03867524,19.9504303 L5.03867524,18.5886262 L13.6861314,18.5886262 Z M13.6861314,14.5713041 L13.6861314,15.9331082 L5.03867524,15.9331082 L5.03867524,14.5713041 L13.6861314,14.5713041 Z M13.6861314,10.5539819 L13.6861314,11.915786 L5.03867524,11.915786 L5.03867524,10.5539819 L13.6861314,10.5539819 Z M8.37509533,1.77034535 C7.83037368,2.24697679 7.96655409,2.92787885 8.0346443,3.54069071 L5.7195773,3.54069071 L5.7195773,5.03867524 L13.0052293,5.03867524 L13.0052293,3.54069071 L10.6220721,3.54069071 C10.6901623,2.85978865 10.8263427,2.24697679 10.2816211,1.77034535 C9.73689944,1.22562371 8.91981697,1.22562371 8.37509533,1.77034535 Z" id="Combined-Shape"></path>
                </g>
            </g>
        </g>
    </g>
</svg>