<?xml version="1.0" encoding="UTF-8"?>
<svg width="24px" height="14px" viewBox="0 0 24 14" version="1.1" xmlns="http://www.w3.org/2000/svg" xmlns:xlink="http://www.w3.org/1999/xlink">
    <!-- Generator: Sketch 57.1 (83088) - https://sketch.com -->
    <title>noun_Location to Location_1940472 2</title>
    <desc>Created with Sketch.</desc>
    <g id="Page-1" stroke="none" stroke-width="1" fill="none" fill-rule="evenodd">
        <g id="noun_Location-to-Location_1940472-2" fill="#4C5459" fill-rule="nonzero" stroke="#FFFFFF" stroke-width="0.25">
            <g id="noun_Location-to-Location_1940472" transform="translate(1.000000, 0.000000)">
                <g id="Group">
                    <path d="M4.02661064,11.4064857 C3.92594538,11.4064857 3.72461485,11.3027903 3.62394958,11.199095 C3.22128852,10.7843137 -2.83723662e-16,7.05128205 -2.83723662e-16,4.97737557 C-2.83723662e-16,2.69607843 1.81197479,0.72586727 4.02661064,0.72586727 C6.2412465,0.72586727 8.05322129,2.59238311 8.05322129,4.97737557 C8.05322129,7.05128205 4.73126751,10.7843137 4.42927171,11.199095 C4.32860644,11.3027903 4.12727591,11.4064857 4.02661064,11.4064857 Z M4.02661064,1.76282051 C2.41596639,1.76282051 1.00665266,3.21455505 1.00665266,4.97737557 C1.00665266,6.22171946 2.91929272,8.81410256 4.02661064,10.0584465 C5.13392857,8.81410256 7.04656863,6.22171946 7.04656863,4.97737557 C7.04656863,3.21455505 5.73792017,1.76282051 4.02661064,1.76282051 Z" id="Shape"></path>
                    <path d="M4.02661064,6.53280543 C3.01995798,6.53280543 2.21463585,5.70324284 2.21463585,4.76998492 C2.21463585,3.836727 3.01995798,3.0071644 4.02661064,3.0071644 C5.03326331,3.0071644 5.83858543,3.836727 5.83858543,4.76998492 C5.83858543,5.70324284 5.03326331,6.53280543 4.02661064,6.53280543 Z M4.02661064,4.04411765 C3.62394958,4.04411765 3.22128852,4.35520362 3.22128852,4.76998492 C3.22128852,5.18476621 3.62394958,5.49585219 4.02661064,5.49585219 C4.42927171,5.49585219 4.83193277,5.18476621 4.83193277,4.76998492 C4.83193277,4.35520362 4.42927171,4.04411765 4.02661064,4.04411765 Z" id="Shape"></path>
                </g>
                <g id="Group" transform="translate(14.093137, 0.000000)">
                    <path d="M4.02661064,11.4064857 C3.92594538,11.4064857 3.72461485,11.3027903 3.62394958,11.199095 C3.22128852,10.7843137 1.13489465e-15,7.05128205 1.13489465e-15,4.97737557 C1.13489465e-15,2.69607843 1.81197479,0.829562594 4.02661064,0.829562594 C6.2412465,0.829562594 8.05322129,2.69607843 8.05322129,4.97737557 C8.05322129,7.05128205 4.73126751,10.7843137 4.42927171,11.199095 C4.32860644,11.3027903 4.12727591,11.4064857 4.02661064,11.4064857 Z M4.02661064,1.86651584 C2.41596639,1.86651584 1.00665266,3.31825038 1.00665266,4.97737557 C1.00665266,6.22171946 2.91929272,8.81410256 4.02661064,10.0584465 C5.13392857,8.81410256 7.04656863,6.22171946 7.04656863,4.97737557 C7.04656863,3.21455505 5.73792017,1.86651584 4.02661064,1.86651584 Z" id="Shape"></path>
                    <path d="M4.02661064,6.53280543 C3.01995798,6.53280543 2.21463585,5.70324284 2.21463585,4.76998492 C2.21463585,3.836727 3.01995798,3.0071644 4.02661064,3.0071644 C5.03326331,3.0071644 5.83858543,3.836727 5.83858543,4.76998492 C5.83858543,5.70324284 5.03326331,6.53280543 4.02661064,6.53280543 Z M4.02661064,4.04411765 C3.62394958,4.04411765 3.22128852,4.35520362 3.22128852,4.76998492 C3.22128852,5.18476621 3.62394958,5.49585219 4.02661064,5.49585219 C4.42927171,5.49585219 4.83193277,5.18476621 4.83193277,4.76998492 C4.83193277,4.35520362 4.42927171,4.04411765 4.02661064,4.04411765 Z" id="Shape"></path>
                </g>
                <path d="M18.1197479,13.7914781 L4.02661064,13.7914781 C3.72461485,13.7914781 3.52328431,13.5840875 3.52328431,13.2730015 C3.52328431,12.9619155 3.72461485,12.7545249 4.02661064,12.7545249 L18.1197479,12.7545249 C18.4217437,12.7545249 18.6230742,12.9619155 18.6230742,13.2730015 C18.6230742,13.5840875 18.4217437,13.7914781 18.1197479,13.7914781 Z" id="Path"></path>
            </g>
        </g>
    </g>
</svg>