<?xml version="1.0" encoding="UTF-8"?>
<svg width="22px" height="16px" viewBox="0 0 22 16" version="1.1" xmlns="http://www.w3.org/2000/svg" xmlns:xlink="http://www.w3.org/1999/xlink">
    <!-- Generator: Sketch 57.1 (83088) - https://sketch.com -->
    <title>noun_Travel_152356 2</title>
    <desc>Created with Sketch.</desc>
    <g id="Page-1" stroke="none" stroke-width="1" fill="none" fill-rule="evenodd">
        <g id="noun_Travel_152356-2" fill-rule="nonzero">
            <g id="noun_Travel_152356">
                <g id="Group">
                    <path d="M10.4761905,15.8666667 C6.20714286,15.8666667 2.75,12.3466667 2.75,8 C2.75,3.65333333 6.20714286,0.133333333 10.4761905,0.133333333 C12.2571429,0.133333333 14.0119048,0.773333333 15.4,1.92 C16.2642857,2.64 16.9714286,3.57333333 17.4428571,4.58666667 C17.547619,4.77333333 17.4428571,5.01333333 17.2595238,5.12 C17.0761905,5.22666667 16.8404762,5.12 16.7357143,4.93333333 C16.2904762,4.02666667 15.6619048,3.2 14.902381,2.53333333 C13.6714286,1.49333333 12.1,0.906666667 10.4761905,0.906666667 C6.65238095,0.906666667 3.53571429,4.08 3.53571429,7.97333333 C3.53571429,11.8666667 6.65238095,15.0666667 10.4761905,15.0666667 C13.1738095,15.0666667 15.6357143,13.4666667 16.7880952,10.96 C16.8666667,10.7466667 17.102381,10.6666667 17.3119048,10.7733333 C17.5214286,10.8533333 17.6,11.0933333 17.4952381,11.3066667 C16.2380952,14.08 13.4880952,15.8666667 10.4761905,15.8666667 Z" id="Path" fill="#4C5459"></path>
                    <path d="M4.63571429,13.0933333 C2.33095238,13.0933333 0.707142857,12.4533333 0.261904762,11.2533333 C-0.20952381,9.94666667 0.733333333,8.26666667 2.93333333,6.58666667 C3.11666667,6.45333333 3.35238095,6.48 3.48333333,6.66666667 C3.61428571,6.85333333 3.58809524,7.09333333 3.4047619,7.22666667 C1.57142857,8.64 0.680952381,10.0533333 0.995238095,10.9866667 C1.51904762,12.4266667 5.13333333,12.9333333 10.3190476,11.3066667 C10.5285714,11.2533333 10.7380952,11.36 10.8166667,11.5733333 C10.8690476,11.7866667 10.7642857,12 10.5547619,12.08 C8.3547619,12.7733333 6.31190476,13.0933333 4.63571429,13.0933333 Z" id="Path" fill="#4C5459"></path>
                    <path d="M20.3238095,4.21333333 C20.1666667,4.21333333 20.0095238,4.10666667 19.9571429,3.94666667 C19.6166667,3.01333333 18.0452381,2.53333333 15.7404762,2.64 L15.1380952,2.64 C14.9285714,2.64 14.7452381,2.45333333 14.7452381,2.24 C14.7452381,2.02666667 14.9285714,1.84 15.1380952,1.84 L15.7142857,1.84 C18.4380952,1.70666667 20.2190476,2.34666667 20.6904762,3.68 C20.7690476,3.89333333 20.6642857,4.10666667 20.4547619,4.18666667 C20.402381,4.21333333 20.3761905,4.21333333 20.3238095,4.21333333 Z" id="Path" fill="#4C5459"></path>
                    <g transform="translate(8.119048, 10.133333)" fill="#4855B5" id="Path">
                        <path d="M2.35714286,1.89333333 C2.3047619,1.89333333 2.25238095,1.89333333 2.2,1.86666667 L0.288095238,0.96 C0.0785714286,0.88 6.9388939e-18,0.64 0.104761905,0.426666667 C0.20952381,0.213333333 0.419047619,0.133333333 0.628571429,0.24 L2.54047619,1.14666667 C2.75,1.22666667 2.82857143,1.46666667 2.72380952,1.68 C2.6452381,1.81333333 2.51428571,1.89333333 2.35714286,1.89333333 Z"></path>
                        <path d="M1.46666667,3.84 C1.41428571,3.84 1.36190476,3.84 1.30952381,3.81333333 C1.1,3.73333333 1.02142857,3.49333333 1.12619048,3.28 L2.01666667,1.33333333 C2.12142857,1.12 2.33095238,1.04 2.54047619,1.14666667 C2.75,1.22666667 2.82857143,1.46666667 2.72380952,1.68 L1.83333333,3.6 C1.7547619,3.76 1.62380952,3.84 1.46666667,3.84 Z"></path>
                    </g>
                </g>
                <path d="M12.7285714,11.2 C12.6761905,11.2 12.6238095,11.2 12.5714286,11.1733333 L9.42857143,9.70666667 C9.27142857,9.62666667 9.16666667,9.44 9.21904762,9.25333333 C9.27142857,9.06666667 9.40238095,8.93333333 9.58571429,8.93333333 L12.702381,8.82666667 L13.8285714,8.13333333 L12.0738095,6.21333333 C11.9952381,6.13333333 11.9690476,6.02666667 11.9690476,5.92 C11.9690476,5.81333333 12.0214286,5.70666667 12.1,5.62666667 C12.152381,5.6 12.5452381,5.25333333 13.3309524,5.25333333 C14.3,5.25333333 15.4261905,5.76 16.6833333,6.72 L19.3547619,5.46666667 C19.5119048,5.38666667 19.747619,5.36 20.0095238,5.36 C20.5071429,5.36 21.4238095,5.49333333 21.6595238,6.05333333 C21.7642857,6.29333333 21.8690476,6.72 21.397619,7.12 C21.1619048,7.30666667 20.7952381,7.49333333 20.35,7.70666667 L12.8857143,11.1733333 C12.8333333,11.2 12.7809524,11.2 12.7285714,11.2 Z M11.2619048,9.68 L12.7285714,10.3466667 L19.9833333,6.98666667 C20.3761905,6.8 20.8738095,6.58666667 20.9261905,6.45333333 C20.9261905,6.45333333 20.9261905,6.42666667 20.9,6.4 C20.847619,6.32 20.4547619,6.18666667 19.9571429,6.18666667 C19.7738095,6.18666667 19.6690476,6.21333333 19.6166667,6.24 L16.7357143,7.57333333 C16.6047619,7.62666667 16.447619,7.62666667 16.3166667,7.52 C14.85,6.32 13.8547619,6.08 13.2785714,6.08 C13.1738095,6.08 13.0690476,6.08 12.9642857,6.10666667 L14.6666667,7.94666667 C14.7452381,8.02666667 14.797619,8.16 14.7714286,8.26666667 C14.7452381,8.37333333 14.6928571,8.48 14.5880952,8.56 L12.9642857,9.57333333 C12.9119048,9.6 12.8333333,9.62666667 12.7809524,9.62666667 L11.2619048,9.68 Z" id="Shape" fill="#4C5459"></path>
            </g>
        </g>
    </g>
</svg>