<?xml version="1.0" encoding="UTF-8"?>
<svg width="21px" height="20px" viewBox="0 0 21 20" version="1.1" xmlns="http://www.w3.org/2000/svg" xmlns:xlink="http://www.w3.org/1999/xlink">
    <!-- Generator: Sketch 63.1 (92452) - https://sketch.com -->
    <title>noun_User_186901</title>
    <desc>Created with Sketch.</desc>
    <g id="Talent--Mob-Admin" stroke="none" stroke-width="1" fill="none" fill-rule="evenodd">
        <g id="1-Tal_Web_Admin_BrandProfile" transform="translate(-27.000000, -341.000000)" fill="#515468" fill-rule="nonzero">
            <g id="noun_User_186901" transform="translate(27.000000, 341.000000)">
                <path d="M10.4347826,10.5869565 C8.2826087,10.5869565 6.52173913,8.82608696 6.52173913,6.67391304 C6.52173913,4.52173913 8.2826087,2.76086957 10.4347826,2.76086957 C12.5869565,2.76086957 14.3478261,4.52173913 14.3478261,6.67391304 C14.3478261,8.82608696 12.5869565,10.5869565 10.4347826,10.5869565 Z M10.4347826,4.30434783 C9.13043478,4.30434783 8.06521739,5.36956522 8.06521739,6.67391304 C8.06521739,7.97826087 9.13043478,9.04347826 10.4347826,9.04347826 C11.7391304,9.04347826 12.8043478,7.97826087 12.8043478,6.67391304 C12.8043478,5.36956522 11.7391304,4.30434783 10.4347826,4.30434783 Z" id="Shape"></path>
                <path d="M15.7173913,13.173913 L10.4347826,17 L5.15217391,13.173913 C6.26086957,12.1304348 8.2173913,11.4347826 10.4347826,11.4347826 C12.6521739,11.4347826 14.6086957,12.1304348 15.7173913,13.173913 Z" id="Path"></path>
                <path d="M10.4347826,19.8478261 C10.2826087,19.8478261 10.1086957,19.8043478 9.97826087,19.6956522 L0.434782609,12.7608696 C0.173913043,12.5652174 0.0434782609,12.2173913 0.152173913,11.8913043 L3.80434783,0.673913043 C3.91304348,0.347826087 4.19565217,0.152173913 4.54347826,0.152173913 L16.3478261,0.152173913 C16.673913,0.152173913 16.9782609,0.369565217 17.0869565,0.673913043 L20.7391304,11.9130435 C20.8478261,12.2391304 20.7391304,12.5869565 20.4565217,12.7826087 L10.8913043,19.7173913 C10.7608696,19.8043478 10.5869565,19.8478261 10.4347826,19.8478261 Z M1.7826087,11.8478261 L10.4347826,18.1304348 L19.0869565,11.8478261 L15.7826087,1.67391304 L5.08695652,1.67391304 L1.7826087,11.8478261 Z" id="Shape"></path>
            </g>
        </g>
    </g>
</svg>