<?xml version="1.0" encoding="UTF-8"?>
<svg width="15px" height="15px" viewBox="0 0 15 15" version="1.1" xmlns="http://www.w3.org/2000/svg" xmlns:xlink="http://www.w3.org/1999/xlink">
    <!-- Generator: Sketch 63.1 (92452) - https://sketch.com -->
    <title>noun_Info_1585217</title>
    <desc>Created with Sketch.</desc>
    <g id="Talent-Mob-2020" stroke="none" stroke-width="1" fill="none" fill-rule="evenodd">
        <g id="Candidate_Web_Menu" transform="translate(-42.000000, -729.000000)" fill="#515468" fill-rule="nonzero">
            <g id="Group-28" transform="translate(0.000000, 87.000000)">
                <g id="Group-23" transform="translate(42.000000, 642.000000)">
                    <g id="noun_Info_1585217">
                        <path d="M8.1528,6.0225 L6.5169,6.0225 L6.5169,6.9939 L6.8466,6.9939 L6.8466,10.4781 L6.5169,10.4781 L6.5169,11.4495 L8.4834,11.4495 L8.4834,10.4781 L8.1528,10.4781 L8.1528,6.0225 Z M15,7.5 C15,3.3579 11.6421,0 7.5,0 C3.3579,0 0,3.3579 0,7.5 C0,11.6421 3.3579,15 7.5,15 C11.6421,15 15,11.6421 15,7.5 Z M7.5,0.849 C11.1738,0.849 14.151,3.8262 14.151,7.5 C14.151,11.1738 11.1738,14.151 7.5,14.151 C3.8262,14.151 0.849,11.1738 0.849,7.5 C0.849,3.8262 3.8262,0.849 7.5,0.849 Z M6.7422,4.3089 C6.7422,4.7271 7.0815,5.0661 7.5,5.0661 C7.9179,5.0661 8.2572,4.7271 8.2572,4.3089 C8.2572,3.8904 7.9179,3.5510998 7.5,3.5510998 C7.0815,3.5508 6.7422,3.8901 6.7422,4.3089 Z" id="Shape"></path>
                    </g>
                </g>
            </g>
        </g>
    </g>
</svg>