<svg width="16px" height="13px" viewBox="0 0 16 13" version="1.1" xmlns="http://www.w3.org/2000/svg" xmlns:xlink="http://www.w3.org/1999/xlink">
    <g id="Talent-Mob-2020" stroke="none" stroke-width="1" fill="none" fill-rule="evenodd">
        <g id="Candidate_Web_Menu" transform="translate(-42.000000, -824.000000)" fill="#515468" fill-rule="nonzero" stroke="#FFFFFF" stroke-width="0.7">
            <g id="Group-28" transform="translate(0.000000, 87.000000)">
                <g id="Group-21" transform="translate(43.000000, 737.000000)">
                    <g id="noun_logout_1350650" transform="translate(0.000000, 0.424242)">
                        <path d="M7.51400601,-0.84625592 L9.49474107,1.09871304 C10.2917792,1.89860304 9.09611634,3.09854408 8.29907822,2.29865408 L8.2912063,2.29065811 C8.04579158,2.04137557 7.84554521,2.12329899 7.84554521,2.47526612 L7.84554521,8.6985716 C7.84554521,9.1658683 7.46481118,9.54545455 6.99515195,9.54545455 L7.00505941,9.54545455 C6.53413242,9.54545455 6.15466615,9.16629212 6.15466615,8.6985716 L6.15466615,2.47526612 C6.15466615,2.12142743 5.9550439,2.04064717 5.70879737,2.29065811 L5.70092178,2.29865408 C4.90388366,3.09854408 3.70822079,1.89860304 4.50525893,1.09871304 L6.45893218,-0.843244308 C6.74927133,-1.13184234 7.22171893,-1.13326519 7.51400601,-0.84625592 Z M2.80021426,2.80021426 C3.13156822,2.46886033 3.6687991,2.46886033 4.00015306,2.80021426 C4.33150699,3.13156822 4.33150699,3.6687991 4.00015306,4.00015306 C2.34338332,5.65692277 2.34338332,8.34307723 4.00015306,9.99984695 C5.65692277,11.6566167 8.34307723,11.6566167 9.99984695,9.99984695 C11.6566167,8.34307723 11.6566167,5.65692277 9.99984695,4.00015306 C9.66849302,3.6687991 9.66849302,3.13156822 9.99984695,2.80021426 C10.3312009,2.46886033 10.8684318,2.46886033 11.1997857,2.80021426 C13.5192633,5.11969188 13.5192633,8.88030812 11.1997857,11.1997857 C8.88030812,13.5192633 5.11969188,13.5192633 2.80021426,11.1997857 C0.480736668,8.88030812 0.480736668,5.11969188 2.80021426,2.80021426 Z" id="Shape" transform="translate(7.000000, 5.939394) rotate(90.000000) translate(-7.000000, -5.939394) "></path>
                    </g>
                </g>
            </g>
        </g>
    </g>
</svg>