<?xml version="1.0" encoding="UTF-8"?>
<svg width="13px" height="12px" viewBox="0 0 13 12" version="1.1" xmlns="http://www.w3.org/2000/svg" xmlns:xlink="http://www.w3.org/1999/xlink">
    <!-- Generator: Sketch 63.1 (92452) - https://sketch.com -->
    <title>noun_Phone_850924 (1)</title>
    <desc>Created with Sketch.</desc>
    <g id="Page-1" stroke="none" stroke-width="1" fill="none" fill-rule="evenodd">
        <g id="Candidate_Web_Dashboard_Expanded" transform="translate(-450.000000, -543.000000)" fill="#0080FF" fill-rule="nonzero">
            <g id="Group-4" transform="translate(426.000000, 261.000000)">
                <g id="noun_Phone_850924-(1)" transform="translate(24.000000, 282.000000)">
                    <path d="M3.02509154,5.09370989 C4.29968892,7.15979428 5.14943059,7.98628554 7.27377266,9.22590894 L8.97324541,7.57303234 C9.84113312,7.78867824 10.9367383,8.0846806 11.8161226,8.08118487 C12.1092497,8.07891491 12.4011873,8.36400635 12.4090974,8.63634063 L12.3893397,11.2149207 C12.388129,11.5000878 12.0938397,11.7863445 11.795121,11.8037762 C4.47252645,11.8163079 0.239388484,7.69913601 0.00141522033,0.563531435 C-0.0228899635,0.287816432 0.271441787,0.00155067006 0.564561305,0.000370292542 L3.46835811,0.000370292542 C3.78897437,-0.0116756114 4.08091805,0.272258148 4.15049676,0.445679819 C4.07616325,1.41274345 4.49777442,2.59236583 4.72457337,3.44136598 L3.02509154,5.09370989 Z" id="Path"></path>
                </g>
            </g>
        </g>
    </g>
</svg>