<svg width="14px" height="16px" viewBox="0 0 14 16" version="1.1" xmlns="http://www.w3.org/2000/svg" xmlns:xlink="http://www.w3.org/1999/xlink">
    <g id="Talent-Mob-2020" stroke="none" stroke-width="1" fill="none" fill-rule="evenodd">
        <g id="Candidate_Web_Menu" transform="translate(-42.000000, -776.000000)" fill="#515468" fill-rule="nonzero">
            <g id="Group-28" transform="translate(0.000000, 87.000000)">
                <g id="Group-22" transform="translate(42.000000, 689.500000)">
                    <g id="noun_Share_3107227">
                        <path d="M9.3424765,4.8569044 C9.82455864,5.24957161 10.4272714,5.46404055 11.0490355,5.46416537 C11.1424603,5.46416537 11.2389992,5.46416537 11.3355382,5.44859458 C12.8251364,5.29165805 13.9063749,3.9582235 13.7521254,2.46834458 C13.5964742,0.976329215 12.2607766,-0.107008009 10.7687612,0.048643161 C9.27674589,0.204294331 8.19340867,1.53999196 8.34905984,3.03200732 C8.36905375,3.23140775 8.41189493,3.42785021 8.47674035,3.61746919 L6.8916335,4.48009118 C6.70299686,4.58189992 6.60786118,4.79903069 6.66088944,5.00672471 C6.7139177,5.21441873 6.90149895,5.35936646 7.11585294,5.35828397 C7.19399848,5.35778662 7.27088637,5.33856465 7.34007237,5.30222911 L8.92517922,4.43960712 C9.04967413,4.59258153 9.18950209,4.7324095 9.3424765,4.8569044 L9.3424765,4.8569044 Z M10.862186,0.970434176 C10.9244692,0.970434176 10.9867524,0.970434176 11.0490355,0.970434176 C11.9589312,0.973203712 12.7210165,1.66015389 12.8178778,2.5648835 L12.8178778,2.5648835 C12.9094246,3.40996682 12.3900662,4.20166186 11.5784357,4.45425343 C10.7668051,4.70684499 9.88990622,4.34968611 9.48572781,3.60189839 L9.48572781,3.60189839 L9.48572781,3.60189839 C9.37328675,3.39798988 9.3033661,3.1733963 9.28019333,2.94169672 C9.22693966,2.4701962 9.36400518,1.99693468 9.66099196,1.62687044 C9.95797874,1.25680621 10.3903392,1.02052706 10.862186,0.970434176 Z" id="Shape"></path>
                        <path d="M10.7313913,9.44094441 C9.63248954,9.43968672 8.6411506,10.1008463 8.22003707,11.1158587 C7.79892355,12.1308711 8.0310562,13.2996308 8.80809762,14.0766723 C9.58513905,14.8537137 10.7538988,15.0858463 11.7689112,14.6647328 C12.7839236,14.2436193 13.4450832,13.2522804 13.4438255,12.1533786 C13.4421076,10.656055 12.2287149,9.44266234 10.7313913,9.44094441 Z M10.7313913,13.9346801 C10.0106412,13.9359375 9.36015981,13.5027377 9.08346711,12.8372127 C8.80677441,12.1716877 8.95840514,11.4050091 9.46760718,10.8949152 C9.97680923,10.3848214 10.7432213,10.2318494 11.4092295,10.5073772 C12.0752377,10.7829049 12.509576,11.4326273 12.509576,12.1533786 C12.509576,13.1359479 11.7139592,13.9329596 10.7313913,13.9346801 L10.7313913,13.9346801 Z" id="Shape"></path>
                        <path d="M7.05668392,9.75859041 L5.22244437,8.593895 C5.32443661,8.34753893 5.38848576,8.08714238 5.41240805,7.82158361 C5.53342518,6.34769306 4.45150142,5.0484968 2.98004924,4.90075723 C1.50859705,4.75301766 0.189984171,5.81119061 0.0155707942,7.27971997 C-0.0583793826,7.99555439 0.155501048,8.71139939 0.610028704,9.26933501 C1.06455636,9.82727063 1.72238245,10.181451 2.43838637,10.2537417 C2.53181113,10.2537417 2.6252359,10.2537417 2.71866066,10.2537417 C3.34358894,10.2509778 3.94806632,10.0307675 4.42833386,9.63090989 C4.53082465,9.54495012 4.62757095,9.45236495 4.71795063,9.35374976 L6.55841851,10.5184452 C6.63248946,10.5669227 6.71902729,10.592884 6.80755121,10.5931853 C7.0158274,10.5934372 7.1991088,10.455772 7.25689892,10.2556736 C7.31468905,10.0555753 7.2330247,9.8413915 7.05668392,9.73056298 L7.05668392,9.75859041 Z M2.53181113,9.32572233 C1.60039103,9.21596965 0.913613843,8.40280484 0.961268099,7.46615222 C1.00892236,6.5294996 1.77468275,5.79023583 2.71243234,5.77558126 L2.89616772,5.77558126 C3.8765121,5.87619555 4.58967425,6.7524857 4.48905996,7.73283009 C4.38844567,8.71317447 3.51215552,9.42633662 2.53181113,9.32572233 L2.53181113,9.32572233 Z" id="Shape"></path>
                    </g>
                </g>
            </g>
        </g>
    </g>
</svg>