<?xml version="1.0" encoding="UTF-8"?>
<svg width="19px" height="16px" viewBox="0 0 19 16" version="1.1" xmlns="http://www.w3.org/2000/svg" xmlns:xlink="http://www.w3.org/1999/xlink">
    <!-- Generator: Sketch 57.1 (83088) - https://sketch.com -->
    <title>noun_Video Call_126081 2</title>
    <desc>Created with Sketch.</desc>
    <g id="Page-1" stroke="none" stroke-width="1" fill="none" fill-rule="evenodd">
        <g id="noun_Video-Call_126081-2" fill="#4C5459" fill-rule="nonzero">
            <g id="noun_Video-Call_126081" transform="translate(1.000000, 1.000000)">
                <path d="M13.8428571,11.6122449 L14.1642857,11.6122449 L16.2857143,11.6122449 C16.5642857,11.6122449 16.8,11.3877551 16.8,11.122449 L16.8,1.46938776 C16.8,1.20408163 16.5642857,0.979591837 16.2857143,0.979591837 L1.54285714,0.979591837 C1.26428571,0.979591837 1.02857143,1.20408163 1.02857143,1.46938776 L1.02857143,11.1428571 C1.02857143,11.4081633 1.26428571,11.6326531 1.54285714,11.6326531 L3.85714286,11.6326531 L4.17857143,11.6326531 L13.8428571,11.6122449 Z M17.8285714,1.46938776 L17.8285714,11.1428571 C17.8285714,11.9387755 17.1428571,12.6122449 16.2857143,12.6122449 L14.1642857,12.6122449 L13.0928571,12.6122449 L10.8428571,12.6122449 L10.8428571,14.1020408 L13.1142857,14.1020408 C13.2214286,14.1020408 13.3071429,14.1836735 13.3071429,14.2857143 L13.3071429,14.5714286 C13.3071429,14.6734694 13.2214286,14.755102 13.1142857,14.755102 L4.71428571,14.755102 C4.60714286,14.755102 4.52142857,14.6734694 4.52142857,14.5714286 L4.52142857,14.2653061 C4.52142857,14.1632653 4.60714286,14.0816327 4.71428571,14.0816327 L6.98571429,14.0816327 L6.98571429,12.5918367 L4.90714286,12.5918367 L3.83571429,12.5918367 L1.54285714,12.5918367 C0.707142857,12.5918367 3.65421978e-14,11.9387755 3.65421978e-14,11.122449 L3.65421978e-14,1.46938776 C3.65421978e-14,0.653061224 0.685714286,-1.77635684e-14 1.54285714,-1.77635684e-14 L16.3071429,-1.77635684e-14 C17.1428571,-1.77635684e-14 17.8285714,0.653061224 17.8285714,1.46938776 Z" id="Shape" stroke="#FFFFFF" stroke-width="0.2"></path>
                <path d="M8.99131274,2.78571429 C10.4849771,2.78571429 11.7,3.94455978 11.7,5.35714286 C11.7,6.77586367 10.4785209,7.92857143 8.99131274,7.92857143 C7.51177131,7.92857143 6.3,6.76664674 6.3,5.35714286 C6.3,3.93109974 7.49445459,2.78571429 8.99131274,2.78571429 Z M8.99131274,3.64285714 C7.99289447,3.64285714 7.2,4.40317888 7.2,5.35714286 C7.2,6.29455676 8.01019964,7.07142857 8.99131274,7.07142857 C9.98330039,7.07142857 10.8,6.30071055 10.8,5.35714286 C10.8,4.41766842 9.98762816,3.64285714 8.99131274,3.64285714 Z" id="Path"></path>
                <path d="M3.71960706,11.9283909 C7.34462923,8.30737437 10.5994088,8.30737437 13.7534222,11.9072304 L14.444449,11.3580757 C10.9368239,7.35462228 7.05492402,7.35462228 3.06822574,11.3369152 L3.71960706,11.9283909 Z" id="Path-2"></path>
            </g>
        </g>
    </g>
</svg>