<?xml version="1.0" encoding="UTF-8"?>
<svg width="12px" height="12px" viewBox="0 0 12 12" version="1.1" xmlns="http://www.w3.org/2000/svg" xmlns:xlink="http://www.w3.org/1999/xlink">
    <!-- Generator: Sketch 63.1 (92452) - https://sketch.com -->
    <title>noun_Info_1845673</title>
    <desc>Created with Sketch.</desc>
    <g id="Talent-Mob-2020" stroke="none" stroke-width="1" fill="none" fill-rule="evenodd">
        <g id="Tal_Web_MyRedep" transform="translate(-645.000000, -242.000000)" fill="#515468" fill-rule="nonzero">
            <g id="noun_Info_1845673" transform="translate(645.000000, 242.000000)">
                <path d="M6.03821491,11.8835154 C3.63464166,11.884386 1.46729582,10.4370637 0.547085749,8.21661811 C-0.373124318,5.99617252 0.135082942,3.44003184 1.834666,1.74044878 C3.53424906,0.0408657147 6.09038975,-0.467341546 8.31083533,0.452868521 C10.5312809,1.37307859 11.9786032,3.54042443 11.9777326,5.94399769 C11.9729878,9.22233532 9.31655255,11.8787706 6.03821491,11.8835154 Z M6.03821491,0.863750214 C3.98325105,0.862879557 2.1301478,2.10008955 1.3431435,3.99837864 C0.556139195,5.89666773 0.990251833,8.08212567 2.44302276,9.5355127 C3.89579369,10.9888997 6.08106738,11.423939 7.97968998,10.6377396 C9.87831259,9.85154024 11.1163084,7.99896174 11.1163084,5.94399769 C11.1139354,3.14007884 8.84213251,0.867312465 6.03821491,0.863750214 Z" id="Shape"></path>
                <circle id="Oval" cx="6.03821491" cy="3.9196517" r="1"></circle>
                <rect id="Rectangle" x="5.50197858" y="5.13856641" width="1.06816554" height="3.51676277"></rect>
            </g>
        </g>
    </g>
</svg>