<?xml version="1.0" encoding="UTF-8"?>
<svg width="12px" height="15px" viewBox="0 0 12 15" version="1.1" xmlns="http://www.w3.org/2000/svg" xmlns:xlink="http://www.w3.org/1999/xlink">
    <!-- Generator: Sketch 63.1 (92452) - https://sketch.com -->
    <title>noun_copy_2757462</title>
    <desc>Created with Sketch.</desc>
    <g id="Page-1" stroke="none" stroke-width="1" fill="none" fill-rule="evenodd">
        <g id="Candidate_Web_Dashboard_Expanded" transform="translate(-576.000000, -542.000000)" fill="#ACAEC1">
            <g id="Group-4" transform="translate(426.000000, 261.000000)">
                <g id="noun_copy_2757462" transform="translate(150.000000, 281.000000)">
                    <path d="M4.05393188,0.0362420497 C3.33391553,0.0362420497 2.73881406,0.631297089 2.73881406,1.35131263 C2.7363483,1.52916053 2.8297883,1.69458577 2.98340357,1.78424375 C3.13701884,1.87390173 3.32700974,1.87390173 3.480625,1.78424375 C3.63424027,1.69458577 3.72768027,1.52916053 3.72516498,1.35131263 C3.72516498,1.16064426 3.86326332,1.02254343 4.05393188,1.02254343 L10.6292742,1.02254343 C10.8199432,1.02254343 10.9580416,1.16064426 10.9580416,1.35131263 L10.9580416,10.5567881 C10.9580416,10.7474564 10.8199432,10.8855573 10.6292742,10.8855573 C10.4514263,10.883042 10.2860011,10.976482 10.1963431,11.1300972 C10.1066851,11.2837125 10.1066851,11.4737034 10.1963431,11.6273187 C10.2860011,11.7809339 10.4514263,11.8743739 10.6292742,11.8719082 C11.349291,11.8719082 11.9443429,11.2768036 11.9443429,10.5567881 L11.9443429,1.35131263 C11.9443429,0.631297089 11.349291,0.0362420497 10.6292742,0.0362420497 L4.05393188,0.0362420497 Z M1.42379488,2.666377 C0.703778094,2.666377 0.108726161,3.26143204 0.108726161,3.98144758 L0.108726161,13.1869292 C0.108726161,13.9069448 0.703778094,14.5019936 1.42379488,14.5019936 L7.99913741,14.5019936 C8.71915419,14.5019936 9.31420612,13.9069448 9.31420612,13.1869292 L9.31420612,3.98144758 C9.31420612,3.26143204 8.71915419,2.666377 7.99913741,2.666377 L1.42379488,2.666377 Z M1.42379488,3.65267838 L7.99913741,3.65267838 C8.18980577,3.65267838 8.32790474,3.79077921 8.32790474,3.98144758 L8.32790474,13.1869292 C8.32790474,13.3775976 8.18980577,13.5156922 7.99913741,13.5156922 L1.42379488,13.5156922 C1.23312651,13.5156922 1.09502754,13.3775976 1.09502754,13.1869292 L1.09502754,3.98144758 C1.09502754,3.79077921 1.23312651,3.65267838 1.42379488,3.65267838 Z" id="Shape"></path>
                </g>
            </g>
        </g>
    </g>
</svg>