<svg width="15px" height="16px" viewBox="0 0 15 16" version="1.1" xmlns="http://www.w3.org/2000/svg" xmlns:xlink="http://www.w3.org/1999/xlink">
    <g id="Talent-Mob-2020" stroke="none" stroke-width="1" fill="none" fill-rule="evenodd">
        <g id="Candidate_Web_Menu" transform="translate(-42.000000, -681.000000)" fill="#515468" fill-rule="nonzero">
            <g id="Group-28" transform="translate(0.000000, 87.000000)">
                <g id="Group-24" transform="translate(42.000000, 594.500000)">
                    <g id="noun_Settings_3105002">
                        <path d="M0.763392857,12.0401786 C0.611607143,12.0401786 0.491071429,12.09375 0.401785714,12.2008929 C0.303571429,12.2991071 0.254464286,12.4196429 0.254464286,12.5625 C0.254464286,12.7053571 0.303571429,12.8258929 0.401785714,12.9241071 C0.491071429,13.03125 0.611607143,13.0848214 0.763392857,13.0848214 L8.59821429,13.0848214 C8.72321429,13.5401786 8.96875,13.9151786 9.33482143,14.2098214 C9.70982143,14.4955357 10.1339286,14.6383929 10.6071429,14.6383929 C11.0714286,14.6383929 11.4910714,14.4955357 11.8660714,14.2098214 C12.2410714,13.9151786 12.4910714,13.5401786 12.6160714,13.0848214 L14.2366071,13.0848214 C14.3794643,13.0848214 14.5,13.03125 14.5982143,12.9241071 C14.7053571,12.8258929 14.7589286,12.7053571 14.7589286,12.5625 C14.7589286,12.4196429 14.7053571,12.2991071 14.5982143,12.2008929 C14.5,12.09375 14.3794643,12.0401786 14.2366071,12.0401786 L12.6160714,12.0401786 C12.4910714,11.5758929 12.2410714,11.2008929 11.8660714,10.9151786 C11.4910714,10.6294643 11.0714286,10.4866071 10.6071429,10.4866071 C10.1339286,10.4866071 9.70982143,10.6294643 9.33482143,10.9151786 C8.96875,11.2008929 8.72321429,11.5758929 8.59821429,12.0401786 L0.763392857,12.0401786 M11.34375,11.8258929 C11.5491071,12.0223214 11.6517857,12.2678571 11.6517857,12.5625 C11.6517857,12.8482143 11.5491071,13.0892857 11.34375,13.2857143 C11.1383929,13.4910714 10.8928571,13.59375 10.6071429,13.59375 C10.3125,13.59375 10.0714286,13.4910714 9.88392857,13.2857143 C9.67857143,13.0892857 9.57589286,12.8482143 9.57589286,12.5625 C9.57589286,12.2678571 9.67857143,12.0223214 9.88392857,11.8258929 C10.0714286,11.6294643 10.3125,11.53125 10.6071429,11.53125 C10.8928571,11.53125 11.1383929,11.6294643 11.34375,11.8258929 M6.38839286,6.85714286 C6.27232143,6.41071429 6.02678571,6.04017857 5.65178571,5.74553571 C5.27678571,5.45982143 4.85714286,5.31696429 4.39285714,5.31696429 C3.91964286,5.31696429 3.49553571,5.45982143 3.12053571,5.74553571 C2.74553571,6.04017857 2.5,6.41071429 2.38392857,6.85714286 L0.763392857,6.85714286 C0.611607143,6.85714286 0.491071429,6.91071429 0.401785714,7.01785714 C0.303571429,7.10714286 0.254464286,7.22767857 0.254464286,7.37946429 C0.254464286,7.52232143 0.303571429,7.64285714 0.401785714,7.74107143 C0.491071429,7.84821429 0.611607143,7.90178571 0.763392857,7.90178571 L2.38392857,7.90178571 C2.5,8.35714286 2.74553571,8.72767857 3.12053571,9.01339286 C3.49553571,9.30803571 3.91964286,9.45535714 4.39285714,9.45535714 C4.85714286,9.45535714 5.27678571,9.30803571 5.65178571,9.01339286 C6.02678571,8.72767857 6.27232143,8.35714286 6.38839286,7.90178571 L14.2366071,7.90178571 C14.3794643,7.90178571 14.5,7.84821429 14.5982143,7.74107143 C14.7053571,7.64285714 14.7589286,7.52232143 14.7589286,7.37946429 C14.7589286,7.22767857 14.7053571,7.10714286 14.5982143,7.01785714 C14.5,6.91071429 14.3794643,6.85714286 14.2366071,6.85714286 L6.38839286,6.85714286 M3.66964286,6.65625 C3.85714286,6.45089286 4.09821429,6.34821429 4.39285714,6.34821429 C4.67857143,6.34821429 4.92410714,6.45089286 5.12946429,6.65625 C5.32589286,6.86160714 5.42410714,7.10267857 5.42410714,7.37946429 C5.42410714,7.66517857 5.32589286,7.91071429 5.12946429,8.11607143 C4.92410714,8.32142857 4.67857143,8.42410714 4.39285714,8.42410714 C4.09821429,8.42410714 3.85714286,8.32142857 3.66964286,8.11607143 C3.46428571,7.91071429 3.36160714,7.66517857 3.36160714,7.37946429 C3.36160714,7.10267857 3.46428571,6.86160714 3.66964286,6.65625 M11.8660714,0.5625 C11.4910714,0.276785714 11.0714286,0.133928571 10.6071429,0.133928571 C10.1339286,0.133928571 9.70982143,0.276785714 9.33482143,0.5625 C8.96875,0.848214286 8.72321429,1.22321429 8.59821429,1.6875 L0.763392857,1.6875 C0.611607143,1.6875 0.491071429,1.73214286 0.401785714,1.82142857 C0.303571429,1.9375 0.254464286,2.05803571 0.254464286,2.18303571 C0.254464286,2.33482143 0.303571429,2.46428571 0.401785714,2.57142857 C0.491071429,2.66964286 0.611607143,2.71875 0.763392857,2.71875 L8.59821429,2.71875 C8.72321429,3.17410714 8.96875,3.54464286 9.33482143,3.83035714 C9.70982143,4.125 10.1339286,4.27232143 10.6071429,4.27232143 C11.0714286,4.27232143 11.4910714,4.125 11.8660714,3.83035714 C12.2410714,3.54464286 12.4910714,3.17410714 12.6160714,2.71875 L14.2366071,2.71875 C14.3794643,2.71875 14.5,2.66964286 14.5982143,2.57142857 C14.7053571,2.46428571 14.7589286,2.33482143 14.7589286,2.18303571 C14.7589286,2.05803571 14.7053571,1.9375 14.5982143,1.82142857 C14.5,1.73214286 14.3794643,1.6875 14.2366071,1.6875 L12.6160714,1.6875 C12.4910714,1.22321429 12.2410714,0.848214286 11.8660714,0.5625 M9.57589286,2.18303571 C9.57589286,1.90625 9.67857143,1.66517857 9.88392857,1.45982143 C10.0714286,1.26339286 10.3125,1.16517857 10.6071429,1.16517857 C10.8928571,1.16517857 11.1383929,1.26339286 11.34375,1.45982143 C11.5491071,1.66517857 11.6517857,1.90625 11.6517857,2.18303571 C11.6517857,2.47767857 11.5491071,2.72767857 11.34375,2.93303571 C11.1383929,3.13839286 10.8928571,3.24107143 10.6071429,3.24107143 C10.3125,3.24107143 10.0714286,3.13839286 9.88392857,2.93303571 C9.67857143,2.72767857 9.57589286,2.47767857 9.57589286,2.18303571 Z" id="Shape"></path>
                    </g>
                </g>
            </g>
        </g>
    </g>
</svg>