<?xml version="1.0" encoding="UTF-8"?>
<svg width="20px" height="20px" viewBox="0 0 20 20" version="1.1" xmlns="http://www.w3.org/2000/svg" xmlns:xlink="http://www.w3.org/1999/xlink">
    <!-- Generator: Sketch 63.1 (92452) - https://sketch.com -->
    <title>noun_palette_2075430</title>
    <desc>Created with Sketch.</desc>
    <g id="Talent--Mob-Admin" stroke="none" stroke-width="1" fill="none" fill-rule="evenodd">
        <g id="1-Tal_Web_Admin_BrandProfile" transform="translate(-25.000000, -110.000000)" fill="#515468" fill-rule="nonzero">
            <g id="noun_palette_2075430" transform="translate(25.000000, 110.000000)">
                <path d="M18.6762689,3.55642444 C19.2113502,3.08568147 19.6222828,2.4904219 19.8727756,1.82321556 C20.05382,1.27699333 20.0790333,0.682508889 19.6983311,0.301675556 C19.31758,-0.0790888889 18.7232467,-0.05382 18.1771978,0.127333333 C17.5101123,0.377978086 16.91503,0.789070235 16.4445311,1.32428667 C12.9970578,5.17270222 9.50687556,8.73613778 5.59316667,12.0527756 L7.95153778,14.4115667 C11.2669533,10.4965133 14.8291689,7.00512667 18.6762689,3.55642444 Z" id="Path"></path>
                <path d="M18.92654,8.08870444 C18.5243405,8.08894864 18.1319127,8.21267119 17.8023,8.44314889 C16.3202578,9.47544444 14.7072489,9.96721111 13.3350156,9.85173111 C11.6244578,11.5877778 10.0748689,13.2796622 8.63,14.9858933 L8.15864667,15.54248 C7.96425657,16.4438918 7.50875543,17.2681144 6.84896667,17.9123267 C6.45647727,18.3013 6.02751262,18.6516514 5.56798889,18.9585489 C6.72956357,19.5397361 7.9946477,19.8853655 9.29037333,19.9755289 C12.0589493,20.1718412 14.7846151,19.2089249 16.8154904,17.3170747 C18.8463657,15.4252245 19.999824,12.774565 20,9.99903778 C20,9.66881556 19.9831822,9.34053556 19.9508733,9.01652 C19.8980708,8.49023225 19.4554696,8.08933512 18.92654,8.08870444 Z M13.5276156,16.5472267 C12.8565044,17.2183495 11.768409,17.2183598 11.0972851,16.5472497 C10.4261612,15.8761395 10.4261493,14.7880441 11.0972584,14.1169192 C11.7683676,13.4457943 12.856463,13.4457808 13.5275889,14.1168889 C13.8498757,14.439168 14.0309423,14.8762754 14.0309423,15.3320523 C14.0309423,15.7878291 13.8498953,16.2249405 13.5276156,16.5472267 Z M17.4543733,13.7467822 C17.071757,14.1294289 16.4963141,14.2439138 15.9963748,14.0368524 C15.4964355,13.829791 15.1704394,13.3419608 15.1704394,12.8008382 C15.1704394,12.2597155 15.496375,11.7718662 15.9963022,11.5647754 C16.4962293,11.3576847 17.071679,11.4721358 17.4543178,11.85476 C17.9767745,12.3772186 17.9767994,13.2242818 17.4543733,13.7467711 L17.4543733,13.7467822 Z" id="Shape"></path>
                <path d="M11.9112422,1.07341778 C11.9106481,0.544493241 11.5097501,0.101885508 10.9834644,0.0491133333 C10.6593978,0.0167644444 10.3312178,0 10.0009489,0 C7.22541153,0.000154132067 4.57473639,1.15360935 2.68288255,3.18449504 C0.791028701,5.21538073 -0.171874702,7.94106498 0.0244688889,10.7096489 C0.117064715,12.0455923 0.481061884,13.3486314 1.09422222,14.5391578 C1.34912609,14.0285886 1.68523096,13.5627899 2.08942,13.15994 C2.73264808,12.503146 3.55418848,12.0491673 4.45255556,11.8540844 L5.01844444,11.3745667 C6.72352444,9.92960667 8.41408889,8.38022222 10.1485467,6.67016667 C10.0314133,5.29682 10.5232756,3.68158667 11.5568578,2.19768667 C11.7873054,1.86805176 11.9110056,1.47561826 11.9112422,1.07341778 L11.9112422,1.07341778 Z M5.88308444,8.90269556 C5.39159649,9.39418668 4.65243622,9.54121666 4.01027376,9.27522548 C3.3681113,9.00923429 2.94940993,8.38260451 2.94940993,7.68753333 C2.94940993,6.99246216 3.3681113,6.36583238 4.01027376,6.09984119 C4.65243622,5.83385 5.39159649,5.98087998 5.88308444,6.47237111 C6.55419572,7.14348845 6.55419572,8.23157821 5.88308444,8.90269556 L5.88308444,8.90269556 Z M8.14518222,4.43763556 C7.62270764,4.96007424 6.77563861,4.96004687 6.25319778,4.43757444 C5.73075695,3.91510201 5.73078083,3.06803298 6.25325112,2.54559 C6.7757214,2.02314703 7.62279043,2.02316742 8.14523556,2.54563556 C8.39614001,2.79652855 8.53708319,3.13682222 8.53708319,3.4916466 C8.53708319,3.84647098 8.39610082,4.18675671 8.14518222,4.43763556 L8.14518222,4.43763556 Z" id="Shape"></path>
                <path d="M7.33387556,15.0630978 L4.94711111,12.6759311 C4.09854446,12.7809965 3.31164297,13.1737943 2.71763333,13.78882 C0.782157778,15.7220333 1.63582444,18.3661289 0,20 C1.31673111,19.9113911 4.28527778,19.2165667 6.22074444,17.2833933 C6.83459763,16.6922343 7.22744314,15.908649 7.33387556,15.0630978 L7.33387556,15.0630978 Z" id="Path"></path>
            </g>
        </g>
    </g>
</svg>