<svg width="15px" height="15px" viewBox="0 0 15 15" version="1.1" xmlns="http://www.w3.org/2000/svg" xmlns:xlink="http://www.w3.org/1999/xlink">
    <g id="Talent-Mob-2020" stroke="none" stroke-width="1" fill="none" fill-rule="evenodd">
        <g id="Candidate_Web_Menu" transform="translate(-42.000000, -634.000000)" fill="#515468" fill-rule="nonzero" stroke="#515468" stroke-width="0.2">
            <g id="Group-28" transform="translate(0.000000, 87.000000)">
                <g id="Group-25" transform="translate(42.000000, 547.000000)">
                    <g id="noun_feedback_232444">
                        <path d="M13.9534884,10.3604651 C13.6569767,11.127907 12.9069767,11.6337209 12.0872093,11.6337209 L6.59302326,11.6337209 L3.6627907,14.4418605 C3.59302326,14.5116279 3.50581395,14.5465116 3.40116279,14.5465116 C3.34883721,14.5465116 3.29651163,14.5290698 3.26162791,14.5116279 C3.12209302,14.4593023 3.03488372,14.3197674 3.03488372,14.1627907 L3.03488372,11.6337209 L2.11046512,11.6337209 C0.994186047,11.6337209 0.104651163,10.7267442 0.104651163,9.62790698 L0.104651163,3.54069767 C0.104651163,2.4244186 1.01162791,1.53488372 2.11046512,1.53488372 L8.23255814,1.53488372 C8.44186047,1.53488372 8.59883721,1.70930233 8.59883721,1.90116279 C8.59883721,2.09302326 8.4244186,2.26744186 8.23255814,2.26744186 L2.12790698,2.26744186 C1.43023256,2.26744186 0.854651163,2.84302326 0.854651163,3.54069767 L0.854651163,9.62790698 C0.854651163,10.3255814 1.43023256,10.9011628 2.12790698,10.9011628 L3.41860465,10.9011628 C3.62790698,10.9011628 3.78488372,11.0755814 3.78488372,11.2674419 L3.78488372,13.3081395 L6.19186047,11.005814 C6.26162791,10.9360465 6.34883721,10.9011628 6.45348837,10.9011628 L12.1046512,10.9011628 C12.627907,10.9011628 13.0988372,10.5697674 13.2906977,10.0988372 C13.3604651,9.90697674 13.5872093,9.81976744 13.7790698,9.88953488 C13.9360465,9.95930233 14.0406977,10.1686047 13.9534884,10.3604651 Z M14.8953488,4.55232558 C14.8953488,4.56976744 14.8953488,4.5872093 14.8953488,4.60465116 L14.3546512,8.00581395 C14.25,8.87790698 13.622093,9.38372093 12.6802326,9.38372093 L8.68604651,9.38372093 C8.30232558,9.38372093 7.97093023,9.24418605 7.70930233,9 C7.5872093,9.0872093 7.44767442,9.13953488 7.29069767,9.13953488 L5.94767442,9.13953488 C5.56395349,9.13953488 5.25,8.8255814 5.25,8.44186047 L5.25,4.23837209 C5.25,3.85465116 5.56395349,3.54069767 5.94767442,3.54069767 L7.29069767,3.54069767 C7.5,3.54069767 7.6744186,3.62790698 7.79651163,3.76744186 C7.93604651,3.73255814 9.24418605,3.31395349 9.24418605,2.1627907 L9.24418605,0.540697674 C9.24418605,0.38372093 9.34883721,0.244186047 9.50581395,0.191860465 C9.59302326,0.156976744 10.377907,-0.0697674419 10.9883721,0.38372093 C11.372093,0.662790698 11.5813953,1.15116279 11.5813953,1.81395349 L11.5813953,3.12209302 L13.4476744,3.12209302 C14.25,3.12209302 14.8953488,3.76744186 14.8953488,4.55232558 Z M7.25581395,4.29069767 L6.01744186,4.29069767 L6.01744186,8.40697674 L7.25581395,8.40697674 L7.25581395,4.29069767 Z M14.1453488,4.53488372 C14.127907,4.16860465 13.8313953,3.87209302 13.4476744,3.87209302 L11.2151163,3.87209302 C11.005814,3.87209302 10.8488372,3.69767442 10.8488372,3.50581395 L10.8488372,1.83139535 C10.8488372,1.43023256 10.7616279,1.15116279 10.5697674,1.01162791 C10.4127907,0.889534884 10.1860465,0.872093023 10.0116279,0.889534884 L10.0116279,2.21511628 C10.0116279,3.95930233 8.11046512,4.5 8.02325581,4.53488372 C8.02325581,4.53488372 8.02325581,4.53488372 8.02325581,4.53488372 L8.02325581,8.00581395 C8.02325581,8.38953488 8.3372093,8.70348837 8.72093023,8.70348837 L12.6976744,8.70348837 C13.5523256,8.70348837 13.622093,8.14534884 13.6395349,7.97093023 C13.6395349,7.97093023 13.6395349,7.97093023 13.6395349,7.95348837 L14.1453488,4.53488372 Z" id="Shape"></path>
                    </g>
                </g>
            </g>
        </g>
    </g>
</svg>