<svg width="16px" height="14px" viewBox="0 0 16 14" version="1.1" xmlns="http://www.w3.org/2000/svg" xmlns:xlink="http://www.w3.org/1999/xlink">
    <g id="Amit-Revised-Screens" stroke="none" stroke-width="1" fill="none" fill-rule="evenodd">
        <g id="Candidate_Web_My-Jobs_Shortlist_1" transform="translate(-1160.000000, -306.000000)" fill="#0a7be0" fill-rule="nonzero">
            <g id="noun_Video-Call_126081" transform="translate(1161.000000, 307.000000)">
                <path d="M11.5357143,10.0639456 L11.8035714,10.0639456 L13.5714286,10.0639456 C13.8035714,10.0639456 14,9.86938776 14,9.63945578 L14,1.27346939 C14,1.04353741 13.8035714,0.848979592 13.5714286,0.848979592 L1.28571429,0.848979592 C1.05357143,0.848979592 0.857142857,1.04353741 0.857142857,1.27346939 L0.857142857,9.65714286 C0.857142857,9.88707483 1.05357143,10.0816327 1.28571429,10.0816327 L3.21428571,10.0816327 L3.48214286,10.0816327 L11.5357143,10.0639456 Z M14.8571429,1.27346939 L14.8571429,9.65714286 C14.8571429,10.3469388 14.2857143,10.9306122 13.5714286,10.9306122 L11.8035714,10.9306122 L10.9107143,10.9306122 L9.03571429,10.9306122 L9.03571429,12.2217687 L10.9285714,12.2217687 C11.0178571,12.2217687 11.0892857,12.292517 11.0892857,12.3809524 L11.0892857,12.6285714 C11.0892857,12.7170068 11.0178571,12.7877551 10.9285714,12.7877551 L3.92857143,12.7877551 C3.83928571,12.7877551 3.76785714,12.7170068 3.76785714,12.6285714 L3.76785714,12.3632653 C3.76785714,12.2748299 3.83928571,12.2040816 3.92857143,12.2040816 L5.82142857,12.2040816 L5.82142857,10.9129252 L4.08928571,10.9129252 L3.19642857,10.9129252 L1.28571429,10.9129252 C0.589285714,10.9129252 4.34675337e-14,10.3469388 4.34675337e-14,9.63945578 L4.34675337e-14,1.27346939 C4.34675337e-14,0.565986395 0.571428571,-2.15267786e-14 1.28571429,-2.15267786e-14 L13.5892857,-2.15267786e-14 C14.2857143,-2.15267786e-14 14.8571429,0.565986395 14.8571429,1.27346939 Z" id="Shape" stroke="#FFFFFF" stroke-width="0.2"></path>
                <path d="M7.49276062,2.41428571 C8.73748092,2.41428571 9.75,3.41861847 9.75,4.64285714 C9.75,5.87241518 8.73210071,6.87142857 7.49276062,6.87142857 C6.25980942,6.87142857 5.25,5.86442717 5.25,4.64285714 C5.25,3.40695311 6.24537882,2.41428571 7.49276062,2.41428571 Z M7.49276062,3.15714286 C6.66074539,3.15714286 6,3.81608837 6,4.64285714 C6,5.45528253 6.67516637,6.12857143 7.49276062,6.12857143 C8.31941699,6.12857143 9,5.46061581 9,4.64285714 C9,3.82864596 8.32302347,3.15714286 7.49276062,3.15714286 Z" id="Path"></path>
                <path d="M3.09967255,10.3379388 C6.12052436,7.19972445 8.8328407,7.19972445 11.4611852,10.3195997 L12.0370409,9.84366561 C9.11401991,6.37400598 5.87910335,6.37400598 2.55685478,9.82532654 L3.09967255,10.3379388 Z" id="Path-2"></path>
            </g>
        </g>
    </g>
</svg>