<svg width="18px" height="12px" viewBox="0 0 18 12" version="1.1" xmlns="http://www.w3.org/2000/svg" xmlns:xlink="http://www.w3.org/1999/xlink">
    <g id="Amit-Revised-Screens" stroke="none" stroke-width="1" fill="none" fill-rule="evenodd">
        <g id="Candidate_Web_My-Jobs_Shortlist_1" transform="translate(-979.000000, -305.000000)" fill="#0a7be0" fill-rule="nonzero">
            <g id="noun_Travel_152356" transform="translate(979.000000, 305.000000)">
                <g id="Group">
                    <path d="M8.57142857,11.9 C5.07857143,11.9 2.25,9.26 2.25,6 C2.25,2.74 5.07857143,0.1 8.57142857,0.1 C10.0285714,0.1 11.4642857,0.58 12.6,1.44 C13.3071429,1.98 13.8857143,2.68 14.2714286,3.44 C14.3571429,3.58 14.2714286,3.76 14.1214286,3.84 C13.9714286,3.92 13.7785714,3.84 13.6928571,3.7 C13.3285714,3.02 12.8142857,2.4 12.1928571,1.9 C11.1857143,1.12 9.9,0.68 8.57142857,0.68 C5.44285714,0.68 2.89285714,3.06 2.89285714,5.98 C2.89285714,8.9 5.44285714,11.3 8.57142857,11.3 C10.7785714,11.3 12.7928571,10.1 13.7357143,8.22 C13.8,8.06 13.9928571,8 14.1642857,8.08 C14.3357143,8.14 14.4,8.32 14.3142857,8.48 C13.2857143,10.56 11.0357143,11.9 8.57142857,11.9 Z" id="Path"></path>
                    <path d="M3.79285714,9.82 C1.90714286,9.82 0.578571429,9.34 0.214285714,8.44 C-0.171428571,7.46 0.6,6.2 2.4,4.94 C2.55,4.84 2.74285714,4.86 2.85,5 C2.95714286,5.14 2.93571429,5.32 2.78571429,5.42 C1.28571429,6.48 0.557142857,7.54 0.814285714,8.24 C1.24285714,9.32 4.2,9.7 8.44285714,8.48 C8.61428571,8.44 8.78571429,8.52 8.85,8.68 C8.89285714,8.84 8.80714286,9 8.63571429,9.06 C6.83571429,9.58 5.16428571,9.82 3.79285714,9.82 Z" id="Path"></path>
                    <path d="M16.6285714,3.16 C16.5,3.16 16.3714286,3.08 16.3285714,2.96 C16.05,2.26 14.7642857,1.9 12.8785714,1.98 L12.3857143,1.98 C12.2142857,1.98 12.0642857,1.84 12.0642857,1.68 C12.0642857,1.52 12.2142857,1.38 12.3857143,1.38 L12.8571429,1.38 C15.0857143,1.28 16.5428571,1.76 16.9285714,2.76 C16.9928571,2.92 16.9071429,3.08 16.7357143,3.14 C16.6928571,3.16 16.6714286,3.16 16.6285714,3.16 Z" id="Path"></path>
                    <g transform="translate(6.642857, 7.600000)" id="Path">
                        <path d="M1.92857143,1.42 C1.88571429,1.42 1.84285714,1.42 1.8,1.4 L0.235714286,0.72 C0.0642857143,0.66 -2.77555756e-17,0.48 0.0857142857,0.32 C0.171428571,0.16 0.342857143,0.1 0.514285714,0.18 L2.07857143,0.86 C2.25,0.92 2.31428571,1.1 2.22857143,1.26 C2.16428571,1.36 2.05714286,1.42 1.92857143,1.42 Z"></path>
                        <path d="M1.2,2.88 C1.15714286,2.88 1.11428571,2.88 1.07142857,2.86 C0.9,2.8 0.835714286,2.62 0.921428571,2.46 L1.65,1 C1.73571429,0.84 1.90714286,0.78 2.07857143,0.86 C2.25,0.92 2.31428571,1.1 2.22857143,1.26 L1.5,2.7 C1.43571429,2.82 1.32857143,2.88 1.2,2.88 Z"></path>
                    </g>
                </g>
                <path d="M10.4142857,8.4 C10.3714286,8.4 10.3285714,8.4 10.2857143,8.38 L7.71428571,7.28 C7.58571429,7.22 7.5,7.08 7.54285714,6.94 C7.58571429,6.8 7.69285714,6.7 7.84285714,6.7 L10.3928571,6.62 L11.3142857,6.1 L9.87857143,4.66 C9.81428571,4.6 9.79285714,4.52 9.79285714,4.44 C9.79285714,4.36 9.83571429,4.28 9.9,4.22 C9.94285714,4.2 10.2642857,3.94 10.9071429,3.94 C11.7,3.94 12.6214286,4.32 13.65,5.04 L15.8357143,4.1 C15.9642857,4.04 16.1571429,4.02 16.3714286,4.02 C16.7785714,4.02 17.5285714,4.12 17.7214286,4.54 C17.8071429,4.72 17.8928571,5.04 17.5071429,5.34 C17.3142857,5.48 17.0142857,5.62 16.65,5.78 L10.5428571,8.38 C10.5,8.4 10.4571429,8.4 10.4142857,8.4 Z M9.21428571,7.26 L10.4142857,7.76 L16.35,5.24 C16.6714286,5.1 17.0785714,4.94 17.1214286,4.84 C17.1214286,4.84 17.1214286,4.82 17.1,4.8 C17.0571429,4.74 16.7357143,4.64 16.3285714,4.64 C16.1785714,4.64 16.0928571,4.66 16.05,4.68 L13.6928571,5.68 C13.5857143,5.72 13.4571429,5.72 13.35,5.64 C12.15,4.74 11.3357143,4.56 10.8642857,4.56 C10.7785714,4.56 10.6928571,4.56 10.6071429,4.58 L12,5.96 C12.0642857,6.02 12.1071429,6.12 12.0857143,6.2 C12.0642857,6.28 12.0214286,6.36 11.9357143,6.42 L10.6071429,7.18 C10.5642857,7.2 10.5,7.22 10.4571429,7.22 L9.21428571,7.26 Z" id="Shape"></path>
            </g>
        </g>
    </g>
</svg>