<?xml version="1.0" encoding="UTF-8"?>
<svg width="18px" height="18px" viewBox="0 0 18 18" version="1.1" xmlns="http://www.w3.org/2000/svg" xmlns:xlink="http://www.w3.org/1999/xlink">
    <!-- Generator: Sketch 62 (91390) - https://sketch.com -->
    <title>noun_attention_1222950</title>
    <desc>Created with Sketch.</desc>
    <g id="Amit-Revised-Screens" stroke="none" stroke-width="1" fill="none" fill-rule="evenodd">
        <g id="Candidate_Web_My-Jobs_Hire_Interview-Tab" transform="translate(-873.000000, -390.000000)">
            <g id="noun_attention_1222950" transform="translate(873.000000, 390.000000)">
                <path d="M17.6294118,8.62941176 L15.5117647,6.51176471 C15.4058824,6.40588235 15.3529412,6.3 15.3529412,6.14117647 L15.3529412,3.17647059 C15.3529412,2.85882353 15.1411765,2.64705882 14.8235294,2.64705882 L11.8588235,2.64705882 C11.7,2.64705882 11.5941176,2.59411765 11.4882353,2.48823529 L9.37058824,0.370588235 C9.15882353,0.158823529 8.84117647,0.158823529 8.62941176,0.370588235 L6.51176471,2.48823529 C6.40588235,2.59411765 6.3,2.64705882 6.14117647,2.64705882 L3.17647059,2.64705882 C2.85882353,2.64705882 2.64705882,2.85882353 2.64705882,3.17647059 L2.64705882,6.14117647 C2.64705882,6.3 2.59411765,6.40588235 2.48823529,6.51176471 L0.370588235,8.62941176 C0.158823529,8.84117647 0.158823529,9.15882353 0.370588235,9.37058824 L2.48823529,11.4882353 C2.59411765,11.5941176 2.64705882,11.7 2.64705882,11.8588235 L2.64705882,14.8235294 C2.64705882,15.1411765 2.85882353,15.3529412 3.17647059,15.3529412 L6.14117647,15.3529412 C6.3,15.3529412 6.40588235,15.4058824 6.51176471,15.5117647 L8.62941176,17.6294118 C8.84117647,17.8411765 9.15882353,17.8411765 9.37058824,17.6294118 L11.4882353,15.5117647 C11.5941176,15.4058824 11.7,15.3529412 11.8588235,15.3529412 L14.8235294,15.3529412 C15.1411765,15.3529412 15.3529412,15.1411765 15.3529412,14.8235294 L15.3529412,11.8588235 C15.3529412,11.7 15.4058824,11.5941176 15.5117647,11.4882353 L17.6294118,9.37058824 C17.8411765,9.15882353 17.8411765,8.84117647 17.6294118,8.62941176 Z" id="Shape" fill="#FDD500" fill-rule="nonzero"></path>
                <path d="M8.47058824,5.29411765 C8.47058824,4.97647059 8.68235294,4.76470588 9,4.76470588 C9.31764706,4.76470588 9.52941176,4.97647059 9.52941176,5.29411765 L9.52941176,9.52941176 C9.52941176,9.84705882 9.31764706,10.0588235 9,10.0588235 C8.68235294,10.0588235 8.47058824,9.84705882 8.47058824,9.52941176 L8.47058824,5.29411765 Z" id="Path" fill="#796600"></path>
                <path d="M9,13.2352941 C8.41764706,13.2352941 7.94117647,12.7588235 7.94117647,12.1764706 C7.94117647,11.5941176 8.41764706,11.1176471 9,11.1176471 C9.58235294,11.1176471 10.0588235,11.5941176 10.0588235,12.1764706 C10.0588235,12.7588235 9.58235294,13.2352941 9,13.2352941 Z" id="Path" fill="#796600"></path>
            </g>
        </g>
    </g>
</svg>