<?xml version="1.0" encoding="UTF-8"?>
<svg width="16px" height="13px" viewBox="0 0 16 13" version="1.1" xmlns="http://www.w3.org/2000/svg" xmlns:xlink="http://www.w3.org/1999/xlink">
    <!-- Generator: Sketch 62 (91390) - https://sketch.com -->
    <title>noun_person_2134066 copy 2</title>
    <desc>Created with Sketch.</desc>
    <g id="Amit-Revised-Screens" stroke="none" stroke-width="1" fill="none" fill-rule="evenodd">
        <g id="Candidate_Web_My-Jobs_Finalist" transform="translate(-442.000000, -303.000000)" fill="#02BA5A">
            <g id="Group-7" transform="translate(442.000000, 299.000000)">
                <g id="noun_person_2134066-copy-2" transform="translate(0.000000, 4.000000)">
                    <path d="M7.71300046,0 C3.45822187,0 0,3.45822187 0,7.73242868 C0,9.57810889 0.660559234,11.2877916 1.74853915,12.6089101 C1.92339306,11.2683634 3.26393974,10.1220988 5.16790459,9.57810889 C6.60559234,10.9380838 8.76212395,10.957512 10.2386681,9.63639353 C12.142633,10.2192399 13.4637514,11.4237891 13.5026079,12.8420486 C14.7071571,11.4626455 15.4454291,9.67524995 15.4454291,7.73242868 C15.4454291,3.45822187 11.9872073,0 7.71300046,0 Z M7.71300046,9.69467816 C5.90617668,9.69467816 4.66277106,8.00442365 4.66277106,6.27531272 C4.66277106,4.39077608 6.04217417,2.85594727 7.71300046,2.85594727 C9.40325497,2.85594727 10.7632299,4.39077608 10.7632299,6.27531272 C10.7632299,8.00442365 9.51982425,9.69467816 7.71300046,9.69467816 Z" id="Shape"></path>
                </g>
            </g>
        </g>
    </g>
</svg>