<?xml version="1.0" encoding="UTF-8"?>
<svg width="13px" height="16px" viewBox="0 0 13 16" version="1.1" xmlns="http://www.w3.org/2000/svg" xmlns:xlink="http://www.w3.org/1999/xlink">
    <!-- Generator: Sketch 63.1 (92452) - https://sketch.com -->
    <title>noun_power button_174953_000000</title>
    <desc>Created with Sketch.</desc>
    <g id="Talent-Mob-2020" stroke="none" stroke-width="1" fill="none" fill-rule="evenodd">
        <g id="Tal_Web_MyRedep_Profile_Overlay" transform="translate(-1144.000000, -234.000000)" fill="#747588" fill-rule="nonzero">
            <g id="Group-19" transform="translate(1110.500000, 55.000000)">
                <g id="noun_power-button_174953_000000" transform="translate(33.500000, 179.000000)">
                    <path d="M6.5,15.2 C2.92171717,15.2 0,12.3728384 0,8.91035963 C0,6.49615423 1.41161616,4.30430986 3.67676768,3.25603647 C3.90656566,3.12897302 4.2020202,3.22427061 4.33333333,3.47839749 C4.46464646,3.70075851 4.36616162,3.98665126 4.10353535,4.1137147 C2.16666667,5.00315879 0.984848485,6.8455787 0.984848485,8.91035963 C0.984848485,11.8645847 3.4469697,14.2470242 6.5,14.2470242 C9.5530303,14.2470242 12.0151515,11.8645847 12.0151515,8.91035963 C12.0151515,6.8455787 10.8333333,5.00315879 8.89646465,4.1137147 C8.66666667,3.98665126 8.53535354,3.70075851 8.66666667,3.47839749 C8.7979798,3.25603647 9.09343434,3.12897302 9.32323232,3.25603647 C11.5883838,4.33607572 13,6.49615423 13,8.91035963 C13,12.3728384 10.0782828,15.2 6.5,15.2 Z" id="Path"></path>
                    <path d="M6.5,8.2 C6.23333333,8.2 6,7.98039216 6,7.72941176 L6,0.670588235 C6,0.419607843 6.23333333,0.2 6.5,0.2 C6.76666667,0.2 7,0.419607843 7,0.670588235 L7,7.72941176 C7,7.98039216 6.76666667,8.2 6.5,8.2 Z" id="Path"></path>
                </g>
            </g>
        </g>
    </g>
</svg>