<svg width="11px" height="11px" viewBox="0 0 11 11" version="1.1" xmlns="http://www.w3.org/2000/svg" xmlns:xlink="http://www.w3.org/1999/xlink">
    <g id="Talent-Mob-2020" stroke="none" stroke-width="1" fill="none" fill-rule="evenodd">
        <g id="Tal_Web_MyRedep" transform="translate(-1118.000000, -95.000000)" fill="#232333" fill-rule="nonzero">
            <path d="M1128.8016,104.842992 L1126.27211,102.313162 C1127.59302,100.521943 1127.43794,97.9516195 1125.82951,96.3433008 C1124.96297,95.4771003 1123.81117,95 1122.58618,95 C1121.36108,95 1120.20939,95.4771003 1119.34341,96.3433008 C1118.4771,97.2097275 1118,98.3613059 1118,99.5861799 C1118,100.811167 1118.4771,101.962859 1119.34341,102.829398 C1120.2095,103.695712 1121.36119,104.172812 1122.58641,104.172812 C1123.57793,104.172812 1124.52817,103.856442 1125.31407,103.272905 L1127.84299,105.801378 C1127.97103,105.929532 1128.14126,106 1128.32224,106 C1128.50378,106 1128.67435,105.92908 1128.80093,105.801943 C1128.92919,105.674015 1128.99989,105.503784 1129,105.322581 C1129.00011,105.141378 1128.92964,104.971033 1128.8016,104.842992 Z M1122.58618,96.3556298 C1123.44899,96.3556298 1124.26022,96.6916812 1124.87056,97.3020257 C1125.47966,97.9110129 1125.81515,98.7222416 1125.81515,99.5861799 C1125.81515,100.450118 1125.47966,101.26146 1124.87045,101.87056 C1124.26033,102.480792 1123.4491,102.816843 1122.58618,102.816843 C1121.72337,102.816843 1120.91214,102.480792 1120.3018,101.87056 C1119.69157,101.260555 1119.35552,100.449326 1119.35552,99.5861799 C1119.35552,98.7233728 1119.69157,97.912144 1120.3018,97.3020257 C1120.91226,96.6917943 1121.72349,96.3556298 1122.58618,96.3556298 Z" id="Shape"></path>
        </g>
    </g>
</svg>