<svg width="22px" height="22px" viewBox="0 0 22 22" version="1.1" xmlns="http://www.w3.org/2000/svg" xmlns:xlink="http://www.w3.org/1999/xlink">
    <g id="Talent-Mob-2020" stroke="none" stroke-width="1" fill="none" fill-rule="evenodd">
        <g id="Candidate_Web_Menu" transform="translate(-39.000000, -348.000000)" fill="#0A7BE0" fill-rule="nonzero" stroke="#FBFBFB" stroke-width="0.5">
            <g id="Group-28" transform="translate(0.000000, 87.000000)">
                <path d="M59.4889796,279.797653 L54.925102,275.233163 C57.3083673,272.001327 57.0285714,267.363776 54.1265306,264.461939 C52.5630612,262.899082 50.484898,262.038265 48.2746939,262.038265 C46.0642857,262.038265 43.9863265,262.899082 42.4238776,264.461939 C40.8608163,266.025204 40,268.102959 40,270.312959 C40,272.523163 40.8608163,274.601122 42.4238776,276.164592 C43.9865306,277.727653 46.0644898,278.588469 48.275102,278.588469 C50.0640816,278.588469 51.7785714,278.017653 53.1965306,276.964796 L57.7593878,281.526837 C57.9904082,281.758061 58.297551,281.885204 58.6240816,281.885204 C58.9516327,281.885204 59.2593878,281.757245 59.4877551,281.527857 C59.7191837,281.297041 59.8467347,280.989898 59.846939,280.662959 C59.8471429,280.33602 59.72,280.028673 59.4889796,279.797653 Z M48.2746939,264.484184 C49.8314286,264.484184 51.295102,265.09051 52.3963265,266.191735 C53.4953061,267.29051 54.1006122,268.754184 54.1006122,270.312959 C54.1006122,271.871735 53.4953061,273.335612 52.3961224,274.434592 C51.2953061,275.535612 49.8316327,276.141939 48.2746939,276.141939 C46.7179592,276.141939 45.2542857,275.535612 44.1530612,274.434592 C43.0520408,273.33398 42.4457143,271.870306 42.4457143,270.312959 C42.4457143,268.756224 43.0520408,267.292551 44.1530612,266.191735 C45.2544898,265.090714 46.7181633,264.484184 48.2746939,264.484184 Z" id="Shape"></path>
            </g>
        </g>
    </g>
</svg>