<?xml version="1.0" encoding="UTF-8"?>
<svg width="17px" height="17px" viewBox="0 0 17 17" version="1.1" xmlns="http://www.w3.org/2000/svg" xmlns:xlink="http://www.w3.org/1999/xlink">
    <!-- Generator: Sketch 63.1 (92452) - https://sketch.com -->
    <title>Shape</title>
    <desc>Created with Sketch.</desc>
    <g id="Talent--Mob-Admin" stroke="none" stroke-width="1" fill="none" fill-rule="evenodd">
        <g id="4-Tal_Web_Admin_User-Permnission" transform="translate(-895.000000, -268.000000)" fill="#ACAEC1" fill-rule="nonzero" stroke="#FBFBFB" stroke-width="0.5">
            <g id="Group-Copy" transform="translate(881.000000, 256.000000)">
                <path d="M29.5791594,26.2853002 L26.1650505,22.8707333 C27.9479045,20.4530869 27.738597,16.9838649 25.5676616,14.8130822 C24.398074,13.6439526 22.8434583,13 21.1900666,13 C19.5365222,13 17.9820591,13.6439526 16.8132349,14.8130822 C15.6439526,15.9825172 15,17.5368275 15,19.1900666 C15,20.8434583 15.6439526,22.3979213 16.8132349,23.5675089 C17.9822118,24.7367912 19.5366748,25.3807438 21.1903719,25.3807438 C22.5286574,25.3807438 23.8112192,24.9537321 24.8719547,24.1661192 L28.2853002,27.5788541 C28.4581201,27.7518266 28.6878851,27.8469386 28.9321535,27.8469386 C29.1771852,27.8469386 29.4074082,27.751216 29.5782434,27.5796174 C29.7513686,27.4069502 29.846786,27.1771852 29.8469388,26.9326115 C29.8470913,26.6880377 29.7519793,26.4581201 29.5791594,26.2853002 Z M21.1900666,14.829723 C22.3546162,14.829723 23.4495493,15.2832989 24.2733444,16.107094 C25.0954603,16.9290572 25.5482728,18.0239903 25.5482728,19.1900666 C25.5482728,20.3561428 25.0954603,21.4512286 24.2731918,22.2733444 C23.4497019,23.0969869 22.3547688,23.5505628 21.1900666,23.5505628 C20.025517,23.5505628 18.9305839,23.0969869 18.1067887,22.2733444 C17.2831462,21.4500073 16.8295703,20.3550742 16.8295703,19.1900666 C16.8295703,18.025517 17.2831462,16.9305839 18.1067887,16.107094 C18.9307365,15.2834515 20.0256696,14.829723 21.1900666,14.829723 Z" id="Shape"></path>
            </g>
        </g>
    </g>
</svg>