<?xml version="1.0" encoding="UTF-8"?>
<svg width="18px" height="13px" viewBox="0 0 18 13" version="1.1" xmlns="http://www.w3.org/2000/svg" xmlns:xlink="http://www.w3.org/1999/xlink">
    <!-- Generator: Sketch 57.1 (83088) - https://sketch.com -->
    <title>Shape 2</title>
    <desc>Created with Sketch.</desc>
    <g id="Page-1" stroke="none" stroke-width="1" fill="none" fill-rule="evenodd">
        <g id="Shape-2" fill="#4C5459" fill-rule="nonzero">
            <path d="M1.84090909,0 C0.857304409,0 0,0.827746563 0,1.828125 L0,11.171875 C0,12.1722534 0.857304409,13 1.84090909,13 L16.1590909,13 C17.1426956,13 18,12.1722534 18,11.171875 L18,1.828125 C18,0.827746563 17.1426956,0 16.1590909,0 L1.84090909,0 Z M1.84090909,0.8125 L16.1590909,0.8125 C16.635944,0.8125 17.1818182,1.33216119 17.1818182,1.828125 L17.1818182,5.28125 L0.818181818,5.28125 L0.818181818,1.828125 C0.818181818,1.33216119 1.36405595,0.8125 1.84090909,0.8125 Z M2.86363636,2.84375 C2.52473441,2.84375 2.25,3.11657653 2.25,3.453125 C2.25,3.78967347 2.52473441,4.0625 2.86363636,4.0625 C3.20253832,4.0625 3.47727273,3.78967347 3.47727273,3.453125 C3.47727273,3.11657653 3.20253832,2.84375 2.86363636,2.84375 Z M15.1363636,2.84375 C14.7974617,2.84375 14.5227273,3.11657653 14.5227273,3.453125 C14.5227273,3.78967347 14.7974617,4.0625 15.1363636,4.0625 C15.4752656,4.0625 15.75,3.78967347 15.75,3.453125 C15.75,3.11657653 15.4752656,2.84375 15.1363636,2.84375 Z M5.07528409,3.046875 C4.92910913,3.05365027 4.7976813,3.13736275 4.73051974,3.26647141 C4.66335819,3.39558007 4.67066918,3.55046476 4.74969809,3.67276833 C4.82872701,3.79507189 4.96746414,3.86620834 5.11363636,3.859375 L12.8863636,3.859375 C13.0338958,3.86144595 13.1711224,3.78447126 13.2454971,3.65792581 C13.3198718,3.53138036 13.3198718,3.37486964 13.2454971,3.24832419 C13.1711224,3.12177874 13.0338958,3.04480405 12.8863636,3.046875 L5.11363636,3.046875 C5.1008593,3.04627964 5.08806115,3.04627964 5.07528409,3.046875 Z M0.818181818,6.09375 L17.1818182,6.09375 L17.1818182,11.171875 C17.1818182,11.6678388 16.635944,12.1875 16.1590909,12.1875 L1.84090909,12.1875 C1.36405595,12.1875 0.818181818,11.6678388 0.818181818,11.171875 L0.818181818,6.09375 Z M2.25,6.90625 C2.01222491,6.90625 1.78331155,7.11089823 1.71306818,7.27441406 C1.64282482,7.43792989 1.63636364,7.57772437 1.63636364,7.71875 L1.63636364,10.5625 C1.63636364,10.7035254 1.64282523,10.8433201 1.71306818,11.0068359 C1.78331134,11.1703518 2.0122247,11.375 2.25,11.375 L5.52272727,11.375 C5.76050257,11.375 5.98941593,11.1703518 6.05965909,11.0068359 C6.12990225,10.8433201 6.13636364,10.7035254 6.13636364,10.5625 L6.13636364,7.71875 C6.13636364,7.57772437 6.12990245,7.43792989 6.05965909,7.27441406 C5.98941573,7.11089823 5.76050236,6.90625 5.52272727,6.90625 L2.25,6.90625 Z M2.45454545,7.71875 L5.31818182,7.71875 L5.31818182,10.5625 L2.45454545,10.5625 L2.45454545,7.71875 Z M7.734375,7.71875 C7.58820004,7.72552527 7.45677221,7.80923775 7.38961065,7.93834641 C7.3224491,8.06745507 7.32976009,8.22233976 7.408789,8.34464333 C7.48781792,8.46694689 7.62655505,8.53808334 7.77272727,8.53125 L15.5454545,8.53125 C15.6929867,8.53332095 15.8302133,8.45634626 15.904588,8.32980081 C15.9789627,8.20325536 15.9789627,8.04674464 15.904588,7.92019919 C15.8302133,7.79365374 15.6929867,7.71667905 15.5454545,7.71875 L7.77272727,7.71875 C7.75995021,7.71815464 7.74715206,7.71815464 7.734375,7.71875 Z M7.734375,9.75 C7.58820004,9.75677527 7.45677221,9.84048775 7.38961065,9.96959641 C7.3224491,10.0987051 7.32976009,10.2535898 7.408789,10.3758933 C7.48781792,10.4981969 7.62655505,10.5693333 7.77272727,10.5625 L15.5454545,10.5625 C15.6929867,10.5645709 15.8302133,10.4875963 15.904588,10.3610508 C15.9789627,10.2345054 15.9789627,10.0779946 15.904588,9.95144919 C15.8302133,9.82490374 15.6929867,9.74792905 15.5454545,9.75 L7.77272727,9.75 C7.75995021,9.74940464 7.74715206,9.74940464 7.734375,9.75 Z" id="Shape"></path>
        </g>
    </g>
</svg>