<svg xmlns="http://www.w3.org/2000/svg" width="30" height="23" viewBox="0 0 30 23">
    <path fill="#4C5459" d="M2.982.647C1.389.647 0 2.01 0 3.658v15.39c0 1.647 1.389 3.01 2.982 3.01h23.193c1.593 0 2.982-1.363 2.982-3.01V3.658c0-1.648-1.389-3.01-2.982-3.01H2.982zm0 1.338h23.193c.772 0 1.657.856 1.657 1.673v5.688H1.325V3.658c0-.817.885-1.673 1.657-1.673zm1.657 3.346c-.55 0-.994.45-.994 1.004s.445 1.003.994 1.003c.549 0 .994-.45.994-1.003 0-.555-.445-1.004-.994-1.004zm19.88 0c-.55 0-.995.45-.995 1.004s.445 1.003.994 1.003c.55 0 .994-.45.994-1.003 0-.555-.445-1.004-.994-1.004zM8.22 5.665c-.237.012-.45.15-.558.362-.11.213-.097.468.03.67.129.2.353.318.59.307h12.59c.24.003.462-.124.583-.332.12-.209.12-.466 0-.675-.121-.208-.343-.335-.582-.332H8.22zm-6.896 5.019h26.507v8.364c0 .817-.885 1.673-1.657 1.673H2.982c-.772 0-1.657-.856-1.657-1.673v-8.364zm2.32 1.338c-.386 0-.756.337-.87.606-.114.27-.124.5-.124.732v4.684c0 .232.01.463.124.732.114.27.484.606.87.606h5.3c.386 0 .757-.337.87-.606.114-.27.125-.5.125-.732V13.36c0-.232-.01-.462-.124-.732-.114-.269-.485-.606-.87-.606H3.645zm.331 1.338h4.639v4.684H3.976V13.36zm8.552 0c-.236.011-.45.15-.558.362-.109.213-.097.468.031.67.128.2.353.318.59.307h12.59c.239.003.461-.124.582-.332.12-.209.12-.466 0-.675-.12-.208-.343-.335-.582-.332H12.528zm0 3.346c-.236.011-.45.149-.558.362-.109.212-.097.467.031.669.128.201.353.318.59.307h12.59c.239.004.461-.123.582-.332.12-.208.12-.466 0-.674-.12-.209-.343-.336-.582-.332H12.528z"/>
</svg>
