<?xml version="1.0" encoding="UTF-8"?>
<svg width="23px" height="23px" viewBox="0 0 23 23" version="1.1" xmlns="http://www.w3.org/2000/svg" xmlns:xlink="http://www.w3.org/1999/xlink">
    <!-- Generator: Sketch 63.1 (92452) - https://sketch.com -->
    <title>Group 4</title>
    <desc>Created with Sketch.</desc>
    <g id="Talent-Mob-2020" stroke="none" stroke-width="1" fill="none" fill-rule="evenodd">
        <g id="Tal_Web_Candidate-Details" transform="translate(-835.000000, -186.000000)">
            <g id="Group-10" transform="translate(720.000000, 186.000000)">
                <g id="Group-4" transform="translate(115.843736, 0.807455)">
                    <g id="Group-3-Copy-2" fill="#F9683D">
                        <circle id="Oval" cx="10.7476636" cy="10.7476636" r="10.7476636"></circle>
                    </g>
                    <g id="noun_Social-Media_2170047" transform="translate(4.728972, 4.299065)" fill="#FFFFFF" fill-rule="nonzero">
                        <path d="M1.43170333,0.0308842039 C0.661364929,0.0308842039 0.0308842568,0.661371918 0.0308842568,1.43170153 C0.0308842568,2.20203643 0.661364929,2.83251885 1.43170333,2.83252414 C1.73077825,2.83252414 2.0081544,2.73669488 2.23634786,2.5753417 L3.25851152,3.59750108 C2.64541502,4.2898119 2.27219483,5.19909394 2.27219483,6.19448995 C2.27219483,7.17643281 2.6357774,8.07428946 3.23416528,8.76302124 L2.20543175,9.79174572 C1.98330386,9.64346979 1.71726034,9.55645576 1.43170333,9.55645576 C0.661364929,9.55645576 0.0308842568,10.1869435 0.0308842568,10.9572731 C0.0308842568,11.7276027 0.661364929,12.3580904 1.43170333,12.3580904 C2.20204178,12.3580904 2.83252245,11.7276027 2.83252245,10.9572731 C2.83252245,10.6740738 2.74655418,10.4103051 2.6005188,10.1892836 L3.63061109,9.15891786 C4.31872147,9.75486998 5.2147697,10.1167816 6.19448836,10.1167816 C7.18988226,10.1167816 8.099168,9.74356637 8.79148094,9.13046557 L9.81363026,10.152625 C9.65228396,10.3808257 9.55645417,10.6582064 9.55645417,10.9572731 C9.55645417,11.7276027 10.1869345,12.3580904 10.9572731,12.3580904 C11.7276117,12.3580904 12.358092,11.7276027 12.358092,10.9572731 C12.358092,10.1869435 11.7276117,9.55645576 10.9572731,9.55645576 C10.6876577,9.55645576 10.4361546,9.63506752 10.2218433,9.76849256 L9.18354175,8.72991514 C9.7648537,8.04563068 10.1167816,7.16068716 10.1167816,6.19448995 C10.1167816,5.21477605 9.75486628,4.3187301 9.15891575,3.63060718 L10.1890078,2.60051144 C10.4100711,2.74663783 10.6739854,2.83252414 10.9572731,2.83252414 C11.7276117,2.83251885 12.358092,2.20203643 12.358092,1.43170153 C12.358092,0.661371918 11.7276117,0.0308842039 10.9572731,0.0308842039 C10.1869345,0.0308842039 9.55645417,0.661371918 9.55645417,1.43170153 C9.55645417,1.71725684 9.64347297,1.98330746 9.79174942,2.20543546 L8.76301595,3.23416523 C8.07428946,2.63578296 7.1764344,2.27219298 6.19448836,2.27219298 C5.22828745,2.27219298 4.34334785,2.62412462 3.65906174,3.20543763 L2.62076064,2.16713552 C2.75413263,1.95284329 2.83252245,1.70126236 2.83252245,1.43170153 C2.83252245,0.661371918 2.20204178,0.0308842039 1.43170333,0.0308842039 L1.43170333,0.0308842039 Z M1.43170333,0.591210074 C1.89921273,0.591210074 2.27219483,0.964197679 2.27219483,1.43170153 C2.27219483,1.89921067 1.89921273,2.27219298 1.43170333,2.27219298 C0.964193973,2.27219298 0.591211874,1.89921067 0.591211874,1.43170153 C0.591211874,0.964197679 0.964193973,0.591210074 1.43170333,0.591210074 Z M10.9572731,0.591210074 C11.4247828,0.591210074 11.7977645,0.964197679 11.7977645,1.43170153 C11.7977645,1.89921067 11.4247828,2.27219298 10.9572731,2.27219298 C10.4897639,2.27219298 10.1167816,1.89921067 10.1167816,1.43170153 C10.1167816,0.964197679 10.4897639,0.591210074 10.9572731,0.591210074 Z M6.19448836,2.83252414 C8.0545661,2.83252414 9.55645417,4.33440692 9.55645417,6.19448995 C9.55645417,7.32176503 9.00429338,8.31676925 8.15563473,8.92635984 L8.15563473,8.61692133 C8.15563473,7.51616078 7.27975899,6.61473568 6.19448836,6.61473568 C5.10918968,6.61473568 4.23334152,7.51616078 4.23334152,8.61692133 L4.23334152,8.92635984 C3.3846833,8.31676925 2.83252245,7.32176503 2.83252245,6.19448995 C2.83252245,4.33440692 4.33441063,2.83252414 6.19448836,2.83252414 Z M6.19448836,6.61473568 C6.96482644,6.61473568 7.59530728,5.98424796 7.59530728,5.21391306 C7.59530728,4.44357816 6.96482644,3.81309574 6.19448836,3.81309574 C5.42414976,3.81309574 4.79366945,4.44357816 4.79366945,5.21391306 C4.79366945,5.98424796 5.42414976,6.61473568 6.19448836,6.61473568 Z M6.19448836,4.37342161 C6.66199751,4.37342161 7.03497982,4.74640392 7.03497982,5.21391306 C7.03497982,5.6814275 6.66199751,6.05440451 6.19448836,6.05440451 C5.72697869,6.05440451 5.35399691,5.6814275 5.35399691,5.21391306 C5.35399691,4.74640392 5.72697869,4.37342161 6.19448836,4.37342161 Z M6.19448836,7.17506155 C6.97169068,7.17506155 7.59530728,7.80972657 7.59530728,8.61692133 L7.59530728,9.25166577 C7.16899624,9.44681332 6.69491671,9.55645576 6.19448836,9.55645576 C5.69405949,9.55645576 5.21998048,9.44681332 4.79366945,9.25166577 L4.79366945,8.61692133 C4.79366945,7.80972657 5.41725799,7.17506155 6.19448836,7.17506155 Z M1.43170333,10.1167816 C1.89921273,10.1167816 2.27219483,10.4897639 2.27219483,10.9572731 C2.27219483,11.4247822 1.89921273,11.7977645 1.43170333,11.7977645 C0.964193973,11.7977645 0.591211874,11.4247822 0.591211874,10.9572731 C0.591211874,10.4897639 0.964193973,10.1167816 1.43170333,10.1167816 Z M10.9572731,10.1167816 C11.4247828,10.1167816 11.7977645,10.4897639 11.7977645,10.9572731 C11.7977645,11.4247822 11.4247828,11.7977645 10.9572731,11.7977645 C10.4897639,11.7977645 10.1167816,11.4247822 10.1167816,10.9572731 C10.1167816,10.4897639 10.4897639,10.1167816 10.9572731,10.1167816 Z" id="Shape"></path>
                    </g>
                </g>
            </g>
        </g>
    </g>
</svg>