<?xml version="1.0" encoding="UTF-8"?>
<svg width="19px" height="11px" viewBox="0 0 19 11" version="1.1" xmlns="http://www.w3.org/2000/svg" xmlns:xlink="http://www.w3.org/1999/xlink">
    <!-- Generator: Sketch 62 (91390) - https://sketch.com -->
    <title>noun_Video_966159</title>
    <desc>Created with Sketch.</desc>
    <g id="Amit-Revised-Screens" stroke="none" stroke-width="1" fill="none" fill-rule="evenodd">
        <g id="Candidate_Web_My-Jobs_interview" transform="translate(-532.000000, -307.000000)" fill="#FFFFFF" fill-rule="nonzero">
            <g id="Group-18" transform="translate(520.000000, 300.000000)">
                <g id="noun_Video_966159" transform="translate(12.000000, 7.000000)">
                    <path d="M11.9251055,10.3968882 L1.60337553,10.3968882 C0.776635021,10.3968882 0.125263713,9.72046414 0.125263713,8.91877637 L0.125263713,1.60337553 C0.125263713,0.776635021 0.801687764,0.125263713 1.60337553,0.125263713 L11.9000527,0.125263713 C12.7267932,0.125263713 13.3781646,0.801687764 13.3781646,1.60337553 L13.3781646,8.89372363 C13.4032173,9.72046414 12.7267932,10.3968882 11.9251055,10.3968882 Z" id="Path"></path>
                    <path d="M14.405327,3.03138186 L14.405327,7.49077004 L18.5390295,9.82067511 C18.7143987,9.92088608 18.9148207,9.79562236 18.9148207,9.59520042 L18.9148207,0.926951477 C18.9148207,0.726529536 18.7143987,0.626318565 18.5390295,0.701476793 L14.405327,3.03138186 Z" id="Path"></path>
                </g>
            </g>
        </g>
    </g>
</svg>