<svg width="15px" height="11px" viewBox="0 0 15 11" version="1.1" xmlns="http://www.w3.org/2000/svg" xmlns:xlink="http://www.w3.org/1999/xlink">
    <g id="Amit-Revised-Screens" stroke="none" stroke-width="1" fill="none" fill-rule="evenodd">
        <g id="Candidate_Web_My-Jobs_Shortlist_1" transform="translate(-681.000000, -305.000000)" fill="#0a7be0" fill-rule="nonzero">
            <path d="M682.534091,305 C681.71442,305 681,305.700401 681,306.546875 L681,314.453125 C681,315.299599 681.71442,316 682.534091,316 L694.465909,316 C695.28558,316 696,315.299599 696,314.453125 L696,306.546875 C696,305.700401 695.28558,305 694.465909,305 L682.534091,305 Z M682.534091,305.6875 L694.465909,305.6875 C694.863287,305.6875 695.318182,306.127213 695.318182,306.546875 L695.318182,309.46875 L681.681818,309.46875 L681.681818,306.546875 C681.681818,306.127213 682.136713,305.6875 682.534091,305.6875 Z M683.386364,307.40625 C683.103945,307.40625 682.875,307.637103 682.875,307.921875 C682.875,308.206647 683.103945,308.4375 683.386364,308.4375 C683.668782,308.4375 683.897727,308.206647 683.897727,307.921875 C683.897727,307.637103 683.668782,307.40625 683.386364,307.40625 Z M693.613636,307.40625 C693.331218,307.40625 693.102273,307.637103 693.102273,307.921875 C693.102273,308.206647 693.331218,308.4375 693.613636,308.4375 C693.896055,308.4375 694.125,308.206647 694.125,307.921875 C694.125,307.637103 693.896055,307.40625 693.613636,307.40625 Z M685.229403,307.578125 C685.107591,307.583858 684.998068,307.654692 684.9421,307.763937 C684.886132,307.873183 684.892224,308.004239 684.958082,308.107727 C685.023939,308.211215 685.139553,308.271407 685.261364,308.265625 L691.738636,308.265625 C691.86158,308.267377 691.975935,308.202245 692.037914,308.095168 C692.099893,307.988091 692.099893,307.855659 692.037914,307.748582 C691.975935,307.641505 691.86158,307.576373 691.738636,307.578125 L685.261364,307.578125 C685.250716,307.577621 685.240051,307.577621 685.229403,307.578125 Z M681.681818,310.15625 L695.318182,310.15625 L695.318182,314.453125 C695.318182,314.872787 694.863287,315.3125 694.465909,315.3125 L682.534091,315.3125 C682.136713,315.3125 681.681818,314.872787 681.681818,314.453125 L681.681818,310.15625 Z M682.875,310.84375 C682.676854,310.84375 682.486093,311.016914 682.427557,311.155273 C682.369021,311.293633 682.363636,311.411921 682.363636,311.53125 L682.363636,313.9375 C682.363636,314.056829 682.369021,314.175117 682.427557,314.313477 C682.486093,314.451836 682.676854,314.625 682.875,314.625 L685.602273,314.625 C685.800419,314.625 685.99118,314.451836 686.049716,314.313477 C686.108252,314.175117 686.113636,314.056829 686.113636,313.9375 L686.113636,311.53125 C686.113636,311.411921 686.108252,311.293633 686.049716,311.155273 C685.99118,311.016914 685.800419,310.84375 685.602273,310.84375 L682.875,310.84375 Z M683.045455,311.53125 L685.431818,311.53125 L685.431818,313.9375 L683.045455,313.9375 L683.045455,311.53125 Z M687.445312,311.53125 C687.3235,311.536983 687.213977,311.607817 687.158009,311.717062 C687.102041,311.826308 687.108133,311.957364 687.173991,312.060852 C687.239848,312.16434 687.355463,312.224532 687.477273,312.21875 L693.954545,312.21875 C694.077489,312.220502 694.191844,312.15537 694.253823,312.048293 C694.315802,311.941216 694.315802,311.808784 694.253823,311.701707 C694.191844,311.59463 694.077489,311.529498 693.954545,311.53125 L687.477273,311.53125 C687.466625,311.530746 687.45596,311.530746 687.445312,311.53125 Z M687.445312,313.25 C687.3235,313.255733 687.213977,313.326567 687.158009,313.435812 C687.102041,313.545058 687.108133,313.676114 687.173991,313.779602 C687.239848,313.88309 687.355463,313.943282 687.477273,313.9375 L693.954545,313.9375 C694.077489,313.939252 694.191844,313.87412 694.253823,313.767043 C694.315802,313.659966 694.315802,313.527534 694.253823,313.420457 C694.191844,313.31338 694.077489,313.248248 693.954545,313.25 L687.477273,313.25 C687.466625,313.249496 687.45596,313.249496 687.445312,313.25 Z" id="Shape"></path>
        </g>
    </g>
</svg>