<?xml version="1.0" encoding="UTF-8"?>
<svg width="30px" height="22px" viewBox="0 0 30 22" version="1.1" xmlns="http://www.w3.org/2000/svg" xmlns:xlink="http://www.w3.org/1999/xlink">
    <!-- Generator: Sketch 63.1 (92452) - https://sketch.com -->
    <title>Shape 2</title>
    <desc>Created with Sketch.</desc>
    <g id="Talent-Mob-2020" stroke="none" stroke-width="1" fill="none" fill-rule="evenodd">
        <g id="Candidate-Profile" transform="translate(-719.000000, -300.000000)" fill="#4C5459" fill-rule="nonzero">
            <g id="Group-8" transform="translate(719.000000, 299.000000)">
                <g id="Shape-2" transform="translate(0.000000, 1.619835)">
                    <path d="M2.98196844,0 C1.38869144,0 0,1.34081261 0,2.96126033 L0,18.0965909 C0,19.7170386 1.38869144,21.0578512 2.98196844,21.0578512 L26.1750563,21.0578512 C27.7683334,21.0578512 29.1570248,19.7170386 29.1570248,18.0965909 L29.1570248,2.96126033 C29.1570248,1.34081261 27.7683334,0 26.1750563,0 L2.98196844,0 Z M2.98196844,1.3161157 L26.1750563,1.3161157 C26.9474796,1.3161157 27.8317055,2.15788093 27.8317055,2.96126033 L27.8317055,8.55475207 L1.32531931,8.55475207 L1.32531931,2.96126033 C1.32531931,2.15788093 2.20954518,1.3161157 2.98196844,1.3161157 Z M4.63861758,4.60640496 C4.08965243,4.60640496 3.6446281,5.04833884 3.6446281,5.59349174 C3.6446281,6.13864463 4.08965243,6.58057851 4.63861758,6.58057851 C5.18758273,6.58057851 5.63260706,6.13864463 5.63260706,5.59349174 C5.63260706,5.04833884 5.18758273,4.60640496 4.63861758,4.60640496 Z M24.5184072,4.60640496 C23.9694421,4.60640496 23.5244177,5.04833884 23.5244177,5.59349174 C23.5244177,6.13864463 23.9694421,6.58057851 24.5184072,6.58057851 C25.0673724,6.58057851 25.5123967,6.13864463 25.5123967,5.59349174 C25.5123967,5.04833884 25.0673724,4.60640496 24.5184072,4.60640496 Z M8.22112134,4.93543388 C7.98434206,4.94640871 7.7714507,5.08200909 7.66266008,5.29114377 C7.55386946,5.50027845 7.56571206,5.75116606 7.69372584,5.94927762 C7.82173962,6.14738918 8.04647084,6.26261846 8.28324568,6.25154959 L20.8737791,6.25154959 C21.1127569,6.25490418 21.3350413,6.13021791 21.4555159,5.92523519 C21.5759906,5.72025248 21.5759906,5.46673099 21.4555159,5.26174828 C21.3350413,5.05676557 21.1127569,4.93207929 20.8737791,4.93543388 L8.28324568,4.93543388 C8.26254895,4.9344695 8.24181807,4.9344695 8.22112134,4.93543388 Z M1.32531931,9.87086777 L27.8317055,9.87086777 L27.8317055,18.0965909 C27.8317055,18.8999703 26.9474796,19.7417355 26.1750563,19.7417355 L2.98196844,19.7417355 C2.20954518,19.7417355 1.32531931,18.8999703 1.32531931,18.0965909 L1.32531931,9.87086777 Z M3.6446281,11.1869835 C3.25947175,11.1869835 2.88866994,11.5184798 2.7748873,11.7833484 C2.66110466,12.048217 2.65063862,12.274661 2.65063862,12.5030992 L2.65063862,17.1095041 C2.65063862,17.337942 2.66110533,17.5643863 2.7748873,17.8292549 C2.88866961,18.0941235 3.25947142,18.4256198 3.6446281,18.4256198 L8.94590533,18.4256198 C9.33106201,18.4256198 9.70186382,18.0941235 9.81564613,17.8292549 C9.92942844,17.5643863 9.93989482,17.337942 9.93989482,17.1095041 L9.93989482,12.5030992 C9.93989482,12.274661 9.92942877,12.048217 9.81564613,11.7833484 C9.70186349,11.5184798 9.33106168,11.1869835 8.94590533,11.1869835 L3.6446281,11.1869835 Z M3.97595793,12.5030992 L8.61457551,12.5030992 L8.61457551,17.1095041 L3.97595793,17.1095041 L3.97595793,12.5030992 Z M12.5284091,12.5030992 C12.2916298,12.514074 12.0787385,12.6496744 11.9699478,12.8588091 C11.8611572,13.0679437 11.8729998,13.3188314 12.0010136,13.5169429 C12.1290274,13.7150545 12.3537586,13.8302838 12.5905334,13.8192149 L25.1810669,13.8192149 C25.4200446,13.8225695 25.642329,13.6978832 25.7628037,13.4929005 C25.8832784,13.2879178 25.8832784,13.0343963 25.7628037,12.8294136 C25.642329,12.6244309 25.4200446,12.4997446 25.1810669,12.5030992 L12.5905334,12.5030992 C12.5698367,12.5021348 12.5491058,12.5021348 12.5284091,12.5030992 Z M12.5284091,15.7933884 C12.2916298,15.8043633 12.0787385,15.9399636 11.9699478,16.1490983 C11.8611572,16.358233 11.8729998,16.6091206 12.0010136,16.8072322 C12.1290274,17.0053437 12.3537586,17.120573 12.5905334,17.1095041 L25.1810669,17.1095041 C25.4200446,17.1128587 25.642329,16.9881725 25.7628037,16.7831897 C25.8832784,16.578207 25.8832784,16.3246855 25.7628037,16.1197028 C25.642329,15.9147201 25.4200446,15.7900338 25.1810669,15.7933884 L12.5905334,15.7933884 C12.5698367,15.792424 12.5491058,15.792424 12.5284091,15.7933884 Z" id="Shape"></path>
                </g>
            </g>
        </g>
    </g>
</svg>